<svg width="24" height="24" viewBox="0 0 24 24" fill="none" xmlns="http://www.w3.org/2000/svg">
<g clip-path="url(#clip0_2693_3057)">
<g clip-path="url(#clip1_2693_3057)">
<path d="M3 3.22737V20.772C3.00011 20.8101 3.01112 20.8473 3.03163 20.8789C3.05214 20.9105 3.08125 20.9352 3.11531 20.9499C3.14937 20.9645 3.18686 20.9684 3.22307 20.9612C3.25929 20.9539 3.29262 20.9358 3.31889 20.9091L12.1731 12.0001L3.31889 3.09032C3.29262 3.0636 3.25929 3.04547 3.22307 3.03821C3.18686 3.03096 3.14937 3.03489 3.11531 3.04953C3.08125 3.06416 3.05214 3.08885 3.03163 3.12049C3.01112 3.15213 3.00011 3.18931 3 3.22737Z" fill="black"/>
<path d="M15.8856 8.33942L4.78361 2.0287L4.77668 2.02469C4.58543 1.91754 4.4037 2.18451 4.56034 2.33986L13.2631 10.9256L15.8856 8.33942Z" fill="black"/>
<path d="M4.56084 21.6603C4.40334 21.8157 4.58507 22.0827 4.77719 21.9755L4.78411 21.9715L15.8853 15.6608L13.2627 13.0737L4.56084 21.6603Z" fill="black"/>
<path d="M20.3678 10.8837L17.2676 9.12207L14.3525 11.9998L17.2676 14.8761L20.3678 13.1158C21.2111 12.635 21.2111 11.3645 20.3678 10.8837Z" fill="black"/>
</g>
</g>
<defs>
<clipPath id="clip0_2693_3057">
<rect width="18" height="20" fill="white" transform="translate(3 2)"/>
</clipPath>
<clipPath id="clip1_2693_3057">
<rect width="18" height="20" fill="white" transform="translate(3 2)"/>
</clipPath>
</defs>
</svg>
