<svg width="33" height="38" viewBox="0 0 33 38" fill="none" xmlns="http://www.w3.org/2000/svg">
<path d="M32.6473 0H0V37.2921H32.6473V0Z" fill="white"/>
<path d="M12.5366 32.8717L13.6158 35.3215L14.6945 32.8717H15.6275V32.9588C15.3818 32.9515 15.213 33.073 15.1889 33.3221C15.1174 34.0566 15.2434 34.9081 15.1922 35.655C15.2012 35.714 15.2479 35.8063 15.2918 35.8467C15.3857 35.9339 15.5539 35.9002 15.5696 36.0211H14.316C14.307 35.9109 14.4302 35.9446 14.4909 35.9193C14.5798 35.8822 14.753 35.7613 14.753 35.6567V33.3964L13.5433 36.0239L13.455 35.9924L12.2745 33.4256V35.6859C12.2745 35.7045 12.3639 35.8389 12.3915 35.8602C12.4713 35.921 12.59 35.9182 12.6749 35.9559C12.7154 35.9738 12.7205 35.9592 12.7121 36.0211H11.6334C11.6294 35.9187 11.7627 35.9322 11.8392 35.8917C11.9753 35.8198 12.0203 35.7157 12.0383 35.5655C12.1215 34.8597 11.9815 34.0133 12.0428 33.2923C12.0394 33.0719 11.8387 32.9493 11.6328 32.9583V32.8711H12.5371L12.5366 32.8717Z" fill="black"/>
<path d="M20.2189 24.9102C20.6637 24.9512 21.0726 25.2038 21.1074 25.6835C21.1446 26.193 20.8201 26.4214 20.3791 26.558L21.2964 27.8279C21.4162 27.9758 21.6288 27.9758 21.7705 28.0534C21.8048 28.072 21.8194 28.0523 21.8076 28.1187H20.9039L19.9562 26.6604L19.5625 26.6311V27.8122C19.5625 27.8999 19.7076 27.9978 19.7886 28.0231C19.855 28.0439 20.0181 28.0118 19.9995 28.1181H18.6582C18.6745 27.9854 18.8714 28.0411 18.9788 27.9573C19.1284 27.8403 19.0575 27.3049 19.0643 27.1114C19.0817 26.6126 19.1267 26.0968 19.0969 25.5941C19.0772 25.2583 19.0626 25.0125 18.6582 24.9974V24.9102C19.161 24.9445 19.7228 24.8641 20.2183 24.9102H20.2189ZM19.5625 26.4264H20.0147C20.0878 26.4264 20.3032 26.3077 20.3656 26.2521C20.6761 25.9748 20.6288 25.3415 20.2155 25.1756C20.1812 25.1616 20.0366 25.1138 20.0147 25.1138H19.5625V26.4264Z" fill="black"/>
<path d="M4.12454 28.8766C5.85504 29.0425 5.9872 31.5098 4.49516 31.9889C4.06324 32.1278 2.99074 32.1256 2.51945 32.0862C2.45365 32.0806 2.38335 32.0902 2.3901 31.9974C2.69773 31.9856 2.80009 31.8714 2.82708 31.5739C2.87826 31.0087 2.87657 29.9238 2.82877 29.3569C2.81134 29.1477 2.79446 29.0808 2.60269 28.9998C2.53745 28.9722 2.32486 28.9655 2.43453 28.8766C2.97837 28.9149 3.59026 28.8254 4.12566 28.8766H4.12454ZM3.52052 29.06C3.37373 29.0791 3.31187 29.0768 3.29275 29.2405C3.36755 29.9997 3.1932 30.9524 3.29612 31.6881C3.30512 31.7522 3.3338 31.8545 3.40129 31.8748C3.5672 31.9248 4.02612 31.8731 4.19709 31.8073C5.45517 31.3219 5.18691 28.8412 3.52052 29.06Z" fill="black"/>
<path d="M26.2247 28.8757C26.5976 28.9134 27.0256 29.1209 27.0824 29.5343C27.1561 30.0697 26.9463 30.3307 26.457 30.4791C26.4249 30.4887 26.4052 30.4589 26.4148 30.523L27.3068 31.789C27.4288 31.9076 27.5576 31.9616 27.7263 31.9819L27.7556 32.0842H26.9536L25.9643 30.6237L25.5392 30.5967V31.6321C25.5392 31.6416 25.5751 31.8036 25.5813 31.8227C25.6477 32.0156 25.8631 31.9408 25.9767 32.0106C26.0251 32.0398 25.9733 32.0842 25.9615 32.0842H24.6933V31.997C25.0448 31.9537 25.0802 31.8041 25.1027 31.4875C25.1427 30.9178 25.1438 30.0123 25.1027 29.4438C25.0802 29.1283 25.0099 28.973 24.6641 28.9635V28.8763C25.164 28.9134 25.7332 28.8262 26.2242 28.8763L26.2247 28.8757ZM25.5397 30.392H26.0206C26.0903 30.392 26.313 30.2727 26.3715 30.2182C26.6476 29.9629 26.6319 29.3718 26.3074 29.1716C26.2708 29.1491 26.1083 29.0793 26.0791 29.0793H25.5836L25.5397 29.1232V30.392Z" fill="black"/>
<path d="M22.7637 28.8263C24.9582 28.5597 25.0707 31.992 23.1051 32.1427C21.0383 32.3008 20.8904 29.054 22.7637 28.8263ZM22.7913 29.0293C21.6687 29.2042 21.6463 32.1478 23.1608 31.9363C24.3058 31.7766 24.3199 28.7914 22.7913 29.0293Z" fill="black"/>
<path d="M12.5299 28.8259C14.7756 28.583 14.8414 31.9731 12.9 32.1418C10.8433 32.3207 10.6678 29.0278 12.5299 28.8259ZM12.5575 29.0284C11.5221 29.1904 11.4872 31.5929 12.5001 31.9006C14.1294 32.3949 14.2379 28.7652 12.5575 29.0284Z" fill="black"/>
<path d="M14.5477 27.2718V25.3321C14.5477 25.3085 14.4566 25.1251 14.4296 25.1004C14.325 25.0037 14.1079 25.0436 14.0815 24.9092H15.1894V24.9964C14.9678 24.9907 14.8042 25.0824 14.7603 25.3107L14.7519 28.1756L14.6428 28.1537L12.5653 25.6094V27.7825C12.5653 27.7937 12.6462 27.9248 12.6665 27.9433C12.7464 28.0176 12.851 28.0147 12.9364 28.0524C12.9775 28.0704 12.9814 28.0564 12.973 28.1177H11.9382C11.9241 28.1177 11.8746 28.067 11.923 28.044C12.166 28.0299 12.2976 27.9051 12.3291 27.6627C12.4168 26.9872 12.2678 26.142 12.3324 25.448C12.3049 25.2179 12.0001 25.0076 11.7773 24.9964V24.9092H12.6086L14.5477 27.2718Z" fill="black"/>
<path d="M9.72978 32.8205C11.8928 32.5275 12.1098 35.9436 10.0717 36.1083C8.07576 36.2692 7.9256 33.0646 9.72978 32.8205ZM9.78827 33.0247C8.73827 33.1782 8.66853 35.65 9.77196 35.8839C11.3765 36.2236 11.3652 32.7941 9.78827 33.0247Z" fill="black"/>
<path d="M22.3911 32.8721L24.2571 35.2055V33.3242C24.2571 33.1117 23.9759 32.9609 23.7903 32.9457C23.742 32.9227 23.7915 32.8721 23.8055 32.8721H24.8842C24.9022 32.8721 24.9404 32.9322 24.9281 32.9592C24.5102 32.9806 24.4815 33.2314 24.4607 33.5852C24.4123 34.3894 24.4995 35.242 24.4618 36.0507L24.3038 35.9906C23.6424 35.2218 23.0603 34.3776 22.4006 33.6088C22.3827 33.588 22.4023 33.5543 22.3337 33.5717V35.5693C22.3337 35.7172 22.4406 35.855 22.575 35.9113C22.6492 35.9428 22.7775 35.9101 22.7713 36.0215H21.7218V35.9343C21.8973 35.936 22.0677 35.8393 22.0992 35.6554C22.1813 35.1785 22.174 33.9974 22.1313 33.498C22.1037 33.1791 21.8917 32.9885 21.5762 32.9592V32.8721H22.3928H22.3911Z" fill="black"/>
<path d="M8.13346 28.876V29.5615C8.13346 29.5694 8.2105 29.7168 8.07778 29.6318C8.05528 29.6172 7.9996 29.2826 7.82301 29.1718C7.80501 29.1606 7.68916 29.1094 7.68129 29.1094H6.58798V30.3343H7.33147C7.36747 30.3343 7.55362 30.2724 7.59412 30.2471C7.77071 30.1358 7.71672 29.9648 7.79827 29.868C7.83595 29.8231 7.87081 29.8697 7.87081 29.8827V31.0345C7.74484 31.0305 7.77183 30.8562 7.73978 30.7718C7.71109 30.6965 7.60536 30.5682 7.52888 30.5452C7.51257 30.5401 7.3416 30.5097 7.33147 30.5097H6.58798V31.72C6.58798 31.7273 6.64535 31.8145 6.65885 31.8241C6.71734 31.8663 7.35734 31.8618 7.47826 31.8522C7.8815 31.8207 8.10477 31.6435 8.21782 31.256L8.3078 31.2386L8.13289 32.0845H5.71289L5.73032 31.9945C5.92435 31.9557 6.08745 31.9096 6.11894 31.688C6.06833 30.922 6.19543 30.0508 6.12288 29.2978C6.09926 29.0503 5.94797 28.9738 5.71289 28.9637V28.8765H8.13289L8.13346 28.876Z" fill="black"/>
<path d="M11.2826 24.9102V25.6683C11.1915 25.6283 11.1988 25.5018 11.1583 25.4281C11.1133 25.3466 10.9524 25.1435 10.8596 25.1435H9.70785V26.3685H10.4806C10.4958 26.3685 10.6645 26.3268 10.6915 26.3173C10.9209 26.2335 10.8945 26.0636 10.9536 25.878C10.9693 25.8286 10.9412 25.8016 11.0199 25.8145V27.0394C10.9609 27.0467 10.9721 27.045 10.9541 27.0028C10.9041 26.8842 10.8726 26.5726 10.6555 26.5726H9.70785V27.7829C9.70785 27.8892 9.93225 27.9089 10.0127 27.9151C10.2427 27.9331 10.7556 27.9201 10.9682 27.8481C11.2123 27.7655 11.3349 27.5214 11.3962 27.2897L11.4862 27.2722L11.3101 28.117L8.83332 28.1181C8.82657 28.0073 8.95536 28.0399 9.02959 28.0084C9.19663 27.937 9.21912 27.8346 9.23824 27.6625C9.29786 27.1125 9.29223 25.9185 9.24331 25.3606C9.21687 25.0631 9.05378 25.0007 8.77539 24.9973V24.9102H11.2831H11.2826Z" fill="black"/>
<path d="M9.44597 30.6846V31.6615C9.44597 31.9472 9.74798 31.9877 9.97069 31.9973V32.0845H8.60012V31.9973C8.76603 31.9821 8.94037 31.9304 8.97749 31.747C8.92519 30.9501 9.05285 30.0531 8.9803 29.268C8.95893 29.0351 8.7874 28.9631 8.57031 28.9631V28.876H10.014C10.3194 28.876 10.7316 29.0801 10.8598 29.372C11.1298 29.9856 10.6877 30.6846 10.014 30.6846H9.44541H9.44597ZM9.44597 29.0807V30.4659C9.56014 30.5485 9.87958 30.5002 10.0162 30.4529C10.5055 30.2837 10.519 29.4552 10.1147 29.1847C10.0725 29.1566 9.90657 29.0807 9.86889 29.0807H9.44597Z" fill="black"/>
<path d="M16.5301 28.7588V29.9106L16.4277 29.9258C16.3687 29.4303 16.0498 28.9641 15.4981 29.0248C15.0307 29.076 14.8772 29.5563 15.2332 29.8667C15.741 30.3088 16.8006 30.3768 16.7601 31.2772C16.7269 32.0151 16.0149 32.226 15.3912 32.1C15.2557 32.0724 14.9745 31.9318 14.8682 31.9819C14.8153 32.0066 14.7878 32.1124 14.6927 32.0843V31.0196C14.6927 31.0039 14.7568 30.9595 14.7799 30.9758C14.7675 31.6366 15.7877 32.3351 16.2382 31.6906C16.7286 30.9881 15.3541 30.6299 14.984 30.32C14.1944 29.6598 14.8569 28.5597 15.9114 28.8673C16.1342 28.932 16.3299 29.153 16.4165 28.7633L16.5295 28.7594L16.5301 28.7588Z" fill="black"/>
<path d="M16.836 34.6217C16.7944 34.6476 16.7955 34.6796 16.791 34.7224C16.7708 34.8956 16.7865 35.2656 16.8006 35.4518C16.8298 35.837 16.9108 35.9276 17.3174 35.9343V36.0215H15.9469V35.9343C16.1223 35.9512 16.2826 35.8567 16.3242 35.6846C16.273 34.9063 16.3979 34.0306 16.327 33.2641C16.3068 33.043 16.1555 32.9694 15.9463 32.9592V32.8721H17.4479C17.5244 32.8721 17.823 32.9857 17.9006 33.0318C18.3275 33.2832 18.3826 33.9806 18.0609 34.3309C17.9692 34.4305 17.6318 34.6217 17.5064 34.6217H16.836ZM16.836 33.0757C16.7994 33.0757 16.7972 33.2343 16.7955 33.2657C16.7798 33.5498 16.7809 33.8557 16.791 34.1414C16.7938 34.2207 16.791 34.3602 16.836 34.417H17.2736C17.3028 34.417 17.4659 34.3472 17.5019 34.3247C17.7926 34.1425 17.8309 33.6071 17.6504 33.34C17.5857 33.2444 17.3894 33.0757 17.273 33.0757H16.8354H16.836Z" fill="black"/>
<path d="M25.3651 28.1176H24.1261C24.1132 28.1176 24.062 28.0698 24.1109 28.0439C24.7335 28.0237 24.2493 27.4112 24.1728 27.0856L22.9192 27.071C22.8866 27.3044 22.5199 27.7813 22.755 27.9719C22.8449 28.045 23.0052 28.0102 23.0035 28.117H21.9541V28.0298C22.183 28.0074 22.3017 27.9022 22.4074 27.7098C22.8371 26.9259 23.1413 25.8466 23.5238 25.0058C23.5761 24.8905 23.5789 24.8022 23.7341 24.8641L24.9809 27.8459C25.049 28.0237 25.2784 27.9725 25.3656 28.1176H25.3651ZM24.0822 26.8634L23.5288 25.5221L23.0328 26.8634H24.0822Z" fill="black"/>
<path d="M8.33761 24.8225V26.0474H8.25044C8.15933 25.3747 7.71222 24.9664 7.01372 25.0581C5.78994 25.219 5.67352 28.2503 7.52269 27.959C7.90062 27.8993 8.17845 27.5833 8.33705 27.2571C8.5007 27.2728 8.31399 27.5675 8.26225 27.6491C7.91806 28.1879 7.24937 28.3105 6.66278 28.1457C4.79168 27.6198 5.42438 24.2865 7.68916 24.9316C7.81064 24.9664 7.97767 25.0739 8.08847 25.0564C8.24425 25.0311 8.17226 24.7955 8.33761 24.8225Z" fill="black"/>
<path d="M18.032 36.0212C17.875 35.9829 18.2097 35.884 18.2316 35.871C18.3795 35.785 18.4757 35.551 18.5471 35.3992C18.9324 34.5831 19.2096 33.6822 19.5971 32.8622C19.6185 32.8015 19.731 32.7812 19.7461 32.8493L20.8985 35.6618C20.9778 35.8255 21.1257 35.938 21.3119 35.934V36.0212H20.1016C20.0875 36.0212 20.038 35.9706 20.0864 35.9475C20.7157 35.9065 20.1994 35.3233 20.1483 34.9881L18.9773 34.9841C18.9234 35.1557 18.6163 35.6961 18.753 35.8384C18.8266 35.9149 19.0589 35.8986 19.0662 36.0206H18.0314L18.032 36.0212ZM19.0668 34.767H20.0583L19.5769 33.5129L19.0668 34.767Z" fill="black"/>
<path d="M29.1118 28.876C29.2962 28.921 28.9121 28.9997 28.8924 29.007C28.6658 29.0897 28.8199 29.3265 28.8986 29.4682C29.0921 29.8169 29.3778 30.1408 29.5347 30.5092C29.7602 30.1999 29.9958 29.8754 30.1876 29.5441C30.3687 29.232 30.4891 29.0138 30.0003 28.9632V28.876H31.1083V28.9626C30.9187 28.9845 30.7731 29.1178 30.6589 29.2573C30.3057 29.6881 30.0228 30.3101 29.6933 30.7707C29.6612 30.8927 29.6601 31.6126 29.6865 31.742C29.704 31.8274 29.7726 31.9208 29.8541 31.9534C29.9559 31.9939 30.1252 31.9472 30.0881 32.0845H28.8199C28.8019 32.0845 28.7636 32.0243 28.776 31.9973C29.4492 32.0209 29.1612 31.2021 29.2 30.7707C28.8418 30.3123 28.5707 29.633 28.2052 29.1994C28.0736 29.0436 27.9341 28.9755 27.7266 28.9632V28.876H29.1118Z" fill="black"/>
<path d="M8.04623 32.8143V33.952H7.95906C7.87301 32.8818 6.48107 32.6698 6.04971 33.6607C5.7612 34.3232 5.81463 35.4733 6.58118 35.7821C7.21275 36.0368 7.74366 35.7798 8.09066 35.2349L8.16321 35.2793C7.68742 36.5402 5.7837 36.3017 5.43614 35.0605C5.08857 33.8193 5.94398 32.5652 7.25381 32.8632C7.38035 32.8919 7.73072 33.0595 7.79765 33.0494C7.9225 33.0297 7.88595 32.7828 8.04623 32.8143Z" fill="black"/>
<path d="M26.4287 32.8721C26.4517 32.8777 26.4894 32.921 26.4439 32.9457C26.2869 32.9621 26.0586 33.0273 26.0991 33.2298L26.8229 34.4474C27.0074 34.21 27.1806 33.9468 27.3302 33.6864C27.4798 33.426 27.7818 33.0149 27.2593 32.9598V32.8726H28.3093L28.2919 32.9626C28.1029 33.0037 28.0163 33.1015 27.9067 33.2427C27.7627 33.4277 27.0068 34.5756 26.9748 34.7314C26.9472 34.8646 26.9495 35.5738 26.9809 35.7037C27.0192 35.864 27.1845 35.9647 27.3476 35.9349V36.0221H26.0935C26.1025 35.8938 26.2712 35.9495 26.3826 35.8882C26.5063 35.8202 26.522 35.6706 26.5322 35.5418C26.5586 35.2038 26.5659 34.881 26.409 34.584C26.2335 34.2516 25.7808 33.5053 25.5519 33.2247C25.4344 33.0807 25.2971 32.9654 25.1025 32.9592V32.8721H26.4292H26.4287Z" fill="black"/>
<path d="M18.3092 25.7268H18.222C18.2186 25.5232 18.1202 25.3072 17.9307 25.2161C17.9059 25.2043 17.7232 25.1435 17.7114 25.1435H17.172V27.7536C17.172 27.793 17.2603 27.9426 17.3025 27.973C17.4077 28.0478 17.5539 27.9938 17.609 28.1181H16.2969C16.3099 27.978 16.5061 28.0596 16.6085 27.9634C16.6265 27.9465 16.7047 27.7964 16.7047 27.7829V25.1435H16.1361C15.9578 25.1435 15.7986 25.3533 15.7413 25.5069C15.7109 25.5867 15.7283 25.7695 15.626 25.756V24.9102H18.2648C18.2929 24.9287 18.3086 25.0153 18.3086 25.0412V25.7268H18.3092Z" fill="black"/>
<path d="M21.2243 28.876L21.2535 29.7218C21.2046 29.7314 21.1922 29.7111 21.1731 29.6712C21.1208 29.5627 21.1236 29.4333 21.0364 29.3124C20.9802 29.2342 20.8087 29.1094 20.7142 29.1094H20.1748V31.7195C20.1748 31.9011 20.4352 31.9883 20.5837 32.0108C20.6321 32.0338 20.5826 32.0845 20.5685 32.0845H19.2711V31.9973C19.4252 32.0001 19.7086 31.9006 19.7086 31.72V29.1099H19.1693C19.0292 29.1099 18.874 29.282 18.8195 29.4018C18.8048 29.4339 18.7239 29.7966 18.6592 29.7224L18.6884 28.8765H21.2248L21.2243 28.876Z" fill="black"/>
<path d="M27.0856 24.9097V24.9969C26.7402 24.9969 26.6266 25.0858 26.5935 25.4238C26.5389 25.9806 26.549 26.9844 26.5884 27.5502C26.6019 27.7403 26.5957 27.8815 26.8111 27.9107C27.0276 27.9405 27.6238 27.9006 27.8229 27.8196C28.0219 27.7386 28.1215 27.5845 28.2188 27.3995C28.2638 27.3146 28.2677 27.1037 28.3976 27.17L28.1654 28.1345L25.715 28.1171C25.7099 27.9979 25.8426 28.0423 25.9208 28.017C26.0457 27.9765 26.1053 27.8404 26.1199 27.72C26.2121 26.967 26.0687 26.0278 26.1103 25.2573C26.0772 25.0695 25.8927 24.9862 25.715 24.9964V24.9092H27.0856V24.9097Z" fill="black"/>
<path d="M18.3965 28.876V28.9632C18.1614 28.9733 18.0107 29.0498 17.9871 29.2972C17.914 30.0598 18.0433 30.9417 17.9905 31.7178C18.0321 31.9337 18.1969 31.9911 18.3971 31.9967V32.0839H17.1143V31.9967C17.3268 31.9928 17.4883 31.9141 17.5197 31.688C17.4787 30.9214 17.5827 30.0851 17.5237 29.327C17.5012 29.0402 17.3949 28.9845 17.1143 28.9637V28.8765H18.3971L18.3965 28.876Z" fill="black"/>
<path d="M13.4109 23.6414C13.412 23.6499 13.4547 23.6741 13.4401 23.6847C10.8171 23.5694 8.32059 22.4795 6.41293 20.6962C0.207983 14.8939 2.28211 3.93048 10.6118 1.47561C11.4993 1.21409 12.4559 1.0375 13.3816 1.02344L13.4272 4.67003C13.3884 4.72346 13.2095 4.69084 13.1342 4.69871C8.10462 5.22906 5.27126 10.3671 6.96689 15.0384C7.97752 17.8234 10.456 19.7063 13.4109 19.9521V23.6414Z" fill="black"/>
<path d="M30.0881 1.16908V4.69813C29.1551 4.68745 28.2249 4.74987 27.3127 4.94053C25.9112 5.23297 24.5687 5.81225 23.3944 6.62322V6.68171C23.7262 7.3026 24.0221 7.94036 24.2352 8.61355C25.049 11.1837 24.9557 14.2837 23.8826 16.7638C23.7319 17.112 23.5418 17.4365 23.3798 17.779C23.3849 17.8352 23.7026 18.0388 23.7752 18.0866C25.5889 19.2828 27.9313 19.7507 30.0881 19.7192V23.336C26.9454 23.3816 23.7375 22.5251 21.2388 20.5994C19.3795 22.4795 16.7924 23.5852 14.1396 23.6566L14.1104 5.6469L14.6064 5.89492V19.9526L15.1311 19.8649V6.41964L15.5973 6.63841V19.7485L16.0928 19.5882V7.09058L16.559 7.29473V19.4274C17.0185 19.2367 17.4549 18.9887 17.8627 18.7047C18.1827 18.482 18.5302 18.221 18.7755 17.9252C18.0533 16.8482 17.5275 15.5822 17.2969 14.2994C17.0663 13.0166 17.0753 11.3558 17.3312 10.0353C17.5725 8.79071 18.032 7.60124 18.7383 6.55011C17.5016 5.41125 15.8442 4.79093 14.1677 4.6987L14.197 1.02342C15.0631 0.996985 15.937 1.15333 16.7694 1.38167C18.447 1.84227 19.9981 2.72749 21.268 3.90571C22.7488 2.75786 24.5091 1.99918 26.3313 1.56838C27.5601 1.27762 28.8238 1.14433 30.087 1.16964L30.0881 1.16908ZM14.6941 1.51945V4.20266C16.9651 4.50692 19.1022 5.76163 20.3333 7.70472C21.773 9.97681 22.1195 12.6848 21.1814 15.2296C21.5689 15.9399 22.0722 16.6868 22.6824 17.225C22.7347 17.2711 22.9541 17.4747 23.0019 17.4421C24.9928 13.7589 24.6463 9.24007 22.2691 5.82631C20.5296 3.32813 17.7316 1.77028 14.6941 1.51889V1.51945ZM20.9036 14.5272C21.2601 13.2106 21.304 11.8316 21.0115 10.497C20.9992 10.4414 20.9131 10.0645 20.8895 10.0645C20.5566 11.4402 20.5003 12.9654 20.8366 14.3472C20.8479 14.3945 20.8575 14.5114 20.9041 14.5272H20.9036ZM14.6064 20.4183V23.16C16.3391 22.9761 18.0303 22.3974 19.4728 21.4222C19.6618 21.2945 20.8468 20.4031 20.8462 20.2586C20.1629 19.7192 19.6005 19.0438 19.0786 18.3492C17.8402 19.5044 16.2975 20.2271 14.6064 20.4189V20.4183Z" fill="black"/>
</svg>
