<svg width="146" height="24" viewBox="0 0 146 24" fill="none" xmlns="http://www.w3.org/2000/svg">
<path d="M57.7554 23.3374C56.6905 23.3374 55.7291 23.1218 54.8692 22.6925C54.0094 22.2633 53.3283 21.6877 52.8278 20.9639C52.3254 20.2421 52.0752 19.4298 52.0752 18.5289C52.0752 17.0621 52.6528 15.8956 53.8099 15.0255C54.9671 14.1574 56.4967 13.5761 58.4008 13.2816L62.6078 12.654V11.9938C62.6078 11.1141 62.3933 10.4346 61.9624 9.95143C61.5316 9.4702 60.7959 9.22958 59.7517 9.22958C59.0141 9.22958 58.4158 9.38165 57.9549 9.68579C57.4939 9.98993 57.1515 10.3922 56.9257 10.8946C56.762 11.168 56.5268 11.3027 56.2201 11.3027H53.7949C53.5691 11.3027 53.3998 11.2392 53.2888 11.1141C53.1759 10.989 53.1194 10.8215 53.1194 10.6117C53.1401 10.2767 53.2737 9.86866 53.5183 9.3855C53.7648 8.90427 54.1524 8.43844 54.6848 7.988C55.2173 7.53757 55.9022 7.15451 56.7432 6.84075C57.5823 6.52698 58.5965 6.36914 59.7837 6.36914C61.0744 6.36914 62.1638 6.53083 63.0537 6.85615C63.9437 7.18146 64.6549 7.61649 65.1873 8.15932C65.7198 8.70408 66.1093 9.34315 66.3539 10.0766C66.6003 10.8099 66.7226 11.5838 66.7226 12.4019V22.2671C66.7226 22.4769 66.6511 22.654 66.5081 22.8003C66.3651 22.9466 66.1902 23.0198 65.987 23.0198H63.4996C63.2738 23.0198 63.0951 22.9466 62.9615 22.8003C62.8279 22.654 62.7621 22.475 62.7621 22.2671V21.0409C62.4949 21.4394 62.1374 21.8109 61.6877 22.1555C61.2381 22.5 60.6906 22.783 60.0452 23.0044C59.3999 23.2257 58.6378 23.3335 57.7573 23.3335L57.7554 23.3374ZM58.7997 20.3518C59.5165 20.3518 60.1656 20.194 60.7489 19.8802C61.3321 19.5664 61.7931 19.0794 62.1318 18.4192C62.4686 17.7589 62.6379 16.9274 62.6379 15.9206V15.2604L59.5673 15.7628C58.3594 15.9514 57.4582 16.2556 56.8655 16.6733C56.2709 17.0929 55.9755 17.6049 55.9755 18.2132C55.9755 18.6733 56.1129 19.066 56.3895 19.3913C56.666 19.7166 57.0198 19.9572 57.4487 20.1131C57.8796 20.271 58.3293 20.348 58.7997 20.348V20.3518Z" fill="#382E6B"/>
<path d="M68.5872 23.3373C68.3821 23.3373 68.209 23.2642 68.066 23.1179C67.9231 22.9716 67.8516 22.7926 67.8516 22.5847V1.7839C67.8516 1.57408 67.9231 1.39699 68.066 1.25069C68.209 1.1044 68.384 1.03125 68.5872 1.03125H71.321C71.5468 1.03125 71.7256 1.1044 71.8591 1.25069C71.9927 1.39699 72.0586 1.576 72.0586 1.7839V8.94655C72.6117 8.27668 73.2872 7.73192 74.085 7.31229C74.8827 6.89266 75.8667 6.68476 77.0333 6.68476C78.2807 6.68476 79.3719 6.9735 80.3033 7.54906C81.2346 8.12461 81.9571 8.93693 82.4689 9.98409C82.9807 11.0312 83.2365 12.2882 83.2365 13.755V22.5847C83.2365 22.7945 83.165 22.9716 83.0221 23.1179C82.8791 23.2642 82.7041 23.3373 82.499 23.3373H79.7351C79.53 23.3373 79.355 23.2642 79.212 23.1179C79.069 22.9716 78.9975 22.7926 78.9975 22.5847V13.9437C78.9975 12.729 78.7059 11.7762 78.1226 11.0851C77.5394 10.3941 76.6946 10.0476 75.5901 10.0476C74.4857 10.0476 73.671 10.3941 73.0257 11.0851C72.3803 11.7762 72.0586 12.729 72.0586 13.9437V22.5847C72.0586 22.7945 71.9927 22.9716 71.8591 23.1179C71.7256 23.2642 71.5468 23.3373 71.321 23.3373H68.5872Z" fill="#382E6B"/>
<path d="M89.7437 23.3374C88.6788 23.3374 87.7173 23.1218 86.8575 22.6925C85.9977 22.2633 85.3166 21.6877 84.8161 20.9639C84.3137 20.2421 84.0635 19.4298 84.0635 18.5289C84.0635 17.0621 84.6411 15.8956 85.7982 15.0255C86.9553 14.1574 88.485 13.5761 90.3891 13.2816L94.5961 12.654V11.9938C94.5961 11.1141 94.3816 10.4346 93.9507 9.95143C93.5199 9.4702 92.7842 9.22958 91.74 9.22958C91.0024 9.22958 90.4041 9.38165 89.9431 9.68579C89.4822 9.98993 89.1397 10.3922 88.914 10.8946C88.7503 11.168 88.5151 11.3027 88.2084 11.3027H85.7832C85.5574 11.3027 85.388 11.2392 85.277 11.1141C85.166 10.989 85.1077 10.8215 85.1077 10.6117C85.1284 10.2767 85.262 9.86866 85.5066 9.3855C85.7531 8.90427 86.1406 8.43844 86.6731 7.988C87.2056 7.53757 87.8904 7.15451 88.7315 6.84075C89.5706 6.52698 90.5847 6.36914 91.772 6.36914C93.0627 6.36914 94.152 6.53083 95.042 6.85615C95.9319 7.18146 96.6431 7.61649 97.1756 8.15932C97.7081 8.70408 98.0975 9.34315 98.3421 10.0766C98.5886 10.8099 98.7109 11.5838 98.7109 12.4019V22.2671C98.7109 22.4769 98.6394 22.654 98.4964 22.8003C98.3534 22.9466 98.1784 23.0198 97.9752 23.0198H95.4879C95.2621 23.0198 95.0834 22.9466 94.9498 22.8003C94.8162 22.654 94.7504 22.475 94.7504 22.2671V21.0409C94.4832 21.4394 94.1257 21.8109 93.676 22.1555C93.2264 22.5 92.6788 22.783 92.0335 23.0044C91.3881 23.2257 90.6261 23.3335 89.7456 23.3335L89.7437 23.3374ZM90.7879 20.3518C91.5048 20.3518 92.1539 20.194 92.739 19.8802C93.3242 19.5664 93.7833 19.0794 94.1219 18.4192C94.4587 17.7589 94.6281 16.9274 94.6281 15.9206V15.2604L91.5575 15.7628C90.3495 15.9514 89.4483 16.2556 88.8556 16.6733C88.2611 17.0929 87.9657 17.6049 87.9657 18.2132C87.9657 18.6733 88.103 19.066 88.3796 19.3913C88.6562 19.7166 89.0099 19.9572 89.4389 20.1131C89.8698 20.271 90.3194 20.348 90.7898 20.348L90.7879 20.3518Z" fill="#382E6B"/>
<path d="M105.248 23.3374C104.183 23.3374 103.221 23.1218 102.361 22.6925C101.502 22.2633 100.82 21.6877 100.32 20.9639C99.8176 20.2421 99.5674 19.4298 99.5674 18.5289C99.5674 17.0621 100.145 15.8956 101.302 15.0255C102.459 14.1574 103.989 13.5761 105.893 13.2816L110.1 12.654V11.9938C110.1 11.1141 109.885 10.4346 109.455 9.95143C109.024 9.4702 108.288 9.22958 107.244 9.22958C106.506 9.22958 105.908 9.38165 105.447 9.68579C104.986 9.98993 104.644 10.3922 104.418 10.8946C104.254 11.168 104.019 11.3027 103.712 11.3027H101.287C101.061 11.3027 100.892 11.2392 100.781 11.1141C100.67 10.989 100.612 10.8215 100.612 10.6117C100.632 10.2767 100.766 9.86866 101.01 9.3855C101.257 8.90427 101.645 8.43844 102.177 7.988C102.709 7.53757 103.394 7.15451 104.235 6.84075C105.075 6.52698 106.089 6.36914 107.276 6.36914C108.567 6.36914 109.656 6.53083 110.546 6.85615C111.436 7.18146 112.147 7.61649 112.68 8.15932C113.212 8.70408 113.601 9.34315 113.846 10.0766C114.093 10.8099 114.215 11.5838 114.215 12.4019V22.2671C114.215 22.4769 114.143 22.654 114 22.8003C113.857 22.9466 113.682 23.0198 113.479 23.0198H110.992C110.766 23.0198 110.587 22.9466 110.454 22.8003C110.32 22.654 110.254 22.475 110.254 22.2671V21.0409C109.987 21.4394 109.63 21.8109 109.18 22.1555C108.73 22.5 108.183 22.783 107.537 23.0044C106.892 23.2257 106.13 23.3335 105.249 23.3335L105.248 23.3374ZM106.292 20.3518C107.009 20.3518 107.658 20.194 108.243 19.8802C108.828 19.5664 109.287 19.0794 109.626 18.4192C109.963 17.7589 110.132 16.9274 110.132 15.9206V15.2604L107.061 15.7628C105.853 15.9514 104.952 16.2556 104.36 16.6733C103.765 17.0929 103.47 17.6049 103.47 18.2132C103.47 18.6733 103.607 19.066 103.884 19.3913C104.16 19.7166 104.514 19.9572 104.943 20.1131C105.374 20.271 105.823 20.348 106.294 20.348L106.292 20.3518Z" fill="#382E6B"/>
<path d="M116 23.3381C115.795 23.3381 115.62 23.2649 115.477 23.1187C115.334 22.9724 115.263 22.7933 115.263 22.5855V7.75388C115.263 7.54406 115.334 7.36697 115.477 7.22068C115.62 7.07438 115.795 7.00123 116 7.00123H118.518C118.723 7.00123 118.896 7.07438 119.041 7.22068C119.184 7.36697 119.255 7.54599 119.255 7.75388V9.04166C119.788 8.37178 120.469 7.81163 121.297 7.3612C122.126 6.91076 123.156 6.68555 124.382 6.68555C125.609 6.68555 126.715 6.97429 127.637 7.54984C128.559 8.12539 129.27 8.93771 129.773 9.98487C130.273 11.032 130.525 12.289 130.525 13.7558V22.5855C130.525 22.7953 130.454 22.9724 130.311 23.1187C130.168 23.2649 129.993 23.3381 129.788 23.3381H127.086C126.881 23.3381 126.708 23.2649 126.563 23.1187C126.42 22.9724 126.348 22.7933 126.348 22.5855V13.9445C126.348 12.7298 126.057 11.777 125.474 11.0859C124.89 10.3949 124.046 10.0484 122.939 10.0484C121.833 10.0484 121.024 10.3949 120.39 11.0859C119.754 11.777 119.438 12.7298 119.438 13.9445V22.5855C119.438 22.7953 119.366 22.9724 119.223 23.1187C119.08 23.2649 118.905 23.3381 118.702 23.3381H116Z" fill="#382E6B"/>
<path d="M137.033 23.3374C135.968 23.3374 135.006 23.1218 134.147 22.6925C133.287 22.2633 132.606 21.6877 132.105 20.9639C131.603 20.2421 131.353 19.4298 131.353 18.5289C131.353 17.0621 131.93 15.8956 133.087 15.0255C134.244 14.1574 135.774 13.5761 137.678 13.2816L141.885 12.654V11.9938C141.885 11.1141 141.671 10.4346 141.24 9.95143C140.809 9.4702 140.073 9.22958 139.029 9.22958C138.291 9.22958 137.693 9.38165 137.232 9.68579C136.771 9.98993 136.429 10.3922 136.203 10.8946C136.039 11.168 135.804 11.3027 135.497 11.3027H133.072C132.846 11.3027 132.677 11.2392 132.566 11.1141C132.455 10.989 132.397 10.8215 132.397 10.6117C132.417 10.2767 132.551 9.86866 132.796 9.3855C133.042 8.90427 133.43 8.43844 133.962 7.988C134.495 7.53757 135.179 7.15451 136.021 6.84075C136.86 6.52698 137.874 6.36914 139.061 6.36914C140.352 6.36914 141.441 6.53083 142.331 6.85615C143.221 7.18146 143.932 7.61649 144.465 8.15932C144.997 8.70408 145.387 9.34315 145.631 10.0766C145.878 10.8099 146 11.5838 146 12.4019V22.2671C146 22.4769 145.928 22.654 145.785 22.8003C145.642 22.9466 145.468 23.0198 145.264 23.0198H142.777C142.551 23.0198 142.372 22.9466 142.239 22.8003C142.105 22.654 142.039 22.475 142.039 22.2671V21.0409C141.772 21.4394 141.415 21.8109 140.965 22.1555C140.515 22.5 139.968 22.783 139.323 23.0044C138.677 23.2257 137.915 23.3335 137.035 23.3335L137.033 23.3374ZM138.077 20.3518C138.794 20.3518 139.443 20.194 140.028 19.8802C140.613 19.5664 141.072 19.0794 141.411 18.4192C141.748 17.7589 141.917 16.9274 141.917 15.9206V15.2604L138.847 15.7628C137.639 15.9514 136.737 16.2556 136.145 16.6733C135.55 17.0929 135.255 17.6049 135.255 18.2132C135.255 18.6733 135.392 19.066 135.669 19.3913C135.945 19.7166 136.299 19.9572 136.728 20.1131C137.159 20.271 137.609 20.348 138.079 20.348L138.077 20.3518Z" fill="#382E6B"/>
<path d="M2.88621 23.3357C2.1148 23.3357 1.39042 23.0277 0.844791 22.4714C0.299157 21.9151 0 21.1721 0 20.3828C0 19.5936 0.301039 18.8525 0.846672 18.2943L13.7462 5.09507C14.2693 4.55994 15.0124 4.25195 15.7876 4.25195C16.5628 4.25195 17.306 4.55802 17.829 5.09315L30.7323 18.2924C31.278 18.8506 31.579 19.5917 31.579 20.3809C31.579 21.1701 31.278 21.9112 30.7323 22.4695C30.1867 23.0277 29.4623 23.3338 28.6909 23.3338C27.9195 23.3338 27.1951 23.0258 26.6495 22.4695L15.7876 11.3588L4.92763 22.4695C4.38388 23.0277 3.65762 23.3338 2.88621 23.3338V23.3357Z" fill="#382E6B"/>
<path d="M28.6887 22.3727C28.1901 22.3727 27.6934 22.1783 27.3133 21.7894L15.7854 9.99734L4.26127 21.7894C3.50302 22.5671 2.27065 22.5671 1.51052 21.7894C0.750399 21.0118 0.750399 19.7529 1.51052 18.9752L14.41 5.77597C15.1401 5.0291 16.4327 5.0291 17.1608 5.77597L30.0641 18.9752C30.8242 19.7529 30.8242 21.0118 30.0641 21.7894C29.684 22.1783 29.1854 22.3727 28.6887 22.3727Z" fill="#382E6B"/>
<path d="M47.7051 24C46.7606 24 45.8725 23.6246 45.2065 22.9413L31.3154 8.73147L17.43 22.9413C16.762 23.6246 15.874 24 14.9295 24C13.9849 24 13.0988 23.6246 12.4308 22.9413C11.0517 21.5303 11.0517 19.2358 12.4308 17.8268L28.8149 1.05871C29.4828 0.375361 30.3709 0 31.3154 0C32.2599 0 33.148 0.375361 33.814 1.05871L50.2037 17.8268C50.8716 18.5101 51.2385 19.4167 51.2385 20.3831C51.2385 21.3494 50.8698 22.2579 50.2037 22.9413C49.5377 23.6246 48.6496 24 47.7051 24Z" fill="#43BED8"/>
<path d="M47.7056 23.038C47.0415 23.038 46.3773 22.7781 45.8712 22.2603L31.3159 7.37098L16.7645 22.2603C15.7503 23.2978 14.1097 23.2959 13.0956 22.2603C12.0814 21.2228 12.0814 19.5442 13.0956 18.5067L29.4815 1.74056C29.9688 1.24201 30.6273 0.962891 31.3159 0.962891C32.0046 0.962891 32.6631 1.24201 33.1504 1.74056L49.5401 18.5086C50.5542 19.5442 50.5542 21.2247 49.5401 22.2622C49.034 22.78 48.3698 23.0399 47.7056 23.0399V23.038Z" fill="#43BED8"/>
</svg>
