<?xml version="1.0" encoding="UTF-8"?>
<svg id="Layer_1" xmlns="http://www.w3.org/2000/svg" version="1.1" viewBox="0 0 1000 1000">
  <!-- Generator: Adobe Illustrator 30.2.1, SVG Export Plug-In . SVG Version: 2.1.1 Build 1)  -->
  <defs>
    <style>
      .st0 {
        fill: #fff;
      }

      .st1 {
        fill: #006f65;
      }

      .st2 {
        fill: #007268;
      }
    </style>
  </defs>
  <path class="st1" d="M822.06,140.07v636.46H185.6V140.06s636.46.01,636.46.01ZM799.12,177.34H214.27v561.92h584.85V177.34Z"/>
  <path class="st0" d="M799.12,177.34v561.92H214.27V177.34h584.85ZM781.92,197.41H235.77c-.87,0-2.2-3.63-4.3-2.87v524.65h550.45V197.41Z"/>
  <path class="st2" d="M781.92,197.41v521.78H231.47V194.55c2.1-.76,3.43,2.87,4.3,2.87h546.15ZM538.29,286.27l44.79-28.24c39.99-20.18,93.03-28.22,137.21-20.49,3.28.57,5.79,1,6.75,4.71-1.38,98.48-27.62,190.92-108.77,251.65-6.33,4.74-21.75,7.66-9.8,18.89,7.69,7.23,32.74-13.99,40.05-20.17,50.14-42.4,78.48-110.47,89.56-174.2,2.99-17.21,10.75-77.14,6.2-90.53-1.99-5.84-41.7-10.16-49.68-10.53-60.04-2.74-119.41,17.41-164.92,56.03l8.61,12.88ZM280.35,240.57c100.3-2.83,212.58,31.85,265.04,123.08l12.87-10.18c-56.41-101.05-182.82-135.73-292.1-129.96-18.14,71.43-7.32,154.02,44.16,208.9l12.88-9.92c-43.96-49.66-54.89-118.1-42.85-181.91ZM495.21,332.21l-12.88-8.61c-6.96-.11-61.55,97.58-58.76,114.58l12.61,2.45,28.88-59.8,30.15-48.62ZM532.53,375.16c-.95,6.09-6.21,13.69-.06,18.67,4.42,3.58,38.83,14.87,48.83,19.97,17.44,8.9,34.61,21.67,51.4,31.91,9.54-3.81,14.17-9.5,5.68-17.28-10.3-9.45-99.95-57.47-105.84-53.27ZM283.08,679.05c-2.33-100.01,31.07-213.6,123.19-265.16l-10.31-12.71c-101.26,55.93-135.48,183.07-130.05,292.18,79.34,12.21,153.67-3.56,217.8-51.68l-9.97-17.05c-24.96,22.7-57.58,39.01-90.34,47.23-7.53,1.89-26.75,7.19-32.94,7.19h-67.37ZM477.98,509.97c-36.42-5.93-71.83-22.12-102.19-42.79l-12.39,12.64c33.24,23.72,71.87,37.73,110.41,50.05l4.17-19.9ZM586.99,478.39l-17.19-2.9c-7.23,38.11-31.91,69.02-48.53,102.91l14.12,4.87c23.26-31.13,42.93-66.55,51.61-104.88ZM744.27,695.88c20.06-72.51,2.2-154.6-46.92-211.73l-12.85,12.79c43.9,47.51,58.63,120.1,44.06,182.29-97.12-.02-205.47-33.99-256.2-122.25l-17.27,4.59c54.85,101.63,179.8,139.21,289.18,134.32Z"/>
  <path class="st0" d="M283.08,679.05h67.37c6.19,0,25.42-5.3,32.94-7.19,32.76-8.22,65.37-24.53,90.34-47.23l9.97,17.05c-64.13,48.12-138.46,63.9-217.8,51.68-5.42-109.1,28.8-236.25,130.05-292.18l10.31,12.71c-92.12,51.56-125.51,165.15-123.19,265.16Z"/>
  <path class="st0" d="M538.29,286.27l-8.61-12.88c45.51-38.62,104.88-58.77,164.92-56.03,7.98.36,47.69,4.69,49.68,10.53,4.55,13.39-3.21,73.32-6.2,90.53-11.07,63.73-39.42,131.8-89.56,174.2-7.31,6.18-32.36,27.41-40.05,20.17-11.95-11.24,3.47-14.16,9.8-18.89,81.15-60.73,107.39-153.18,108.77-251.65-.96-3.71-3.47-4.13-6.75-4.71-44.18-7.73-97.22.31-137.21,20.49l-44.79,28.24Z"/>
  <path class="st0" d="M744.27,695.88c-109.38,4.89-234.33-32.69-289.18-134.32l17.27-4.59c50.72,88.26,159.08,122.24,256.2,122.25,14.57-62.19-.16-134.78-44.06-182.29l12.85-12.79c49.12,57.13,66.99,139.22,46.92,211.73Z"/>
  <path class="st0" d="M280.35,240.57c-12.05,63.81-1.11,132.25,42.85,181.91l-12.88,9.92c-51.48-54.88-62.29-137.47-44.16-208.9,109.28-5.78,235.69,28.9,292.1,129.96l-12.87,10.18c-52.46-91.23-164.74-125.91-265.04-123.08Z"/>
  <path class="st0" d="M495.21,332.21l-30.15,48.62-28.88,59.8-12.61-2.45c-2.79-17,51.79-114.69,58.76-114.58l12.88,8.61Z"/>
  <path class="st0" d="M532.53,375.16c5.89-4.2,95.55,43.81,105.84,53.27,8.48,7.79,3.86,13.48-5.68,17.28-16.79-10.24-33.96-23.01-51.4-31.91-10-5.1-44.4-16.39-48.83-19.97-6.15-4.98-.89-12.58.06-18.67Z"/>
  <path class="st0" d="M477.98,509.97l-4.17,19.9c-38.54-12.32-77.17-26.33-110.41-50.05l12.39-12.64c30.35,20.67,65.77,36.87,102.19,42.79Z"/>
  <path class="st0" d="M586.99,478.39c-8.68,38.32-28.35,73.75-51.61,104.88l-14.12-4.87c16.61-33.89,41.29-64.81,48.53-102.91l17.19,2.9Z"/>
</svg>