<svg preserveAspectRatio="none" width="100%" height="100%" overflow="visible" style="display: block;" viewBox="0 0 140.624 29.716" fill="none" xmlns="http://www.w3.org/2000/svg">
<path id="Union" fill-rule="evenodd" clip-rule="evenodd" d="M16.3372 0.375168L2.69676 5.85509C1.93822 6.15988 1.94608 7.20615 2.70937 7.49989L16.4067 12.7736C17.6102 13.237 18.9505 13.237 20.1539 12.7736L33.8515 7.49969C34.6146 7.20615 34.6228 6.16008 33.8639 5.85529L20.2238 0.374967C18.9794 -0.124989 17.5815 -0.124989 16.337 0.374967L16.3372 0.375168ZM56.4254 17.1065L53.9775 10.7C53.8776 10.4379 53.4958 10.4379 53.3957 10.7L50.9483 17.1069C50.9309 17.1524 50.9251 17.2014 50.9315 17.2496C50.9378 17.2977 50.956 17.3437 50.9846 17.3836C51.0132 17.4234 51.0513 17.456 51.0956 17.4785C51.1399 17.501 51.1892 17.5127 51.2392 17.5127H56.1344C56.1844 17.5127 56.2337 17.5009 56.278 17.4784C56.3224 17.4559 56.3605 17.4233 56.389 17.3834C56.4176 17.3436 56.4358 17.2976 56.4421 17.2494C56.4484 17.2012 56.4426 17.1522 56.4251 17.1067L56.4254 17.1065ZM57.5557 20.7075H49.8177C49.7544 20.7075 49.6926 20.7263 49.6406 20.7614C49.5886 20.7965 49.549 20.8462 49.5269 20.9039L48.0035 24.8902C47.9814 24.9478 47.9418 24.9975 47.8898 25.0326C47.8378 25.0677 47.776 25.0865 47.7127 25.0865H44.3586C44.3079 25.0865 44.258 25.0745 44.2132 25.0514C44.1684 25.0283 44.1302 24.9949 44.1018 24.9541C44.0733 24.9133 44.0557 24.8664 44.0503 24.8175C44.0449 24.7685 44.0519 24.719 44.0708 24.6733L51.7928 5.99627C51.816 5.94048 51.8558 5.89269 51.9071 5.85905C51.9584 5.82542 52.019 5.80747 52.0809 5.80753H55.2925C55.4191 5.80753 55.533 5.88222 55.5804 5.99627L63.3023 24.6731C63.3212 24.7189 63.3283 24.7684 63.3229 24.8174C63.3176 24.8664 63.2999 24.9134 63.2715 24.9542C63.2431 24.995 63.2048 25.0285 63.1599 25.0516C63.1151 25.0747 63.0651 25.0868 63.0144 25.0867H59.6609C59.5976 25.0867 59.5358 25.0679 59.4838 25.0327C59.4318 24.9976 59.3922 24.9478 59.3702 24.8902L57.8465 20.9039C57.8244 20.8462 57.7848 20.7965 57.7328 20.7614C57.6808 20.7263 57.619 20.7075 57.5557 20.7075ZM64.8737 12.3622H67.7424C67.8247 12.3622 67.9036 12.394 67.9618 12.4504C68.02 12.5069 68.0526 12.5835 68.0526 12.6634V24.7854C68.0526 24.8652 68.02 24.9419 67.9618 24.9983C67.9036 25.0548 67.8247 25.0865 67.7424 25.0865H64.8737C64.7914 25.0865 64.7125 25.0548 64.6544 24.9983C64.5962 24.9419 64.5635 24.8652 64.5635 24.7854V12.6632C64.5635 12.5833 64.5962 12.5067 64.6544 12.4502C64.7125 12.3938 64.7914 12.362 64.8737 12.362V12.3622ZM78.515 15.3109C78.515 15.3908 78.4823 15.4674 78.4242 15.5239C78.366 15.5803 78.2871 15.6121 78.2048 15.6121H78.118C76.6995 15.6121 75.6591 15.9426 74.9974 16.6035C74.3352 17.2645 74.0047 18.3572 74.0047 19.8811V24.7854C74.0047 24.8652 73.972 24.9419 73.9139 24.9983C73.8557 25.0548 73.7768 25.0865 73.6945 25.0865H70.8539C70.7717 25.0865 70.6928 25.0548 70.6346 24.9983C70.5764 24.9419 70.5437 24.8652 70.5437 24.7854V12.6632C70.5437 12.5833 70.5764 12.5067 70.6346 12.4502C70.6928 12.3938 70.7717 12.362 70.8539 12.362H73.666C73.7483 12.362 73.8272 12.3938 73.8853 12.4502C73.9435 12.5067 73.9762 12.5833 73.9762 12.6632V15.0609H74.0331C74.3734 14.0695 74.9124 13.3079 75.6502 12.775C76.3875 12.2428 77.2953 11.9763 78.3731 11.9763H78.515V15.3107V15.3109ZM86.3589 15.1989C86.2766 15.1989 86.1977 15.2306 86.1396 15.2871C86.0814 15.3436 86.0487 15.4202 86.0487 15.5V20.5421C86.0487 21.0563 86.1521 21.4235 86.3606 21.6437C86.5684 21.864 86.9278 21.9742 87.4384 21.9742H87.724C87.8063 21.9742 87.8852 22.006 87.9433 22.0624C88.0015 22.1189 88.0342 22.1955 88.0342 22.2754V24.8127C88.0342 24.8926 88.0015 24.9692 87.9433 25.0256C87.8852 25.0821 87.8063 25.1139 87.724 25.1139H86.5022C85.2352 25.1139 84.2613 24.7972 83.5806 24.1638C82.8996 23.5303 82.5592 22.5896 82.5592 21.3408V15.5C82.5592 15.4202 82.5265 15.3436 82.4683 15.2871C82.4101 15.2306 82.3312 15.1989 82.249 15.1989H80.4583C80.376 15.1989 80.2971 15.1671 80.239 15.1107C80.1808 15.0542 80.1481 14.9776 80.1481 14.8977V12.6632C80.1481 12.5833 80.1808 12.5067 80.239 12.4502C80.2971 12.3938 80.376 12.362 80.4583 12.362H82.2492C82.3315 12.362 82.4104 12.3303 82.4685 12.2738C82.5267 12.2173 82.5594 12.1407 82.5594 12.0609V7.56798C82.5594 7.48811 82.5921 7.4115 82.6502 7.35502C82.7084 7.29854 82.7873 7.26681 82.8696 7.26681H85.7383C85.8206 7.26681 85.8995 7.29854 85.9576 7.35502C86.0158 7.4115 86.0485 7.48811 86.0485 7.56798V12.0609C86.0485 12.1407 86.0812 12.2173 86.1394 12.2738C86.1975 12.3303 86.2764 12.362 86.3587 12.362H88.4331C88.5154 12.362 88.5943 12.3938 88.6524 12.4502C88.7106 12.5067 88.7433 12.5833 88.7433 12.6632V14.8979C88.7433 14.9778 88.7106 15.0544 88.6524 15.1109C88.5943 15.1673 88.5154 15.1991 88.4331 15.1991H86.3589V15.1989ZM99.495 21.3133C100.147 20.6523 100.474 19.7893 100.474 18.7242C100.474 17.6596 100.147 16.7963 99.495 16.1353C98.8425 15.4743 97.9866 15.1439 96.9276 15.1439C95.8684 15.1439 95.013 15.4743 94.3604 16.1353C93.7081 16.7963 93.3818 17.6596 93.3818 18.7242C93.3818 19.7893 93.7081 20.6523 94.3604 21.3133C95.013 21.9742 95.8684 22.3047 96.9276 22.3047C97.9866 22.3047 98.8425 21.9742 99.495 21.3133ZM92.8712 24.7008C91.9067 24.1686 91.1453 23.3926 90.5877 22.3736C90.0296 21.3546 89.7508 20.1383 89.7508 18.7242C89.7508 17.3107 90.0296 16.094 90.5877 15.075C91.1453 14.056 91.9067 13.2806 92.8712 12.7477C93.8357 12.2153 94.8945 11.949 96.0483 11.949C97.0694 11.949 97.944 12.1418 98.6725 12.5273C99.4001 12.9128 99.9816 13.4547 100.417 14.1524H100.474V12.6632C100.474 12.5833 100.506 12.5067 100.564 12.4502C100.623 12.3938 100.701 12.362 100.784 12.362H103.624C103.706 12.362 103.785 12.3938 103.843 12.4502C103.902 12.5067 103.934 12.5833 103.934 12.6632V24.7852C103.934 24.865 103.902 24.9417 103.843 24.9981C103.785 25.0546 103.706 25.0863 103.624 25.0863H100.784C100.701 25.0863 100.623 25.0546 100.564 24.9981C100.506 24.9417 100.474 24.865 100.474 24.7852V23.2962H100.417C99.9816 23.9943 99.4001 24.5356 98.6723 24.9211C97.944 25.3066 97.0696 25.4993 96.0483 25.4993C94.8945 25.4993 93.8357 25.2331 92.8712 24.7008ZM115.747 21.3133C116.4 20.6523 116.726 19.7893 116.726 18.7242C116.726 17.6596 116.4 16.7963 115.747 16.1353C115.095 15.4743 114.239 15.1439 113.18 15.1439C112.121 15.1439 111.265 15.4743 110.613 16.1353C109.961 16.7963 109.634 17.6596 109.634 18.7242C109.634 19.7893 109.961 20.6523 110.613 21.3133C111.265 21.9742 112.121 22.3047 113.18 22.3047C114.239 22.3047 115.095 21.9742 115.747 21.3133ZM111.436 24.9211C110.707 24.5356 110.126 23.9943 109.691 23.2962H109.634V24.7852C109.634 24.865 109.601 24.9417 109.543 24.9981C109.485 25.0546 109.406 25.0863 109.324 25.0863H106.455C106.373 25.0863 106.294 25.0546 106.236 24.9981C106.178 24.9417 106.145 24.865 106.145 24.7852V6.1081C106.145 6.02822 106.178 5.95162 106.236 5.89514C106.294 5.83866 106.373 5.80693 106.455 5.80693H109.324C109.406 5.80693 109.485 5.83866 109.543 5.89514C109.601 5.95162 109.634 6.02822 109.634 6.1081V14.1522H109.691C110.126 13.4545 110.707 12.9128 111.436 12.5273C112.163 12.1416 113.038 11.9488 114.06 11.9488C115.213 11.9488 116.272 12.2151 117.237 12.7475C118.201 13.2804 118.962 14.0558 119.52 15.0746C120.078 16.0942 120.357 17.3109 120.357 18.7244C120.357 20.1385 120.078 21.3546 119.52 22.3738C118.962 23.3928 118.201 24.1688 117.237 24.7008C116.272 25.2333 115.213 25.4998 114.06 25.4998C113.038 25.4998 112.164 25.307 111.436 24.9213L111.436 24.9211ZM125.191 25.0865H122.322C122.24 25.0865 122.161 25.0548 122.103 24.9983C122.044 24.9419 122.012 24.8652 122.012 24.7854V6.1087C122.012 6.02883 122.044 5.95222 122.103 5.89574C122.161 5.83926 122.24 5.80753 122.322 5.80753H125.191C125.273 5.80753 125.352 5.83926 125.41 5.89574C125.468 5.95222 125.501 6.02883 125.501 6.1087V24.7854C125.501 24.8652 125.468 24.9419 125.41 24.9983C125.352 25.0548 125.273 25.0865 125.191 25.0865ZM131.957 15.3093C131.482 15.6695 131.161 16.1895 130.994 16.8698C130.949 17.0573 131.099 17.2372 131.298 17.2372H136.757C136.947 17.2372 137.096 17.0726 137.065 16.8911C136.956 16.2476 136.672 15.7346 136.213 15.3507C135.674 14.9009 134.969 14.676 134.099 14.676C133.229 14.676 132.515 14.8871 131.957 15.3093ZM138.95 13.7255C140.066 14.9101 140.624 16.5857 140.624 18.7519V19.1117C140.624 19.1916 140.591 19.2682 140.533 19.3247C140.475 19.3811 140.396 19.4129 140.313 19.4129H131.193C131.147 19.413 131.102 19.4227 131.061 19.4413C131.02 19.46 130.984 19.4872 130.954 19.5209C130.925 19.5547 130.904 19.5942 130.892 19.6368C130.88 19.6794 130.878 19.724 130.886 19.7674C131.031 20.5722 131.398 21.2115 131.986 21.6851C132.657 22.2272 133.504 22.4977 134.525 22.4977C135.843 22.4977 137.063 21.9981 138.185 20.9988C138.323 20.8768 138.54 20.9027 138.646 21.051L140.041 22.9946C140.085 23.0551 140.104 23.129 140.095 23.2024C140.086 23.2757 140.05 23.3434 139.993 23.3926C139.309 23.9743 138.548 24.4653 137.73 24.8524C136.822 25.2837 135.754 25.4998 134.525 25.4998C133.106 25.4998 131.867 25.2195 130.809 24.6597C129.749 24.0999 128.927 23.3104 128.341 22.2911C127.754 21.2721 127.461 20.0925 127.461 18.7519C127.461 17.4119 127.745 16.2277 128.312 15.1991C128.879 14.1711 129.674 13.3724 130.695 12.8029C131.716 12.2341 132.908 11.9492 134.27 11.9492C136.273 11.9492 137.834 12.5415 138.95 13.7255ZM68.4274 7.8808C68.4274 9.01682 67.4788 9.9378 66.3085 9.9378C65.138 9.9378 64.1894 9.01682 64.1894 7.8806C64.1894 6.74438 65.1382 5.82339 66.3085 5.82339C67.4788 5.82339 68.4274 6.74438 68.4274 7.8806V7.8808ZM19.4957 28.8279V15.6535C19.4957 15.4757 19.5507 15.302 19.6536 15.155C19.7564 15.0079 19.9024 14.8942 20.0726 14.8287L35.3357 9.0767C35.9356 8.8458 36.5864 9.27487 36.5864 9.90151V23.076C36.5864 23.2537 36.5314 23.4274 36.4286 23.5745C36.3257 23.7216 36.1797 23.8353 36.0094 23.9008L20.7464 29.6527C20.1465 29.8836 19.4957 29.4544 19.4957 28.8279ZM11.4017 18.4566L11.4017 18.4566L10.9418 18.6724L1.37977 23.1207C0.773843 23.4046 0 22.9758 0 22.322V9.95669C0 9.72017 0.124907 9.51597 0.292414 9.36238C0.292456 9.36234 0.292497 9.3623 0.292539 9.36226L0.292439 9.36217C0.352572 9.30411 0.41977 9.25345 0.492511 9.21129C0.499492 9.20724 0.506524 9.20327 0.513606 9.19937C0.517069 9.19747 0.520543 9.19558 0.52403 9.19372C0.609645 9.1438 0.708986 9.1076 0.814332 9.08747C0.960163 9.05959 1.1175 9.0625 1.26587 9.1024C1.29614 9.11053 1.32604 9.12021 1.35539 9.13148L15.8553 14.7096C16.5924 14.9935 16.6503 15.9962 15.9314 16.3333C15.9314 16.3333 15.9314 16.3333 15.9314 16.3333V16.3331L11.4017 18.4566Z" fill="var(--fill-0, #A1A1AA)"/>
</svg>
