<svg preserveAspectRatio="none" width="100%" height="100%" overflow="visible" style="display: block;" viewBox="0 0 93.8029 31.0888" fill="none" xmlns="http://www.w3.org/2000/svg">
<path id="path3373" fill-rule="evenodd" clip-rule="evenodd" d="M91.6604 20.369L87.9088 24.1203H80.9396V28.9452H75.0422V6.9679H80.9396V18.2251H85.7631V6.9679H91.6604V20.369ZM72.8995 24.1203H63.7869L60.0345 20.369V10.7209L63.7869 6.9679H72.8995V12.8636H65.9302V18.2251H72.8995V24.1203V24.1203ZM57.8904 24.1203H53.0668V28.9452H47.1695V10.7209L50.9219 6.9679H57.8904V12.8636H53.0668V18.2251H57.8904V24.1203V24.1203ZM45.0254 28.9452H39.1297V26.2641H45.0254V28.9452ZM45.0254 24.1203H39.1297V6.96818H45.0254V24.1203V24.1203ZM36.9856 24.1203H31.0893V12.8636H28.9457V24.1203H23.0492V12.8636H20.9059V24.1203H15.0086V6.9679H33.234L36.9856 10.7209V24.1203V24.1203ZM12.8644 24.1203H8.04065V28.9452H2.14439V10.7209L5.89653 6.9679H12.8644V12.8636H8.04065V18.2251H12.8644V24.1203V24.1203ZM93.8029 21.4412V5.36071L85.7631 0H80.4032V2.68104L76.651 0H71.8275V2.68104L69.1481 0H60.5714L57.8904 2.68104L57.3537 0H49.8505L46.7821 2.68104L46.6103 0H38.1056L37.8048 2.68104L35.5026 0H22.5125L19.8321 1.07219V0H12.8644L4.82378 4.82543L0 9.64729V31.0888H10.185L15.0086 26.2641H36.9856V31.0888H55.2101V26.2641H60.0345V23.5847L62.7155 26.2641H68.0746L72.8995 31.0888H83.0837V26.2641H88.9802L93.8029 21.4412Z" fill="var(--fill-0, #A1A1AA)"/>
</svg>
