<svg preserveAspectRatio="none" width="100%" height="100%" overflow="visible" style="display: block;" viewBox="0 0 120.237 30.141" fill="none" xmlns="http://www.w3.org/2000/svg">
<path id="Vector" d="M25.1044 0H5.03664C2.25467 0 0 2.25467 0 5.03664V25.1044C0 27.8864 2.25467 30.141 5.03664 30.141H25.1044C27.8864 30.141 30.141 27.8864 30.141 25.1044V5.03664C30.141 2.25467 27.8864 0 25.1044 0ZM24.662 23.071C24.662 23.9498 23.9498 24.662 23.071 24.662H7.07008C6.19125 24.662 5.47909 23.9498 5.47909 23.071V7.07008C5.47909 6.19125 6.19125 5.47909 7.07008 5.47909H23.071C23.9498 5.47909 24.662 6.19125 24.662 7.07008V23.071ZM11.8734 19.1617C11.3673 19.1617 10.9612 18.7525 10.9612 18.2464V11.8582C10.9612 11.3521 11.3673 10.94 11.8734 10.94H18.2707C18.7738 10.94 19.1829 11.3491 19.1829 11.8582V18.2434C19.1829 18.7495 18.7738 19.1586 18.2707 19.1586H11.8734V19.1617ZM38.1324 18.7253H41.4235C41.5871 20.589 42.8508 22.0436 45.3994 22.0436C47.6753 22.0436 49.0754 20.9193 49.0754 19.2192C49.0754 17.6282 47.9784 16.9161 46.0025 16.4494L43.4509 15.9009C40.681 15.2978 38.596 13.5159 38.596 10.6066C38.596 7.39737 41.4477 5.20331 45.151 5.20331C49.0724 5.20331 51.5968 7.261 51.815 10.3036H48.633C48.2542 8.87927 47.0723 8.03074 45.154 8.03074C43.1236 8.03074 41.7265 9.12777 41.7265 10.5278C41.7265 11.9279 42.9326 12.7765 45.0176 13.2431L47.542 13.7917C50.3118 14.3947 52.2029 16.0675 52.2029 19.001C52.2029 22.7315 49.4057 24.9529 45.4025 24.9529C40.9022 24.9498 38.4082 22.5103 38.1324 18.7253ZM63.9762 30.141V24.6832L64.1914 22.2891H63.9762C63.2216 24.0104 61.6367 24.9529 59.4851 24.9529C56.0152 24.9529 53.4332 22.1285 53.4332 17.7979C53.4332 13.4674 56.0152 10.643 59.4851 10.643C61.6094 10.643 63.1156 11.637 63.9762 13.1977H64.1914V10.9097H67.0431V30.141H63.9762ZM64.0823 17.7949C64.0823 15.0251 62.3883 13.4098 60.3154 13.4098C58.2426 13.4098 56.5485 15.0251 56.5485 17.7949C56.5485 20.5648 58.2426 22.18 60.3154 22.18C62.3883 22.18 64.0823 20.5678 64.0823 17.7949ZM69.3189 19.2223V10.9097H72.3858V18.9525C72.3858 21.1315 73.4343 22.18 75.1829 22.18C77.3345 22.18 78.7346 20.6466 78.7346 18.2525V10.9097H81.8014V24.6801H78.9498V21.8285H78.7346C78.0618 23.6589 76.583 24.9498 74.298 24.9498C71.013 24.9498 69.3189 22.8528 69.3189 19.2223ZM83.6682 20.8345C83.6682 18.2525 85.4713 16.7464 88.6715 16.5585L92.4626 16.316V15.2402C92.4626 13.9492 91.5201 13.1704 89.8534 13.1704C88.32 13.1704 87.4048 13.9492 87.1623 15.0523H84.0955C84.4198 12.2552 86.732 10.64 89.8504 10.64C93.3748 10.64 95.5264 12.1461 95.5264 15.0523V24.6801H92.6748V22.1254H92.4596C91.8141 23.8195 90.4686 24.9498 87.8866 24.9498C85.4168 24.9498 83.6682 23.2831 83.6682 20.8345ZM92.4657 19.1404V18.4131L89.3716 18.6283C87.7048 18.7344 86.9502 19.3556 86.9502 20.592C86.9502 21.6406 87.8109 22.3952 89.02 22.3952C91.202 22.3952 92.4657 20.9981 92.4657 19.1404ZM97.8144 24.6832V10.9097H100.666V13.5462H100.881C101.284 11.7431 102.657 10.9097 104.7 10.9097H106.1V13.6795H104.351C102.36 13.6795 100.881 14.9705 100.881 17.4191V24.6801H97.8144V24.6832ZM120.131 18.3616H109.667C109.827 20.889 111.603 22.3164 113.567 22.3164C115.234 22.3164 116.282 21.6436 116.876 20.5132H119.916C119.082 23.3104 116.634 24.9498 113.54 24.9498C109.479 24.9498 106.627 21.9103 106.627 17.7949C106.627 13.6795 109.557 10.64 113.567 10.64C117.6 10.64 120.237 13.4098 120.237 16.8524C120.24 17.5282 120.185 17.8767 120.131 18.3616ZM117.2 16.2372C117.094 14.3281 115.506 13.0371 113.57 13.0371C111.739 13.0371 110.209 14.1947 109.83 16.2372H117.2Z" fill="var(--fill-0, #A1A1AA)"/>
</svg>
