<svg preserveAspectRatio="none" width="100%" height="100%" overflow="visible" style="display: block;" viewBox="0 0 149.351 32.9075" fill="none" xmlns="http://www.w3.org/2000/svg">
<path id="Union" fill-rule="evenodd" clip-rule="evenodd" d="M8.45797 8.62167C8.78537 8.26698 8.81266 7.72131 8.81266 7.3939V3.76516C8.81266 2.75566 8.81266 2.15542 8.86722 1.74616C8.89451 1.52789 9.00364 1.25505 9.05821 1.11863C9.08549 1.06407 9.05821 1.06407 9.03093 1.09135L1.06407 9.19463C1.03678 9.22192 1.03678 9.2492 1.09135 9.22192C1.22777 9.16735 1.50061 9.05821 1.71888 9.03093C2.12813 8.97636 2.72838 8.97636 3.73788 8.97636H7.2302C7.5576 8.97636 8.10328 8.94908 8.45797 8.62167ZM14.6241 30.0121C14.8151 30.5033 15.3062 31.2945 16.2338 31.8947C16.9705 32.4131 18.0891 32.9042 19.5897 32.9042C19.5897 32.9042 26.5744 33.3135 27.7476 24.9101C27.8294 24.9101 28.8389 16.2884 27.1746 7.3939C26.5272 3.98258 23.3801 3.48003 21.6945 3.21086C21.5331 3.1851 21.3852 3.16147 21.2541 3.13763C19.6716 2.8648 16.534 2.31912 16.534 2.31912C16.534 2.31912 16.1793 0.627527 14.515 0.21827C14.457 0.203772 14.4033 0.19013 14.3529 0.177344C14.119 0.117944 13.9579 0.0770186 13.7783 0.0545677C13.4782 0.0272836 13.1508 0 12.8779 0H12.2231C10.8862 0 9.98586 0.845797 9.84944 1.8553V2.019V7.61217C9.84944 8.34883 9.7403 8.97636 9.27648 9.4129C8.92179 9.74031 8.37612 9.98586 7.42118 9.98586H2.019H1.8553C0.818513 10.1223 0 11.0226 0 12.3595C0.00129338 12.3751 0.00258675 12.3907 0.00388595 12.4063C0.0299932 12.7208 0.0584477 13.0636 0.136419 13.5055C0.288503 14.5266 0.527093 15.5997 0.70064 16.3802C0.745032 16.5798 0.785169 16.7603 0.818513 16.9159C1.52789 20.0536 2.89208 21.1722 2.89208 21.1722C4.91108 23.2458 7.83044 24.1189 10.5861 23.9552C10.668 23.9552 10.9408 23.9279 11.1863 23.8733C11.4319 23.8187 11.6502 23.7369 11.8139 23.655C13.5055 22.6182 14.3513 18.7985 14.3513 18.7985C14.5422 21.3359 17.407 22.2363 18.553 22.3727C18.5802 22.3727 18.9622 22.4273 19.3715 22.5091C19.4041 22.5173 19.437 22.5254 19.47 22.5336C19.7682 22.6075 20.0753 22.6837 20.2718 22.782C21.7452 23.4368 22.8638 24.9101 22.8638 26.5744C22.8638 28.4297 21.3632 29.9303 19.5079 29.9303C18.7985 29.9303 18.1437 29.6575 17.6526 29.1663C17.3798 28.8935 17.2161 28.5115 17.2161 28.1023C17.2161 27.7203 17.4343 27.3656 17.7072 27.1473C17.9174 26.9605 18.3275 26.8936 18.5268 26.8611C18.5603 26.8557 18.5879 26.8512 18.6075 26.8472C18.7439 26.8199 18.9349 26.7654 19.0714 26.6835C19.4533 26.4653 19.6989 26.0833 19.6989 25.6195C19.6989 24.9374 19.1532 24.3917 18.4711 24.3917C16.1793 24.3917 14.324 26.247 14.324 28.5115C14.324 29.0299 14.4331 29.5483 14.6241 30.0121ZM20.572 14.9788C20.8448 14.2967 21.6087 13.942 22.5091 14.0239C23.4095 14.133 24.0643 14.6514 24.1734 15.4153C24.1734 15.4494 24.1751 15.4852 24.1768 15.5211C24.1819 15.6285 24.1871 15.7359 24.1461 15.7973C24.0916 15.8792 24.037 15.9064 23.9824 15.9064C23.6277 15.961 23.0821 15.9064 22.2908 15.8246C21.4996 15.7427 20.9539 15.6609 20.6265 15.4972C20.572 15.4699 20.5174 15.4426 20.4901 15.3608C20.4628 15.2789 20.5174 15.1152 20.572 14.9788ZM37.0781 23.0278L36.1504 23.2188L36.1777 23.9828H51.4839L51.8659 17.5711H50.9928C50.2834 19.2899 49.765 20.4359 49.2739 21.1725C48.3735 22.5094 47.937 22.7823 45.7543 22.7823C43.1078 22.7823 43.0259 22.5094 43.0259 20.0812V14.8427H43.7626C45.7543 14.8427 46.109 14.9791 46.4364 15.6612C46.8184 16.4524 47.0366 16.9981 47.2822 17.8439H48.1007V10.8047H47.2822C47.0366 11.6778 46.8184 12.1962 46.4364 12.8783C46.109 13.4785 45.6724 13.6968 43.7626 13.6968H43.0259V6.73941C43.4352 6.63028 44.1173 6.46658 45.5087 6.46658C47.3913 6.46658 47.9643 6.57571 48.8374 7.83076C49.2466 8.43101 49.6832 9.22224 50.3653 10.7228H51.211L50.9382 5.29337H36.1504V6.05732L37.0781 6.24831C37.8693 6.43929 38.1148 6.57571 38.1148 8.21274V21.0634C38.1148 22.7004 37.8966 22.8096 37.0781 23.0278ZM52.548 10.8593C53.23 11.0775 53.5302 11.4595 54.1577 12.9874L58.605 23.9828H60.8968L65.0712 13.2875C65.726 11.5141 66.0261 11.1048 66.7355 10.8593L67.2539 10.6956V9.98618H62.261V10.6956L62.9976 10.8865C63.5706 11.023 63.8434 11.3231 63.8434 11.9233C63.8434 12.3053 63.7343 12.7691 63.4887 13.4239L61.306 19.6446H61.1696L58.9051 13.4239C58.6868 12.8237 58.5504 12.3599 58.5504 11.9779C58.5504 11.3231 58.8232 11.0502 59.3962 10.8865L60.1328 10.6956V9.98618H52.0296V10.6956L52.548 10.8593ZM73.6656 9.63149C70.0914 9.63149 66.6264 12.2235 66.6264 16.9163C66.6264 21.4999 68.9455 24.2829 73.6383 24.3374C76.3394 24.3374 78.3857 22.9187 79.3406 21.8819V20.9815C78.3311 21.4999 77.0488 21.991 75.3845 21.991C72.6015 21.991 70.9372 20.7906 70.8554 16.3706H79.7772C79.6953 11.4868 77.3762 9.63149 73.6656 9.63149ZM75.4663 15.0882L70.8554 15.3338C70.9645 11.9506 72.0558 10.641 73.42 10.641C75.0298 10.641 75.4663 11.8415 75.4663 15.0882ZM90.9908 9.54964C89.19 9.54964 87.6349 10.8865 86.8709 11.7051L86.7891 11.6778L86.8436 9.82248L86.5435 9.60421L80.8685 10.259V10.8047L81.7689 11.4049L81.7899 11.4192C82.5353 11.9249 82.6692 12.0158 82.6692 13.1511V21.5272C82.6692 22.6731 82.5601 22.8096 81.6597 23.0551L80.9504 23.2461V23.9828H88.7262V23.2461L87.8259 23.0551C87.0074 22.9187 86.8982 22.7823 86.8982 21.5272V12.7964C87.2529 12.469 87.8259 12.1143 88.317 12.1143C88.5625 12.1143 88.9172 12.1962 89.0809 12.4963C89.381 13.233 90.145 13.7513 90.9908 13.7513C92.164 13.7513 93.0916 12.8237 93.0916 11.6505C93.0916 10.4773 92.1367 9.54964 90.9908 9.54964ZM94.6195 23.0551L93.9101 23.2461H93.9647V23.9828H101.468V23.2461L100.813 23.0824C99.9944 22.8641 99.9126 22.8096 99.9126 21.5272V12.469L99.9228 12.4667C100.524 12.3301 101.473 12.1143 102.423 12.1143C103.678 12.1143 104.278 12.6327 104.278 14.2697V21.4999C104.278 22.755 104.196 22.8368 103.378 23.0551L102.723 23.2188V23.9555H110.226V23.2188L109.516 23.0278C108.643 22.8096 108.534 22.6731 108.534 21.4999V13.2057C108.534 10.7774 107.306 9.60421 105.015 9.60421C103.05 9.60421 101.277 10.5046 99.858 11.5141H99.7489L99.8034 9.7952L99.5033 9.60421L93.8283 10.259V10.8047L94.7287 11.4049L94.7497 11.4192C95.4951 11.9249 95.629 12.0158 95.629 13.1511V21.5272C95.629 22.6731 95.5199 22.8096 94.6195 23.0551ZM118.029 9.63149C114.4 9.63149 110.744 11.8415 110.744 16.9981C110.744 21.9365 114.127 24.2829 118.029 24.2829C121.74 24.2829 125.341 22.0183 125.341 16.8617C125.341 11.9779 121.931 9.63149 118.029 9.63149ZM117.92 10.6683C119.775 10.6683 120.812 11.7051 120.812 17.1345C120.812 22.2912 119.693 23.2461 118.084 23.2461C116.119 23.2461 115.219 22.0456 115.219 16.5343C115.219 11.896 116.228 10.6683 117.92 10.6683ZM127.66 11.5686V20.5723C127.66 23.2188 128.97 24.2829 131.398 24.2829C133.663 24.2829 135 23.3007 135.654 22.7004V21.9365C135.163 22.0456 134.372 22.182 133.717 22.182C132.38 22.182 131.971 21.6364 131.971 20.2994V11.5686H135.19L135.545 9.98618H131.971V6.38472H130.443C129.679 8.54014 128.069 10.0953 125.969 10.9138V11.5686H127.66ZM143.239 9.63149C139.665 9.63149 136.2 12.2235 136.2 16.9163C136.2 21.4999 138.519 24.2829 143.239 24.3374C145.94 24.3374 147.987 22.9187 148.941 21.8819V20.9815C147.932 21.4999 146.65 21.991 144.985 21.991C142.202 21.991 140.538 20.7906 140.456 16.3706H149.351C149.269 11.4868 146.95 9.63149 143.239 9.63149ZM145.04 15.0882L140.429 15.3338C140.538 11.9506 141.629 10.641 142.994 10.641C144.603 10.641 145.04 11.8415 145.04 15.0882Z" fill="var(--fill-0, #A1A1AA)"/>
</svg>
