<svg width="24" height="24" viewBox="0 0 24 24" fill="none" xmlns="http://www.w3.org/2000/svg">
<path fill-rule="evenodd" clip-rule="evenodd" d="M19.004 19.3148C19.5852 18.3952 19.802 17.9253 20.2453 16.8934C16.9744 15.6061 16.4522 10.7734 19.6838 8.92409C18.6985 7.63675 17.3094 6.89093 15.9991 6.89093C15.0533 6.89093 14.403 7.1464 13.8217 7.38134C13.3292 7.57551 12.8858 7.74915 12.3341 7.74915C11.7429 7.74915 11.2208 7.55505 10.6691 7.35069C10.0681 7.12594 9.43755 6.89093 8.64936 6.89093C7.18144 6.89093 5.61494 7.82065 4.61988 9.4145C3.22088 11.6623 3.46719 15.8717 5.72332 19.468C6.5312 20.7554 7.61489 22.196 9.02376 22.2164C9.61489 22.2266 9.99912 22.0428 10.4227 21.8486C10.9055 21.6239 11.4277 21.3786 12.3439 21.3786C13.2601 21.3684 13.7725 21.6239 14.2552 21.8486C14.669 22.0428 15.0434 22.2266 15.6247 22.2164C17.0532 22.196 18.1961 20.6021 19.004 19.3148Z" fill="black"/>
<path fill-rule="evenodd" clip-rule="evenodd" d="M15.7925 1.78271C15.9501 2.90659 15.5068 4.02025 14.9256 4.79674C14.3049 5.63454 13.2211 6.28842 12.1768 6.24757C11.9896 5.16454 12.4724 4.05088 13.0635 3.30504C13.7236 2.48768 14.8368 1.85424 15.7925 1.78271Z" fill="black"/>
</svg>
