<svg width="528" height="181" viewBox="0 0 528 181" fill="none" xmlns="http://www.w3.org/2000/svg">
<path d="M104.987 43.5467C107.401 43.4799 109.816 43.5956 112.212 43.8924C125.325 45.4958 133.978 51.0235 141.91 61.2033C134.655 67.2956 129.405 71.287 125.577 80.4739C117.23 100.511 126.66 123.805 146.699 132.243C145.953 134.885 144.92 137.625 143.859 140.164C139.791 149.663 134.461 158.571 128.013 166.646C120.061 176.773 110.635 183.316 97.5467 178.518C91.7542 176.394 87.1686 173.758 80.955 173.179C71.6914 172.316 66.7789 174.17 58.5523 177.545C40.4084 185.236 31.7331 174.962 21.342 160.818C1.3815 133.65 -10.8308 86.3925 13.5081 58.4028C23.4675 46.9492 42.3072 40.4664 56.7072 46.1919C61.2473 47.9971 66.0898 49.8809 70.7779 51.257C76.0985 52.7386 80.9755 50.4994 85.8517 48.567C92.21 46.0471 98.0767 43.8941 104.987 43.5467Z" fill="black"/>
<path d="M307.923 76.0401C344.025 73.2211 351.505 128.217 326.286 145.919C319.457 150.622 311.061 152.464 302.89 151.051C294.956 149.657 290.058 145.942 285.561 139.545C285.892 145.881 285.701 153.773 285.695 160.245C285.719 166.617 285.499 173.309 285.669 179.634C282.01 179.42 276.563 179.562 272.793 179.538L272.295 77.6379L283.964 77.652C284.181 81.963 284.315 86.3241 284.479 90.6416C290.749 80.7314 296.632 77.7665 307.923 76.0401ZM310.466 140.864C326.307 137.314 330.241 118.64 327.153 104.922C324.326 92.3578 316.357 85.8179 303.631 86.5749C297.186 88.0945 293.104 90.431 289.407 96.1948C285.414 102.422 285.663 108.756 285.695 115.816C285.71 119.243 285.534 122.458 286.354 125.859C287.588 131.04 290.825 135.522 295.354 138.323C300.262 141.308 304.946 141.552 310.466 140.864Z" fill="black"/>
<path d="M389.948 76.0325C426.168 73.5669 433.132 127.826 408.684 145.609C401.887 150.472 393.443 152.45 385.196 151.111C377.02 149.783 372.124 146.001 367.466 139.506C367.861 146.094 367.65 154.812 367.65 161.563C367.674 167.346 367.387 173.967 367.615 179.63C363.698 179.45 358.776 179.563 354.772 179.554C355.056 145.578 354.889 111.601 354.273 77.6304L365.951 77.672L366.502 90.6262C372.675 80.6937 378.687 77.7297 389.948 76.0325ZM392.43 140.863C408.273 137.395 412.205 118.643 409.149 104.964C406.363 92.4968 398.371 85.7793 385.68 86.5671C379.234 88.0607 375.133 90.3859 371.436 96.1311C367.375 102.443 367.662 108.812 367.688 115.973C367.7 119.337 367.536 122.512 368.336 125.846C369.569 131.047 372.821 135.544 377.374 138.345C382.255 141.301 386.945 141.559 392.43 140.863Z" fill="black"/>
<path d="M212.669 49.3778C217.704 49.3579 223.262 49.2308 228.247 49.4895L253.032 122.127L258.871 139.392C259.759 142.023 261.481 147.709 262.715 149.741C257.972 149.779 253.226 149.789 248.481 149.774C247.765 146.751 246.424 143.394 245.466 140.402C243.132 133.114 240.171 125.595 238.095 118.259C235.26 118.085 230.902 118.205 227.953 118.2C222.793 118.178 217.633 118.183 212.473 118.216C209.6 118.246 204.833 118.453 202.204 118.138C199.195 128.475 194.89 139.287 191.793 149.816C187.3 149.774 182.806 149.769 178.312 149.801C179.215 147.936 180.675 143.274 181.391 141.161L205.35 70.5944L209.865 57.1406C210.574 55.0251 211.708 51.2877 212.669 49.3778ZM204.915 108.215C210.164 107.972 215.813 108.075 221.097 108.083C225.328 108.056 231.198 107.86 235.29 108.174C231.357 96.5464 227.348 84.9106 223.59 73.2205C222.948 71.224 220.749 61.4139 219.66 60.84C216.333 76.7253 209.64 92.7908 204.915 108.215Z" fill="black"/>
<path d="M495.367 76.0281C498.147 75.8816 500.937 76.0665 503.673 76.5789C521.878 79.8449 529.82 99.4632 526.721 116.137L492.388 116.148C489.417 116.155 478.703 116.448 476.295 116.045C476.377 138.913 495.048 144.691 514.571 139.759C516.733 139.264 518.942 138.443 521.005 137.644C521.62 140.703 522.417 143.885 523.135 146.934C519.112 148.63 514.897 149.827 510.584 150.499C499.155 152.272 486.81 151.867 477.001 144.664C460.334 132.42 460.173 104.518 471.666 88.7561C477.877 80.2398 485.248 77.5026 495.367 76.0281ZM476.169 106.855C482.603 106.574 489.98 106.759 496.481 106.774C501.83 106.779 509.641 106.569 514.812 106.833C514.296 94.0515 509.207 84.7466 494.814 85.4552C482.673 86.7663 478.416 96.1237 476.169 106.855Z" fill="black"/>
<path d="M436.841 44.0195C441.104 43.9448 445.492 44.0019 449.764 44.0084C449.564 49.6832 449.734 56.304 449.74 62.0512L449.761 130.763C449.758 136.953 449.611 143.821 449.837 149.926C446.028 149.67 440.547 149.848 436.615 149.866C436.973 138.834 436.773 126.872 436.773 115.773L436.841 44.0195Z" fill="black"/>
<path d="M107.35 0.154478C108.125 -0.0122217 108.26 -0.108901 108.931 0.211314C109.358 0.960728 109.46 1.79481 109.467 2.64852C109.612 21.5969 94.788 40.791 75.1178 41.5515L74.0022 41.6359C73.4379 41.2108 73.1695 40.7383 73.1482 39.9845C72.5599 19.4028 87.9448 3.59774 107.35 0.154478Z" fill="black"/>
</svg>
