<svg width="65" height="74" viewBox="0 0 65 74" fill="none" xmlns="http://www.w3.org/2000/svg">
<path d="M24.8754 65.2277L27.017 70.0889L29.1575 65.2277H31.0089V65.4007C30.5212 65.3861 30.1864 65.6272 30.1384 66.1216C29.9967 67.5791 30.2467 69.2687 30.1451 70.7507C30.163 70.8679 30.2556 71.0509 30.3426 71.1312C30.529 71.3042 30.8627 71.2373 30.8939 71.4772H28.4064C28.3886 71.2585 28.633 71.3254 28.7535 71.2752C28.9298 71.2016 29.2735 70.9616 29.2735 70.754V66.2689L26.873 71.4828L26.6978 71.4203L24.3554 66.3269V70.8121C24.3554 70.8489 24.5328 71.1156 24.5875 71.158C24.746 71.2786 24.9814 71.273 25.15 71.3478C25.2303 71.3835 25.2404 71.3545 25.2236 71.4772H23.0831C23.0753 71.2741 23.3398 71.3009 23.4916 71.2205C23.7617 71.0777 23.8509 70.8712 23.8867 70.5733C24.0518 69.1727 23.7739 67.4931 23.8956 66.0624C23.8889 65.625 23.4905 65.3817 23.082 65.3995V65.2266H24.8765L24.8754 65.2277Z" fill="#312361"/>
<path d="M40.1213 49.4295C41.004 49.511 41.8153 50.0121 41.8845 50.964C41.9582 51.9751 41.3143 52.4282 40.4393 52.6994L42.2595 55.2193C42.4972 55.5128 42.9191 55.5128 43.2003 55.6668C43.2684 55.7036 43.2974 55.6645 43.2739 55.7962H41.4806L39.6001 52.9025L38.8189 52.8444V55.188C38.8189 55.3621 39.1068 55.5563 39.2675 55.6065C39.3992 55.6478 39.7229 55.5842 39.686 55.7951H37.0244C37.0568 55.5317 37.4474 55.6422 37.6605 55.4759C37.9574 55.2438 37.8168 54.1814 37.8302 53.7975C37.8648 52.8076 37.954 51.7842 37.8949 50.7866C37.8558 50.1203 37.8268 49.6326 37.0244 49.6025V49.4295C38.0221 49.4976 39.137 49.338 40.1202 49.4295H40.1213ZM38.8189 52.4382H39.7162C39.8613 52.4382 40.2887 52.2027 40.4125 52.0923C41.0286 51.5421 40.9348 50.2855 40.1146 49.9563C40.0465 49.9284 39.7597 49.8335 39.7162 49.8335H38.8189V52.4382Z" fill="#312361"/>
<path d="M8.18479 57.3008C11.6187 57.6301 11.8809 62.5259 8.92022 63.4767C8.06315 63.7524 5.93496 63.7479 4.99976 63.6698C4.86919 63.6586 4.72969 63.6776 4.74308 63.4935C5.35353 63.47 5.55664 63.2435 5.6102 62.6531C5.71176 61.5315 5.70841 59.3788 5.61355 58.2539C5.57896 57.8387 5.54548 57.7059 5.16492 57.5452C5.03547 57.4906 4.61363 57.4772 4.83124 57.3008C5.9104 57.3767 7.1246 57.1993 8.18702 57.3008H8.18479ZM6.98622 57.6646C6.69494 57.7026 6.57219 57.6981 6.53424 58.0229C6.68267 59.5295 6.33671 61.42 6.54094 62.8797C6.55879 63.0069 6.61571 63.21 6.74963 63.2502C7.07884 63.3495 7.98949 63.2468 8.32875 63.1163C10.8252 62.1532 10.2929 57.2305 6.98622 57.6646Z" fill="#312361"/>
<path d="M52.0383 57.2991C52.7782 57.3739 53.6274 57.7857 53.7402 58.6059C53.8863 59.6683 53.4701 60.1861 52.4992 60.4808C52.4356 60.4997 52.3965 60.4406 52.4155 60.5678L54.1854 63.0799C54.4276 63.3154 54.6832 63.4225 55.018 63.4627L55.076 63.6658H53.4846L51.5216 60.7676L50.6779 60.714V62.7685C50.6779 62.7875 50.7493 63.1089 50.7616 63.1469C50.8933 63.5296 51.3207 63.3812 51.5461 63.5196C51.6421 63.5776 51.5394 63.6658 51.516 63.6658H48.9994V63.4928C49.6969 63.4069 49.7672 63.11 49.8119 62.4817C49.8911 61.3512 49.8933 59.5545 49.8119 58.4262C49.7672 57.8002 49.6277 57.4921 48.9414 57.4732V57.3002C49.9335 57.3739 51.0629 57.2009 52.0372 57.3002L52.0383 57.2991ZM50.679 60.3078H51.6332C51.7716 60.3078 52.2135 60.0712 52.3295 59.9629C52.8775 59.4563 52.8462 58.2834 52.2023 57.8861C52.1298 57.8415 51.8073 57.7031 51.7492 57.7031H50.766L50.679 57.7901V60.3078Z" fill="#312361"/>
<path d="M45.171 57.2002C49.5256 56.6712 49.7488 63.4821 45.8484 63.7811C41.7471 64.0947 41.4536 57.6521 45.171 57.2002ZM45.2257 57.603C42.9982 57.9501 42.9535 63.7912 45.9589 63.3716C48.231 63.0546 48.2589 57.131 45.2257 57.603Z" fill="#312361"/>
<path d="M24.8638 57.1995C29.3199 56.7174 29.4505 63.4446 25.5981 63.7794C21.517 64.1343 21.1688 57.6002 24.8638 57.1995ZM24.9185 57.6013C22.864 57.9227 22.7948 62.6902 24.8047 63.3006C28.0377 64.2816 28.2531 57.079 24.9185 57.6013Z" fill="#312361"/>
<path d="M28.8675 54.116V50.267C28.8675 50.2201 28.6867 49.8563 28.6331 49.8072C28.4255 49.6152 27.9948 49.6945 27.9423 49.4277H30.1408V49.6007C29.7011 49.5896 29.3764 49.7715 29.2893 50.2246L29.2726 55.9094L29.0561 55.8659L24.9336 50.8171V55.1293C24.9336 55.1516 25.0943 55.4117 25.1345 55.4485C25.293 55.5958 25.5005 55.5902 25.6702 55.665C25.7516 55.7007 25.7594 55.6728 25.7427 55.7944H23.6893C23.6614 55.7944 23.5632 55.694 23.6592 55.6482C24.1413 55.6203 24.4024 55.3726 24.4649 54.8916C24.639 53.5513 24.3433 51.874 24.4716 50.4969C24.4169 50.0404 23.812 49.623 23.3701 49.6007V49.4277H25.0195L28.8675 54.116Z" fill="#312361"/>
<path d="M19.308 65.1262C23.6001 64.5447 24.0308 71.3233 19.9865 71.6502C16.0259 71.9694 15.7279 65.6105 19.308 65.1262ZM19.424 65.5313C17.3405 65.8359 17.2021 70.7407 19.3917 71.205C22.5756 71.879 22.5533 65.0737 19.424 65.5313Z" fill="#312361"/>
<path d="M44.4315 65.2285L48.1344 69.8587V66.1258C48.1344 65.7039 47.5764 65.4048 47.2081 65.3747C47.1121 65.329 47.2103 65.2285 47.2382 65.2285H49.3787C49.4144 65.2285 49.4903 65.3479 49.4657 65.4015C48.6366 65.4439 48.5796 65.9416 48.5384 66.6436C48.4424 68.2394 48.6154 69.9313 48.5406 71.5361L48.227 71.4167C46.9146 69.8911 45.7595 68.216 44.4505 66.6905C44.4148 66.6492 44.4538 66.5822 44.3177 66.6168V70.5808C44.3177 70.8743 44.5297 71.1477 44.7964 71.2593C44.9438 71.3218 45.1982 71.2571 45.1859 71.478H43.1035V71.3051C43.4517 71.3084 43.7898 71.1165 43.8523 70.7515C44.0153 69.8052 44.0007 67.4616 43.9159 66.4706C43.8612 65.8378 43.4405 65.4595 42.8145 65.4015V65.2285H44.4349H44.4315Z" fill="#312361"/>
<path d="M16.1391 57.2988V58.6592C16.1391 58.6748 16.292 58.9672 16.0287 58.7987C15.984 58.7697 15.8735 58.1057 15.5231 57.8858C15.4874 57.8635 15.2575 57.762 15.2419 57.762H13.0724V60.1926H14.5477C14.6192 60.1926 14.9886 60.0698 15.0689 60.0196C15.4193 59.7986 15.3122 59.4594 15.474 59.2674C15.5488 59.1782 15.618 59.2708 15.618 59.2964V61.582C15.368 61.5742 15.4216 61.2282 15.358 61.0608C15.301 60.9113 15.0912 60.6568 14.9395 60.6111C14.9071 60.601 14.5678 60.5408 14.5477 60.5408H13.0724V62.9424C13.0724 62.9569 13.1862 63.1299 13.213 63.1488C13.3291 63.2325 14.5991 63.2236 14.839 63.2046C15.6392 63.1421 16.0822 62.7906 16.3065 62.0217L16.4851 61.9871L16.138 63.6655H11.3359L11.3705 63.487C11.7555 63.41 12.0792 63.3185 12.1417 62.8788C12.0412 61.3588 12.2935 59.6301 12.1495 58.1358C12.1026 57.6448 11.8024 57.493 11.3359 57.4729V57.2999H16.138L16.1391 57.2988Z" fill="#312361"/>
<path d="M22.3882 49.4297V50.934C22.2074 50.8548 22.2219 50.6037 22.1415 50.4575C22.0522 50.2957 21.7331 49.8928 21.5489 49.8928H19.2634V52.3234H20.7968C20.8269 52.3234 21.1617 52.2409 21.2153 52.2219C21.6706 52.0556 21.6181 51.7186 21.7353 51.3503C21.7666 51.2521 21.7108 51.1985 21.867 51.2242V53.6548C21.7498 53.6693 21.7721 53.666 21.7364 53.5823C21.6371 53.3468 21.5746 52.7285 21.1438 52.7285H19.2634V55.1302C19.2634 55.3411 19.7087 55.3801 19.8683 55.3924C20.3247 55.4281 21.3425 55.4025 21.7643 55.2596C22.2487 55.0956 22.4919 54.6112 22.6136 54.1514L22.7921 54.1168L22.4428 55.793L17.528 55.7953C17.5146 55.5754 17.7702 55.6402 17.9175 55.5777C18.249 55.4359 18.2936 55.2328 18.3315 54.8913C18.4498 53.7999 18.4387 51.4307 18.3416 50.3236C18.2891 49.7332 17.9655 49.6094 17.4131 49.6027V49.4297H22.3893H22.3882Z" fill="#312361"/>
<path d="M18.7435 60.8878V62.8263C18.7435 63.3932 19.3427 63.4736 19.7847 63.4926V63.6655H17.065V63.4926C17.3942 63.4624 17.7402 63.3598 17.8138 62.9959C17.71 61.4146 17.9634 59.6346 17.8194 58.0767C17.777 57.6146 17.4366 57.4718 17.0059 57.4718V57.2988H19.8706C20.4766 57.2988 21.2946 57.7039 21.549 58.2831C22.0847 59.5007 21.2076 60.8878 19.8706 60.8878H18.7423H18.7435ZM18.7435 57.705V60.4537C18.97 60.6178 19.6039 60.5218 19.8751 60.4281C20.846 60.0921 20.8728 58.4483 20.0704 57.9115C19.9867 57.8557 19.6574 57.705 19.5827 57.705H18.7435Z" fill="#312361"/>
<path d="M32.802 57.0664V59.3519L32.5989 59.3821C32.4817 58.3989 31.8489 57.4737 30.7541 57.5943C29.8268 57.6958 29.5221 58.6489 30.2285 59.2649C31.2363 60.1421 33.3388 60.2771 33.2584 62.0638C33.1926 63.528 31.7797 63.9465 30.5421 63.6965C30.2732 63.6418 29.7152 63.3628 29.5042 63.4621C29.3993 63.5112 29.3447 63.721 29.156 63.6652V61.5527C29.156 61.5214 29.2833 61.4333 29.329 61.4656C29.3045 62.7769 31.3289 64.163 32.2228 62.884C33.1959 61.4902 30.4685 60.7793 29.7341 60.1644C28.1673 58.8542 29.4819 56.6713 31.5744 57.2818C32.0163 57.4101 32.4047 57.8487 32.5766 57.0753L32.8009 57.0675L32.802 57.0664Z" fill="#312361"/>
<path d="M33.4081 68.7004C33.3255 68.7517 33.3277 68.8153 33.3188 68.9001C33.2786 69.2438 33.3099 69.9782 33.3378 70.3475C33.3958 71.112 33.5565 71.2917 34.3634 71.3051V71.478H31.6437V71.3051C31.9919 71.3385 32.3099 71.1511 32.3925 70.8096C32.291 69.265 32.5387 67.5274 32.3981 66.0064C32.3579 65.5678 32.0577 65.4216 31.6426 65.4015V65.2285H34.6223C34.774 65.2285 35.3666 65.4539 35.5206 65.5455C36.3677 66.0443 36.477 67.4281 35.8387 68.1234C35.6568 68.3209 34.9872 68.7004 34.7383 68.7004H33.4081ZM33.4081 65.6325C33.3355 65.6325 33.3311 65.9472 33.3277 66.0097C33.2965 66.5733 33.2987 67.1804 33.3188 67.7473C33.3244 67.9046 33.3188 68.1814 33.4081 68.2941H34.2763C34.3343 68.2941 34.658 68.1557 34.7294 68.1111C35.3064 67.7495 35.3823 66.6871 35.024 66.157C34.8957 65.9673 34.5062 65.6325 34.2752 65.6325H33.407H33.4081Z" fill="#312361"/>
<path d="M50.3329 55.7942H47.8744C47.8487 55.7942 47.7472 55.6994 47.8443 55.648C49.0797 55.6079 48.1188 54.3926 47.967 53.7464L45.4795 53.7174C45.4148 54.1805 44.6871 55.1269 45.1536 55.5052C45.3322 55.6503 45.6502 55.5811 45.6469 55.7931H43.5645V55.6201C44.0187 55.5755 44.2541 55.3668 44.4639 54.9851C45.3166 53.4295 45.9203 51.2879 46.6792 49.6195C46.783 49.3907 46.7885 49.2155 47.0966 49.3382L49.5707 55.2552C49.7057 55.6079 50.1611 55.5063 50.334 55.7942H50.3329ZM47.7874 53.3056L46.6892 50.644L45.7049 53.3056H47.7874Z" fill="#312361"/>
<path d="M16.5448 49.2552V51.6859H16.3719C16.1911 50.3511 15.3039 49.5409 13.9178 49.7228C11.4894 50.042 11.2584 56.0572 14.9278 55.4791C15.6777 55.3608 16.229 54.7336 16.5437 54.0864C16.8685 54.1176 16.498 54.7024 16.3953 54.8642C15.7123 55.9333 14.3854 56.1766 13.2214 55.8496C9.50854 54.8062 10.764 48.1917 15.2581 49.4717C15.4992 49.5409 15.8306 49.7541 16.0505 49.7195C16.3596 49.6693 16.2167 49.2017 16.5448 49.2552Z" fill="#312361"/>
<path d="M35.782 71.4774C35.4707 71.4015 36.1347 71.2051 36.1782 71.1794C36.4717 71.0087 36.6625 70.5444 36.8043 70.2431C37.5687 68.6238 38.1189 66.836 38.8878 65.2089C38.9302 65.0883 39.1534 65.0482 39.1835 65.1832L41.4702 70.7643C41.6276 71.089 41.9211 71.3122 42.2905 71.3044V71.4774H39.8888C39.8609 71.4774 39.7627 71.3769 39.8587 71.3312C41.1075 71.2497 40.083 70.0924 39.9815 69.4273L37.658 69.4195C37.5509 69.7599 36.9415 70.8323 37.2127 71.1147C37.3589 71.2665 37.8198 71.2341 37.8343 71.4763H35.7809L35.782 71.4774ZM37.8354 68.9887H39.8029L38.8476 66.5001L37.8354 68.9887Z" fill="#312361"/>
<path d="M57.7663 57.2988C58.1323 57.3881 57.3701 57.5443 57.331 57.5589C56.8813 57.7229 57.1871 58.1927 57.3433 58.474C57.7272 59.1659 58.2941 59.8087 58.6055 60.5397C59.053 59.9259 59.5206 59.2819 59.9011 58.6246C60.2605 58.0052 60.4993 57.5723 59.5295 57.4718V57.2988H61.728V57.4707C61.3519 57.5142 61.0629 57.7787 60.8363 58.0555C60.1355 58.9103 59.5742 60.1446 58.9202 61.0586C58.8566 61.3008 58.8543 62.7292 58.9068 62.9859C58.9414 63.1555 59.0775 63.3408 59.2394 63.4055C59.4414 63.4859 59.7773 63.3932 59.7036 63.6655H57.1871C57.1513 63.6655 57.0755 63.5461 57.1 63.4926C58.4359 63.5394 57.8645 61.9146 57.9415 61.0586C57.2306 60.1491 56.6927 58.8009 55.9673 57.9405C55.7061 57.6314 55.4294 57.4964 55.0176 57.4718V57.2988H57.7663Z" fill="#312361"/>
<path d="M15.9664 65.1139V67.3715H15.7934C15.6226 65.2478 12.8606 64.8271 12.0046 66.7935C11.4321 68.1081 11.5381 70.3903 13.0592 71.003C14.3125 71.5085 15.366 70.9985 16.0545 69.9171L16.1985 70.0053C15.2544 72.5073 11.4767 72.0341 10.7871 69.5712C10.0974 67.1082 11.7948 64.6195 14.3939 65.211C14.645 65.2679 15.3403 65.6005 15.4731 65.5804C15.7209 65.5413 15.6483 65.0514 15.9664 65.1139Z" fill="#312361"/>
<path d="M52.443 65.2285C52.4888 65.2397 52.5635 65.3256 52.4732 65.3747C52.1618 65.4071 51.7087 65.5365 51.789 65.9383L53.2253 68.3544C53.5914 67.8835 53.9351 67.3612 54.2319 66.8445C54.5288 66.3278 55.1281 65.512 54.0913 65.4026V65.2296H56.1749L56.1403 65.4082C55.7653 65.4897 55.5935 65.6838 55.3758 65.9639C55.0901 66.3311 53.5903 68.6088 53.5266 68.918C53.472 69.1825 53.4764 70.5897 53.5389 70.8475C53.6148 71.1656 53.9429 71.3653 54.2665 71.3062V71.4792H51.7779C51.7957 71.2247 52.1305 71.3352 52.3515 71.2136C52.597 71.0785 52.6283 70.7817 52.6484 70.5261C52.7008 69.8554 52.7153 69.2148 52.404 68.6256C52.0558 67.966 51.1574 66.4851 50.7032 65.9282C50.47 65.6425 50.1977 65.4138 49.8115 65.4015V65.2285H52.4441H52.443Z" fill="#312361"/>
<path d="M36.3312 51.0501H36.1582C36.1515 50.6461 35.9562 50.2176 35.5802 50.0368C35.531 50.0133 35.1684 49.8928 35.1449 49.8928H34.0747V55.0721C34.0747 55.1502 34.2499 55.4471 34.3336 55.5074C34.5423 55.6558 34.8324 55.5486 34.9418 55.7953H32.3382C32.3639 55.5174 32.7534 55.6792 32.9565 55.4884C32.9922 55.4549 33.1473 55.1569 33.1473 55.1302V49.8928H32.019C31.6653 49.8928 31.3494 50.3091 31.2356 50.6137C31.1753 50.7722 31.2099 51.1349 31.0068 51.1081V49.4297H36.243C36.2988 49.4665 36.3301 49.6384 36.3301 49.6897V51.0501H36.3312Z" fill="#312361"/>
<path d="M42.1174 57.2988L42.1754 58.9773C42.0783 58.9962 42.0538 58.9561 42.0158 58.8768C41.912 58.6615 41.9176 58.4048 41.7446 58.1648C41.633 58.0097 41.2926 57.762 41.1052 57.762H40.0349V62.9413C40.0349 63.3017 40.5516 63.4747 40.8462 63.5193C40.9422 63.5651 40.844 63.6655 40.8161 63.6655H38.2415V63.4926C38.5473 63.4981 39.1098 63.3006 39.1098 62.9424V57.7631H38.0395C37.7617 57.7631 37.4536 58.1046 37.3454 58.3423C37.3164 58.4059 37.1557 59.1257 37.0273 58.9784L37.0854 57.2999H42.1185L42.1174 57.2988Z" fill="#312361"/>
<path d="M53.7463 49.4289V49.6018C53.0611 49.6018 52.8357 49.7782 52.7698 50.4489C52.6616 51.5537 52.6817 53.5457 52.7598 54.6684C52.7866 55.0456 52.7743 55.3257 53.2017 55.3838C53.6314 55.4429 54.8143 55.3637 55.2094 55.203C55.6044 55.0423 55.802 54.7365 55.995 54.3693C56.0843 54.2008 56.0921 53.7823 56.3499 53.914L55.889 55.8279L51.0266 55.7933C51.0166 55.5567 51.28 55.6449 51.4351 55.5947C51.6828 55.5143 51.8011 55.2443 51.8302 55.0054C52.0132 53.5111 51.7286 51.6474 51.8112 50.1185C51.7453 49.7458 51.3793 49.5806 51.0266 49.6007V49.4277H53.7463V49.4289Z" fill="#312361"/>
<path d="M36.5044 57.2988V57.4718C36.0379 57.4919 35.7388 57.6437 35.692 58.1347C35.5469 59.648 35.8036 61.3979 35.6987 62.9379C35.7813 63.3665 36.1082 63.4803 36.5055 63.4914V63.6644H33.96V63.4914C34.3818 63.4836 34.7021 63.3274 34.7646 62.8788C34.6831 61.3577 34.8896 59.6982 34.7724 58.1939C34.7278 57.6247 34.5168 57.5142 33.96 57.4729V57.2999H36.5055L36.5044 57.2988Z" fill="#312361"/>
<path d="M26.6117 46.9119C26.6139 46.9287 26.6988 46.9767 26.6697 46.9979C21.4648 46.7691 16.5109 44.6063 12.7255 41.0675C0.412791 29.5539 4.52855 7.79881 21.0574 2.92753C22.8185 2.40859 24.7168 2.05817 26.5537 2.03027L26.6441 9.26634C26.5671 9.37235 26.2122 9.30763 26.0626 9.32325C16.0824 10.3756 10.46 20.5713 13.8247 29.8407C15.8302 35.3671 20.7483 39.1034 26.6117 39.5911V46.9119Z" fill="#312361"/>
<path d="M59.7042 2.31923V9.32205C57.8528 9.30085 56.007 9.42472 54.1968 9.80304C51.4158 10.3834 48.7519 11.5328 46.4217 13.1421V13.2581C47.0802 14.4902 47.6672 15.7557 48.0901 17.0916C49.705 22.1916 49.5197 28.3429 47.3904 33.2644C47.0913 33.9552 46.7141 34.5992 46.3927 35.2788C46.4028 35.3904 47.0333 35.7944 47.1773 35.8892C50.7763 38.263 55.4244 39.1915 59.7042 39.129V46.3059C53.4681 46.3963 47.1025 44.6966 42.1442 40.8755C38.4547 44.6062 33.3212 46.8003 28.0571 46.942L27.999 11.2047L28.9833 11.6969V39.5921L30.0245 39.418V12.7381L30.9497 13.1722V39.187L31.9329 38.8689V14.0695L32.858 14.4746V38.5498C33.7698 38.1714 34.6358 37.6793 35.4449 37.1157C36.0799 36.6738 36.7696 36.156 37.2561 35.569C35.8232 33.4318 34.7798 30.9198 34.3222 28.3742C33.8646 25.8286 33.8825 22.5331 34.3903 19.9128C34.869 17.4431 35.7808 15.0828 37.1825 12.997C34.7284 10.7371 31.4396 9.50619 28.1129 9.32317L28.1709 2.03019C29.8895 1.97774 31.6238 2.28798 33.2754 2.74107C36.6044 3.65507 39.6823 5.41163 42.2022 7.74962C45.1406 5.47189 48.6336 3.96643 52.2494 3.11158C54.6879 2.53462 57.1955 2.27013 59.702 2.32035L59.7042 2.31923ZM29.1574 3.01449V8.33887C33.6638 8.94261 37.9045 11.4324 40.3474 15.2881C43.2044 19.7967 43.8918 25.1702 42.0303 30.22C42.7992 31.6295 43.7981 33.1116 45.0089 34.1796C45.1127 34.2711 45.5479 34.6751 45.6428 34.6103C49.5934 27.3017 48.9059 18.3348 44.1887 11.5607C40.7369 6.60351 35.1849 3.51222 29.1574 3.01337V3.01449ZM41.479 28.8262C42.1866 26.2136 42.2736 23.4772 41.6933 20.829C41.6688 20.7185 41.498 19.9708 41.4511 19.9708C40.7905 22.7005 40.6789 25.7271 41.3462 28.469C41.3685 28.5628 41.3875 28.7949 41.4801 28.8262H41.479ZM28.9833 40.5161V45.9566C32.4217 45.5916 35.7775 44.4433 38.64 42.5082C39.0149 42.2548 41.3663 40.486 41.3652 40.1992C40.0093 39.129 38.8933 37.7887 37.8577 36.4104C35.4003 38.7027 32.3391 40.1367 28.9833 40.5172V40.5161Z" fill="#312361"/>
</svg>
