<svg width="20" height="20" viewBox="0 0 20 20" fill="none" xmlns="http://www.w3.org/2000/svg">
<g clip-path="url(#clip0_1022_3062)">
<path d="M6.25 10.625H13.75" stroke="#292A36" stroke-width="1.6" stroke-linecap="round" stroke-linejoin="round"/>
<path d="M3.75 7.5V5.625C3.75 4.96196 4.01339 4.32607 4.48223 3.85723C4.95107 3.38839 5.58696 3.125 6.25 3.125H13.75C14.413 3.125 15.0489 3.38839 15.5178 3.85723C15.9866 4.32607 16.25 4.96196 16.25 5.625V7.5" stroke="#292A36" stroke-width="1.6" stroke-linecap="round" stroke-linejoin="round"/>
<path d="M6.25 13.125V10C6.25 9.50555 6.10338 9.0222 5.82868 8.61108C5.55397 8.19995 5.16352 7.87952 4.70671 7.6903C4.24989 7.50108 3.74723 7.45157 3.26228 7.54804C2.77732 7.6445 2.33187 7.8826 1.98223 8.23223C1.6326 8.58187 1.3945 9.02732 1.29804 9.51228C1.20157 9.99723 1.25108 10.4999 1.4403 10.9567C1.62952 11.4135 1.94995 11.804 2.36108 12.0787C2.7722 12.3534 3.25555 12.5 3.75 12.5V15.625C3.75 15.7908 3.81585 15.9497 3.93306 16.0669C4.05027 16.1842 4.20924 16.25 4.375 16.25H15.625C15.7908 16.25 15.9497 16.1842 16.0669 16.0669C16.1842 15.9497 16.25 15.7908 16.25 15.625V12.5C16.7445 12.5 17.2278 12.3534 17.6389 12.0787C18.05 11.804 18.3705 11.4135 18.5597 10.9567C18.7489 10.4999 18.7984 9.99723 18.702 9.51228C18.6055 9.02732 18.3674 8.58187 18.0178 8.23223C17.6681 7.8826 17.2227 7.6445 16.7377 7.54804C16.2528 7.45157 15.7501 7.50108 15.2933 7.6903C14.8365 7.87952 14.446 8.19995 14.1713 8.61108C13.8966 9.0222 13.75 9.50555 13.75 10V13.125" stroke="#292A36" stroke-width="1.6" stroke-linecap="round" stroke-linejoin="round"/>
</g>
<defs>
<clipPath id="clip0_1022_3062">
<rect width="20" height="20" fill="white"/>
</clipPath>
</defs>
</svg>
