<svg width="595" height="107" viewBox="0 0 595 107" fill="none" xmlns="http://www.w3.org/2000/svg">
<path d="M423.442 95.6273H424.969V77.9337L424.071 77.2965L423.442 79.4449V95.6273Z" fill="#443087" fill-opacity="0.05"/>
<path d="M421.384 95.6268H422.92V79.5097L422.021 78.8644L421.384 81.021V95.6268Z" fill="#443087" fill-opacity="0.05"/>
<path d="M419.325 95.6262H420.861V81.0776L419.962 80.4404L419.325 82.5888V95.6262Z" fill="#443087" fill-opacity="0.05"/>
<path d="M417.268 95.6257H418.803V82.6455L417.905 82.0083L417.268 84.1567V95.6257Z" fill="#443087" fill-opacity="0.05"/>
<path d="M415.217 95.6266H416.753V84.223L415.846 83.5776L415.217 85.7342V95.6266Z" fill="#443087" fill-opacity="0.05"/>
<path d="M413.158 95.6261H414.693V85.7908L413.795 85.1455L413.158 87.3021V95.6261Z" fill="#443087" fill-opacity="0.05"/>
<path d="M411.1 95.6254H412.636V87.3586L411.737 86.7214L411.1 88.8698V95.6254Z" fill="#443087" fill-opacity="0.05"/>
<path d="M409.049 95.6264H410.577V88.9279L409.678 88.2908L409.049 90.4473V95.6264Z" fill="#443087" fill-opacity="0.05"/>
<path d="M406.99 95.6258H408.526V90.504L407.627 89.8586L406.99 92.0152V95.6258Z" fill="#443087" fill-opacity="0.05"/>
<path d="M404.933 95.6266H406.469V92.0732L405.57 91.436L404.933 93.5844V95.6266Z" fill="#443087" fill-opacity="0.05"/>
<path d="M402.874 95.6261H404.41V93.6411L403.511 93.0039L402.874 95.1605V95.6261Z" fill="#443087" fill-opacity="0.05"/>
<path d="M422.282 71.3324L420.24 71.6428L392.441 95.6264H394.091L422.282 71.3324Z" fill="#443087" fill-opacity="0.05"/>
<path d="M401.591 78.4971L396.755 91.4365L418.958 71.9866L401.591 78.4971Z" fill="#443087" fill-opacity="0.05"/>
<path d="M425.028 69.046L423.721 65.5089H422.807L422.104 70.8431H422.807L425.028 69.046Z" fill="#443087" fill-opacity="0.05"/>
<path d="M424.782 64.5516L424.569 66.4222L425.272 68.6932V68.8892L425.305 68.7912L425.337 68.8892V68.6932L426.04 66.4222L425.827 64.5516C426.652 64.2657 427.249 63.4815 427.249 62.5502C427.249 62.3215 427.208 62.1009 427.143 61.8967C427.143 61.8967 427.143 61.9131 427.143 61.9212C427.143 62.975 426.334 63.8327 425.305 63.9226C424.275 63.8327 423.467 62.975 423.467 61.9212C423.467 61.9212 423.467 61.9049 423.467 61.8967C423.401 62.1009 423.36 62.3215 423.36 62.5502C423.36 63.4733 423.957 64.2575 424.782 64.5516V64.5516Z" fill="#443087" fill-opacity="0.05"/>
<path d="M389.836 49.4071L387.925 31.5093L386.013 49.4071C386.585 49.3254 389.836 49.4071 389.836 49.4071V49.4071Z" fill="#443087" fill-opacity="0.05"/>
<path d="M400.514 60.5584L399.092 47.2515L397.671 60.5584C398.096 60.5013 400.514 60.5584 400.514 60.5584Z" fill="#443087" fill-opacity="0.05"/>
<path d="M398.543 84.2151L399.671 81.1763V60.983H399.091H398.543V84.2151Z" fill="#443087" fill-opacity="0.05"/>
<path d="M398.3 84.8686V60.983H397.687V86.5187L398.3 84.8686Z" fill="#443087" fill-opacity="0.05"/>
<path d="M400.496 78.9299V60.983H399.908V80.5228L400.496 78.9299Z" fill="#443087" fill-opacity="0.05"/>
<path d="M383.815 96.4178V97.5777H384.419V96.4178H385.873V97.5777H386.478V96.4178H387.932V97.5777H388.536V96.4178H389.99V97.5777H390.595V96.4178H392.049V97.5777H392.654V96.4178H394.108V97.5777H394.712V96.4178H396.166V97.5777H396.771V96.4178H398.225V97.5777H398.829V96.4178H400.283V97.5777H400.888V96.4178H402.334V97.5777H402.946V96.4178H404.392V97.5777H404.997V96.4178H406.451V97.5777H407.055V96.4178H408.509V97.5777H409.114V96.4178H410.568V97.5777H411.172V96.4178H412.626V97.5777H413.231V96.4178H414.685V97.5777H415.289V96.4178H416.743V97.5777H417.348V96.4178H418.802V97.5777H419.406V96.4178H420.86V97.5777H421.465V96.4178H422.919V97.5777H423.523V96.4178H424.969V97.5777H425.026H425.582H425.631V96.4178H427.085V97.5777H427.689V96.4178H429.144V97.5777H429.748V96.4178H431.202V97.5777H431.807V96.4178H433.261V97.5777H433.865V96.4178H435.319V97.5777H435.924V96.4178H437.378V97.5777H437.982V96.4178H439.436V97.5777H440.041V96.4178H441.487V97.5777H442.099V96.4178H443.545V97.5777H444.15V96.4178H445.604V97.5777H446.208V96.4178H447.662V97.5777H448.267V96.4178H449.721V97.5777H450.325V96.4178H451.779V97.5777H452.384V96.4178H453.838V97.5777H454.442V96.4178H455.896V97.5777H456.501V96.4178H457.955V97.5777H458.559V96.4178H460.013V97.5777H460.618V96.4178H462.072V97.5777H462.676V96.4178H464.122V97.5777H464.735V96.4178H466.181V97.5777H466.785V96.4178H468.239V97.5777H468.844V96.4178V95.9848H468.239H466.785H466.467L464.572 90.3892V49.97H463.755V90.4137H463.428V49.97H462.685H461.909V90.3892H461.582V49.97H460.789V90.3892L458.902 95.9848H458.559H457.955H456.501H455.896H454.442H453.838H452.384H451.779H450.325H449.721H448.267H447.662H446.208H445.604H444.15H443.545H442.099H441.487H440.041H439.436H437.982H437.378H435.924H435.319H433.865H433.261H431.807H431.202H429.748H429.144H427.689H427.085H425.631H425.582H425.517H425.092H425.026H424.969H423.523H422.919H421.465H420.86H419.406H418.802H417.348H416.743H415.289H414.685H413.231H412.626H411.172H410.568H409.114H408.509H407.055H406.451H404.997H404.392H402.946H402.334H400.888H400.283H398.829H398.225H396.771H396.166H394.712H394.108H392.654H392.049H391.706L389.819 90.3892V49.97H389.018V90.3892H388.7V49.97H387.924H387.18V90.4137H386.854V49.97H386.029V90.3892L384.142 95.9848H383.815H382.369H381.756V96.4178V97.5777H382.369V96.4178H383.815Z" fill="#443087" fill-opacity="0.05"/>
<path d="M425.632 95.6273H427.168V79.4449L426.53 77.2965L425.632 77.9337V95.6273Z" fill="#443087" fill-opacity="0.05"/>
<path d="M427.691 95.6268H429.227V81.021L428.589 78.8644L427.691 79.5097V95.6268Z" fill="#443087" fill-opacity="0.05"/>
<path d="M429.748 95.6262H431.284V82.5888L430.647 80.4404L429.748 81.0776V95.6262Z" fill="#443087" fill-opacity="0.05"/>
<path d="M431.807 95.6257H433.335V84.1567L432.706 82.0083L431.807 82.6455V95.6257Z" fill="#443087" fill-opacity="0.05"/>
<path d="M433.859 95.6266H435.395V85.7342L434.758 83.5776L433.859 84.223V95.6266Z" fill="#443087" fill-opacity="0.05"/>
<path d="M435.916 95.6261H437.451V87.3021L436.814 85.1455L435.916 85.7908V95.6261Z" fill="#443087" fill-opacity="0.05"/>
<path d="M437.975 95.6254H439.51V88.8698L438.873 86.7214L437.975 87.3586V95.6254Z" fill="#443087" fill-opacity="0.05"/>
<path d="M440.025 95.6264H441.561V90.4473L440.932 88.2908L440.025 88.9279V95.6264Z" fill="#443087" fill-opacity="0.05"/>
<path d="M442.083 95.6258H443.619V92.0152L442.982 89.8586L442.083 90.504V95.6258Z" fill="#443087" fill-opacity="0.05"/>
<path d="M444.142 95.6266H445.678V93.5844L445.041 91.436L444.142 92.0732V95.6266Z" fill="#443087" fill-opacity="0.05"/>
<path d="M446.201 95.6261H447.728V95.1605L447.099 93.0039L446.201 93.6411V95.6261Z" fill="#443087" fill-opacity="0.05"/>
<path d="M455.791 95.6263L425.337 69.6169V69.5679L425.305 69.5924L425.272 69.5679V69.6169L394.819 95.6263H398.822L425.305 75.4494L451.788 95.6263H455.791Z" fill="#443087" fill-opacity="0.05"/>
<path d="M456.517 95.6264H458.167L430.368 71.6428L428.326 71.3324L456.517 95.6264Z" fill="#443087" fill-opacity="0.05"/>
<path d="M449.011 78.4971L431.652 71.9866L453.855 91.4365L449.011 78.4971Z" fill="#443087" fill-opacity="0.05"/>
<path d="M425.583 69.046L427.805 70.8431H428.508L427.805 65.5089H426.891L425.583 69.046Z" fill="#443087" fill-opacity="0.05"/>
<path d="M464.597 49.4071L462.685 31.5093L460.774 49.4071C460.774 49.4071 464.025 49.3254 464.597 49.4071V49.4071Z" fill="#443087" fill-opacity="0.05"/>
<path d="M452.939 60.5584L451.518 47.2515L450.097 60.5584C450.097 60.5584 452.515 60.5013 452.939 60.5584Z" fill="#443087" fill-opacity="0.05"/>
<path d="M450.939 60.983V81.1763L452.067 84.2151V60.983H451.519H450.939Z" fill="#443087" fill-opacity="0.05"/>
<path d="M452.925 86.5187V60.983H452.312V84.8686L452.925 86.5187Z" fill="#443087" fill-opacity="0.05"/>
<path d="M450.701 80.5228V60.983H450.104V78.9299L450.701 80.5228Z" fill="#443087" fill-opacity="0.05"/>
<path d="M468.241 101.729V97.5793H466.787V101.729H466.182V97.5793H464.736V101.729H464.124V97.5793H462.678V101.729H462.073V97.5793H460.619V101.729H460.015V97.5793H458.561V101.729H457.956V97.5793H456.502V101.729H455.898V97.5793H454.444V101.729H453.839V97.5793H452.385V101.729H451.781V97.5793H450.327V101.729H449.722V97.5793H448.268V101.729H447.664V97.5793H446.209V101.729H445.605V97.5793H444.151V101.729H443.546V97.5793H442.101V101.729H441.488V97.5793H440.042V101.729H439.438V97.5793H437.984V101.729H437.379V97.5793H435.925V101.729H435.32V97.5793H433.866V101.729H433.262V97.5793H431.808V101.729H431.203V97.5793H429.749V101.729H429.145V97.5793H427.691V101.729H427.086V97.5793H425.632V101.729H424.971V97.5793H423.525V101.729H422.92V97.5793H421.466V101.729H420.862V97.5793H419.408V101.729H418.803V97.5793H417.349V101.729H416.745V97.5793H415.291V101.729H414.686V97.5793H413.232V101.729H412.628V97.5793H411.174V101.729H410.569V97.5793H409.115V101.729H408.511V97.5793H407.056V101.729H406.452V97.5793H404.998V101.729H404.393V97.5793H402.948V101.729H402.335V97.5793H400.889V101.729H400.285V97.5793H398.83V101.729H398.226V97.5793H396.772V101.729H396.167V97.5793H394.713V101.729H394.109V97.5793H392.655V101.729H392.05V97.5793H390.596V101.729H389.992V97.5793H388.538V101.729H387.933V97.5793H386.479V101.729H385.875V97.5793H384.421V101.729H383.816V97.5793H382.37V101.729H380.843V104.899H469.458V101.729H468.241Z" fill="#443087" fill-opacity="0.05"/>
<path d="M297.734 72.2116H297.261V70.9052H297.734V70.4217H297.477V69.8558C297.477 69.8558 296.746 68.6317 295.646 68.6831C295.646 68.6831 295.677 67.3252 295.45 67.1709C295.214 67.3252 295.255 68.6831 295.255 68.6831C294.154 68.6317 293.424 69.8558 293.424 69.8558V70.4217H293.167V70.9052H293.64V72.2116H293.167L294.051 74.3308H293.989V104.915H296.921V74.3308H296.86L297.744 72.2116H297.734ZM295.039 72.2116H294.216V70.9052H295.039V72.2116ZM296.664 72.2116H295.841V70.9052H296.664V72.2116Z" fill="#443087" fill-opacity="0.05"/>
<path d="M271.438 82.1387V83.867C271.664 83.8875 271.88 83.9904 272.096 84.1756C272.282 84.3402 272.518 84.5665 272.693 84.8545C272.868 84.5562 273.115 84.3299 273.341 84.1242C273.547 83.9493 273.763 83.8567 273.999 83.8567C274.257 83.8567 274.493 83.9595 274.74 84.1756C274.925 84.3402 275.162 84.5665 275.337 84.8545C275.512 84.5562 275.759 84.3299 275.985 84.1242C276.191 83.9493 276.407 83.8567 276.643 83.8567C276.9 83.8567 277.137 83.9595 277.384 84.1756C277.569 84.3402 277.806 84.5665 277.981 84.8545C278.156 84.5562 278.402 84.3299 278.629 84.1242C278.834 83.9493 279.05 83.8567 279.287 83.8567C279.544 83.8567 279.781 83.9595 280.028 84.1756C280.213 84.3402 280.45 84.5665 280.624 84.8545C280.799 84.5562 281.046 84.3299 281.273 84.1242C281.478 83.9493 281.694 83.8567 281.931 83.8567C282.188 83.8567 282.425 83.9595 282.672 84.1756C282.857 84.3402 283.093 84.5665 283.268 84.8545C283.443 84.5562 283.69 84.3299 283.916 84.1242C284.122 83.9493 284.338 83.8567 284.575 83.8567C284.832 83.8567 285.069 83.9595 285.315 84.1756C285.501 84.3402 285.737 84.5665 285.912 84.8545C286.087 84.5562 286.334 84.3299 286.56 84.1242C286.766 83.9493 286.982 83.8567 287.219 83.8567C287.476 83.8567 287.712 83.9595 287.959 84.1756C288.144 84.3402 288.381 84.5665 288.556 84.8545C288.731 84.5562 288.978 84.3299 289.204 84.1242C289.317 84.0316 289.43 83.9595 289.543 83.9184V82.1387C289.543 81.3466 290.089 80.3282 290.181 79.4846C290.428 77.2214 290.181 75.1228 288.854 73.2094C288.227 72.3041 287.424 71.512 286.529 70.8845C286.066 70.5656 285.583 70.2776 285.069 70.0307C284.739 69.8764 284.06 69.7426 283.824 69.5369L283.69 69.0122L280.84 67.2017L280.727 66.7593H281.19V66.317H280.727V65.9055C280.727 65.9055 281.519 65.8335 281.561 64.8871C281.561 64.8871 281.602 64.0538 280.666 63.848V63.2617H281.118L280.985 62.8605H280.645V62.2741C280.645 62.2741 281.057 62.3564 281.087 61.7392C281.087 61.7392 281.098 61.2557 280.624 61.2557V60.6384H281.036L280.923 60.4018H280.624L280.604 59.9286L280.882 59.7332C280.882 59.7332 281.077 59.6406 281.015 59.2805C281.015 59.2291 280.995 59.1674 280.974 59.1057L280.491 57.1305L280.007 59.1057C279.987 59.1674 279.976 59.2188 279.966 59.2805C279.904 59.6406 280.1 59.7332 280.1 59.7332L280.378 59.9286L280.357 60.4018H280.059L279.945 60.6384H280.357V61.2557C279.873 61.2557 279.894 61.7392 279.894 61.7392C279.925 62.3564 280.336 62.2741 280.336 62.2741V62.8605H279.997L279.863 63.2617H280.316V63.848C279.38 64.0538 279.421 64.8871 279.421 64.8871C279.462 65.8335 280.254 65.9055 280.254 65.9055V66.317H279.791V66.7593H280.254L280.141 67.2017L277.291 69.0122L277.158 69.5369C276.921 69.7529 276.242 69.8764 275.913 70.0307C275.409 70.2776 274.915 70.5553 274.452 70.8845C273.547 71.5223 272.755 72.3041 272.127 73.2094C270.81 75.1228 270.553 77.2317 270.8 79.4846C270.893 80.3282 271.438 81.3466 271.438 82.1387V82.1387ZM284.225 69.9381C284.801 69.9998 285.336 70.4833 285.336 70.4833H284.225V69.9381ZM283.412 69.8764H283.885V70.5347H283.412V69.8764ZM282.754 69.8764H283.227V70.5347H282.754V69.8764ZM282.096 69.8764H282.569V70.5347H282.096V69.8764ZM281.437 69.8764H281.91V70.5347H281.437V69.8764ZM280.779 69.8764H281.252V70.5347H280.779V69.8764ZM280.398 69.8764H280.604V70.5347H280.398V69.8764ZM279.74 69.8764H280.213V70.5347H279.74V69.8764ZM279.081 69.8764H279.555V70.5347H279.081V69.8764ZM278.423 69.8764H278.896V70.5347H278.423V69.8764ZM277.765 69.8764H278.238V70.5347H277.765V69.8764ZM277.106 69.8764H277.579V70.5347H277.106V69.8764ZM276.767 69.9381V70.4833H275.656C275.656 70.4833 276.191 69.9998 276.767 69.9381Z" fill="#443087" fill-opacity="0.05"/>
<path d="M297.952 69.5782C298.003 69.6605 298.034 69.7633 298.034 69.8559V69.9588C298.188 70.0514 298.291 70.2263 298.291 70.4217V70.9052C298.291 71.183 298.085 71.4196 297.818 71.4504V71.6665C297.972 71.687 298.116 71.7693 298.209 71.9031C298.312 72.0574 298.332 72.2528 298.26 72.4174L297.479 74.2897C297.479 74.2897 297.479 74.3103 297.479 74.3206V74.4646L297.52 74.7321V76.4912C297.592 76.4192 297.664 76.3471 297.746 76.2854C297.952 76.1105 298.168 76.018 298.404 76.018C298.662 76.018 298.898 76.1208 299.145 76.3369C299.33 76.5015 299.567 76.7278 299.742 77.0158C299.917 76.7175 300.164 76.4912 300.39 76.2854C300.596 76.1105 300.812 76.018 301.048 76.018C301.305 76.018 301.542 76.1208 301.789 76.3369C301.974 76.5015 302.211 76.7278 302.386 77.0158C302.56 76.7175 302.807 76.4912 303.034 76.2854C303.239 76.1105 303.455 76.018 303.692 76.018C303.949 76.018 304.186 76.1208 304.433 76.3369C304.618 76.5015 304.854 76.7278 305.029 77.0158C305.204 76.7175 305.451 76.4912 305.677 76.2854C305.883 76.1105 306.099 76.018 306.336 76.018C306.593 76.018 306.83 76.1208 307.077 76.3369C307.262 76.5015 307.498 76.7278 307.673 77.0158C307.848 76.7175 308.095 76.4912 308.321 76.2854C308.486 76.1414 308.671 76.0488 308.866 76.0282C309.062 76.0488 309.247 76.1414 309.412 76.2854C309.648 76.4912 309.885 76.7278 310.06 77.0158C310.235 76.7278 310.461 76.5015 310.656 76.3369C310.893 76.1208 311.14 76.018 311.397 76.018C311.634 76.018 311.86 76.1105 312.056 76.2854C312.292 76.4912 312.529 76.7278 312.704 77.0158C312.879 76.7278 313.105 76.5015 313.3 76.3369C313.537 76.1208 313.784 76.018 314.041 76.018C314.278 76.018 314.504 76.1105 314.699 76.2854C314.936 76.4912 315.173 76.7278 315.347 77.0158C315.522 76.7278 315.749 76.5015 315.944 76.3369C316.181 76.1208 316.428 76.018 316.685 76.018C316.921 76.018 317.148 76.1105 317.343 76.2854C317.58 76.4912 317.816 76.7278 317.991 77.0158C318.166 76.7278 318.392 76.5015 318.588 76.3369C318.825 76.1208 319.071 76.018 319.329 76.018C319.565 76.018 319.791 76.1105 319.987 76.2854C320.059 76.3471 320.131 76.4192 320.213 76.4912V74.7321L320.254 74.4646V74.3206C320.254 74.3206 320.254 74.3 320.254 74.2897L319.473 72.4174C319.401 72.2426 319.421 72.0574 319.524 71.9031C319.617 71.7693 319.75 71.687 319.915 71.6665V71.4504C319.647 71.4196 319.442 71.183 319.442 70.9052V70.4217C319.442 70.2263 319.545 70.0514 319.699 69.9588V69.8559C319.699 69.753 319.73 69.6605 319.781 69.5782C319.802 69.537 320.254 68.8066 321.016 68.4054C320.635 67.4487 319.689 65.3707 318.218 64.0745C318.218 64.0745 316.222 61.7393 313.064 60.7106L312.889 60.0625L309.319 57.7993L309.185 57.2541H309.772V56.7089H309.185V56.1945C309.185 56.1945 310.183 56.1122 310.235 54.9189C310.235 54.9189 310.286 53.8696 309.113 53.6124V52.8717H309.679L309.504 52.3779H309.072V51.6373C309.072 51.6373 309.587 51.7401 309.617 50.9686C309.617 50.9686 309.638 50.3719 309.031 50.3719V49.6004H309.545L309.412 49.3021H309.031L309.011 48.7054L309.35 48.4688C309.35 48.4688 309.597 48.3556 309.525 47.903C309.515 47.8413 309.494 47.7693 309.473 47.687L308.866 45.2078L308.26 47.687C308.239 47.7693 308.218 47.831 308.208 47.903C308.136 48.3556 308.383 48.4688 308.383 48.4688L308.722 48.7054L308.702 49.3021H308.321L308.188 49.6004H308.702V50.3719C308.105 50.3719 308.116 50.9686 308.116 50.9686C308.146 51.7401 308.661 51.6373 308.661 51.6373V52.3779H308.229L308.054 52.8717H308.62V53.6124C307.447 53.8696 307.498 54.9189 307.498 54.9189C307.55 56.1019 308.548 56.1945 308.548 56.1945V56.7089H307.961V57.2541H308.548L308.414 57.7993L304.844 60.0625L304.669 60.7106C301.511 61.7393 299.515 64.0745 299.515 64.0745C298.044 65.3707 297.108 67.4384 296.717 68.4054C297.479 68.8066 297.921 69.537 297.952 69.5782V69.5782ZM313.527 61.225C314.247 61.3073 314.926 61.9142 314.926 61.9142H313.527V61.225ZM312.508 61.1426H313.105V61.9656H312.508V61.1426ZM311.685 61.1426H312.282V61.9656H311.685V61.1426ZM310.862 61.1426H311.459V61.9656H310.862V61.1426ZM310.039 61.1426H310.636V61.9656H310.039V61.1426ZM309.216 61.1426H309.813V61.9656H309.216V61.1426ZM308.733 61.1426H308.98V61.9656H308.733V61.1426ZM307.91 61.1426H308.506V61.9656H307.91V61.1426ZM307.087 61.1426H307.683V61.9656H307.087V61.1426ZM306.264 61.1426H306.86V61.9656H306.264V61.1426ZM305.441 61.1426H306.037V61.9656H305.441V61.1426ZM304.618 61.1426H305.215V61.9656H304.618V61.1426ZM304.196 61.225V61.9142H302.797C302.797 61.9142 303.476 61.3073 304.196 61.225Z" fill="#443087" fill-opacity="0.05"/>
<path d="M254.876 72.2125L254.599 71.8627V71.194C254.599 70.8957 254.804 70.5151 254.835 70.1962C254.928 69.3526 254.835 68.5605 254.341 67.8404C254.105 67.5009 253.807 67.2026 253.467 66.966C253.292 66.8425 253.107 66.7397 252.922 66.6471C252.881 66.6265 252.829 66.6059 252.778 66.5956C252.665 66.5339 252.551 66.4825 252.449 66.4413C252.438 66.3899 252.397 66.2664 252.397 66.2664L251.327 65.5875L251.286 65.4229H251.461V65.2583H251.286V65.104C251.286 65.104 251.584 65.0731 251.605 64.7234C251.605 64.7234 251.615 64.4045 251.266 64.3324V64.1061H251.44L251.389 63.9518H251.255V63.7255C251.255 63.7255 251.41 63.7564 251.42 63.5198C251.42 63.5198 251.42 63.3346 251.245 63.3346V63.098H251.399L251.358 63.0054H251.245V62.8305L251.338 62.7585C251.338 62.7585 251.41 62.7276 251.389 62.5939C251.389 62.5733 251.389 62.5528 251.368 62.5322L251.183 61.7915L250.998 62.5322C250.998 62.5322 250.988 62.5733 250.978 62.5939C250.957 62.7276 251.029 62.7585 251.029 62.7585L251.132 62.8305V63.0054H251.008L250.967 63.098H251.122V63.3346C250.936 63.3346 250.947 63.5198 250.947 63.5198C250.957 63.7564 251.111 63.7255 251.111 63.7255V63.9518H250.978L250.926 64.1061H251.101V64.3324C250.751 64.4147 250.762 64.7234 250.762 64.7234C250.782 65.0834 251.08 65.104 251.08 65.104V65.2583H250.906V65.4229H251.08L251.039 65.5875L249.969 66.2664L249.918 66.4619C249.825 66.5442 249.578 66.5853 249.455 66.6471C249.26 66.7397 249.085 66.8425 248.91 66.966C248.57 67.2026 248.272 67.5009 248.035 67.8404C247.542 68.5605 247.449 69.3526 247.542 70.1962C247.572 70.5151 247.778 70.8957 247.778 71.194V71.8421L247.356 72.2125V72.7268H254.856V72.2125H254.876Z" fill="#443087" fill-opacity="0.05"/>
<path d="M253.868 75.9257V72.9424H248.488V75.9257H248.9V74.1357C248.931 73.179 249.527 73.3848 249.527 73.3848C249.527 73.3848 250.124 73.179 250.155 74.1357V75.9257H250.566V74.1357C250.597 73.179 251.194 73.3848 251.194 73.3848C251.194 73.3848 251.79 73.179 251.821 74.1357V75.9257H252.233V74.1357C252.264 73.179 252.86 73.3848 252.86 73.3848C252.86 73.3848 253.457 73.179 253.488 74.1357V75.9257H253.899H253.868Z" fill="#443087" fill-opacity="0.05"/>
<path d="M253.695 77.9718H253.726L254.724 76.2642H247.79L248.685 77.9718V81.6238H248.171V105.14H254.178V81.6238H253.695V77.9718Z" fill="#443087" fill-opacity="0.05"/>
<path d="M269.341 78.6408L269.063 78.291V77.6224C269.063 77.324 269.269 76.9434 269.3 76.6245C269.393 75.781 269.3 74.9888 268.806 74.2687C268.57 73.9293 268.271 73.6309 267.932 73.3943C267.757 73.2709 267.572 73.168 267.387 73.0754C267.346 73.0548 267.294 73.0343 267.243 73.024C267.129 72.9623 267.016 72.9108 266.913 72.8697C266.903 72.8183 266.862 72.6948 266.862 72.6948L265.792 72.0158L265.751 71.8512H265.926V71.6866H265.751V71.5323C265.751 71.5323 266.049 71.5015 266.07 71.1517C266.07 71.1517 266.09 70.8328 265.73 70.7608V70.5345H265.905L265.854 70.3802H265.72V70.1538C265.72 70.1538 265.874 70.1847 265.885 69.9481C265.885 69.9481 265.885 69.7629 265.71 69.7629V69.5263H265.864L265.823 69.4338H265.71V69.2589L265.802 69.1868C265.802 69.1868 265.874 69.156 265.854 69.0222C265.854 69.0017 265.854 68.9811 265.833 68.9605L265.648 68.2198L265.463 68.9605C265.463 68.9605 265.453 69.0017 265.442 69.0222C265.422 69.156 265.494 69.1868 265.494 69.1868L265.597 69.2589V69.4338H265.473L265.432 69.5263H265.586V69.7629C265.401 69.7629 265.412 69.9481 265.412 69.9481C265.412 70.1847 265.576 70.1538 265.576 70.1538V70.3802H265.442L265.391 70.5345H265.566V70.7608C265.216 70.8431 265.226 71.1517 265.226 71.1517C265.247 71.5118 265.545 71.5323 265.545 71.5323V71.6866H265.37V71.8512H265.545L265.504 72.0158L264.434 72.6948L264.383 72.8903C264.29 72.9725 264.043 73.0137 263.92 73.0754C263.724 73.168 263.55 73.2709 263.375 73.3943C263.035 73.6309 262.737 73.9293 262.5 74.2687C262.006 74.9888 261.914 75.781 262.006 76.6245C262.037 76.9434 262.243 77.324 262.243 77.6224V78.2705L261.821 78.6408V79.1552H269.321V78.6408H269.341Z" fill="#443087" fill-opacity="0.05"/>
<path d="M268.343 82.3445V79.3612H262.962V82.3445H263.374V80.5545C263.405 79.5978 264.001 79.8035 264.001 79.8035C264.001 79.8035 264.598 79.5978 264.629 80.5545V82.3445H265.04V80.5545C265.071 79.5978 265.668 79.8035 265.668 79.8035C265.668 79.8035 266.265 79.5978 266.295 80.5545V82.3445H266.707V80.5545C266.738 79.5978 267.334 79.8035 267.334 79.8035C267.334 79.8035 267.931 79.5978 267.962 80.5545V82.3445H268.373H268.343Z" fill="#443087" fill-opacity="0.05"/>
<path d="M324.542 72.2116H324.068V70.9052H324.542V70.4217H324.284V69.8558C324.284 69.8558 323.554 68.6317 322.453 68.6831C322.453 68.6831 322.484 67.3252 322.258 67.1709C322.021 67.3252 322.062 68.6831 322.062 68.6831C320.962 68.6317 320.231 69.8558 320.231 69.8558V70.4217H319.974V70.9052H320.447V72.2116H319.974L320.859 74.3308H320.797V104.915H323.729V74.3308H323.667L324.552 72.2116H324.542ZM321.846 72.2116H321.023V70.9052H321.846V72.2116ZM323.472 72.2116H322.649V70.9052H323.472V72.2116Z" fill="#443087" fill-opacity="0.05"/>
<path d="M327.874 82.1387V83.9184C327.998 83.9595 328.111 84.0316 328.214 84.1242C328.451 84.3299 328.687 84.5665 328.862 84.8545C329.037 84.5665 329.263 84.3402 329.459 84.1756C329.695 83.9595 329.942 83.8567 330.199 83.8567C330.436 83.8567 330.662 83.9493 330.858 84.1242C331.094 84.3299 331.331 84.5665 331.506 84.8545C331.681 84.5665 331.907 84.3402 332.103 84.1756C332.339 83.9595 332.586 83.8567 332.843 83.8567C333.08 83.8567 333.306 83.9493 333.502 84.1242C333.738 84.3299 333.975 84.5665 334.15 84.8545C334.325 84.5665 334.551 84.3402 334.746 84.1756C334.983 83.9595 335.23 83.8567 335.487 83.8567C335.724 83.8567 335.95 83.9493 336.145 84.1242C336.382 84.3299 336.619 84.5665 336.794 84.8545C336.968 84.5665 337.195 84.3402 337.39 84.1756C337.627 83.9595 337.874 83.8567 338.131 83.8567C338.367 83.8567 338.594 83.9493 338.789 84.1242C339.026 84.3299 339.262 84.5665 339.437 84.8545C339.612 84.5665 339.839 84.3402 340.034 84.1756C340.271 83.9595 340.517 83.8567 340.775 83.8567C341.011 83.8567 341.238 83.9493 341.433 84.1242C341.67 84.3299 341.906 84.5665 342.081 84.8545C342.256 84.5665 342.482 84.3402 342.678 84.1756C342.914 83.9595 343.161 83.8567 343.418 83.8567C343.655 83.8567 343.881 83.9493 344.077 84.1242C344.313 84.3299 344.55 84.5665 344.725 84.8545C344.9 84.5665 345.126 84.3402 345.322 84.1756C345.538 83.9801 345.754 83.8773 345.98 83.867V82.1387C345.98 81.3466 346.525 80.3282 346.618 79.4846C346.865 77.2214 346.618 75.1228 345.291 73.2094C344.663 72.3041 343.861 71.512 342.966 70.8845C342.503 70.5656 342.019 70.2776 341.505 70.0307C341.176 69.8764 340.497 69.7426 340.26 69.5369L340.127 69.0122L337.277 67.2017L337.164 66.7593H337.627V66.317H337.164V65.9055C337.164 65.9055 337.956 65.8335 337.997 64.8871C337.997 64.8871 338.038 64.0538 337.102 63.848V63.2617H337.555L337.421 62.8605H337.082V62.2741C337.082 62.2741 337.493 62.3564 337.524 61.7392C337.524 61.7392 337.534 61.2557 337.061 61.2557V60.6384H337.472L337.359 60.4018H337.061L337.04 59.9286L337.318 59.7332C337.318 59.7332 337.514 59.6406 337.452 59.2805C337.452 59.2291 337.431 59.1674 337.411 59.1057L336.927 57.1305L336.444 59.1057C336.423 59.1674 336.413 59.2188 336.403 59.2805C336.341 59.6406 336.536 59.7332 336.536 59.7332L336.814 59.9286L336.794 60.4018H336.495L336.382 60.6384H336.794V61.2557C336.31 61.2557 336.331 61.7392 336.331 61.7392C336.361 62.3564 336.773 62.2741 336.773 62.2741V62.8605H336.433L336.3 63.2617H336.752V63.848C335.816 64.0538 335.857 64.8871 335.857 64.8871C335.899 65.8335 336.691 65.9055 336.691 65.9055V66.317H336.228V66.7593H336.691L336.577 67.2017L333.728 69.0122L333.594 69.5369C333.358 69.7529 332.679 69.8764 332.349 70.0307C331.845 70.2776 331.352 70.5553 330.889 70.8845C329.983 71.5223 329.191 72.3041 328.564 73.2094C327.247 75.1228 326.99 77.2317 327.237 79.4846C327.329 80.3282 327.874 81.3466 327.874 82.1387V82.1387ZM340.661 69.9381C341.238 69.9998 341.773 70.4833 341.773 70.4833H340.661V69.9381ZM339.849 69.8764H340.322V70.5347H339.849V69.8764ZM339.19 69.8764H339.664V70.5347H339.19V69.8764ZM338.532 69.8764H339.005V70.5347H338.532V69.8764ZM337.874 69.8764H338.347V70.5347H337.874V69.8764ZM337.215 69.8764H337.688V70.5347H337.215V69.8764ZM336.835 69.8764H337.04V70.5347H336.835V69.8764ZM336.176 69.8764H336.649V70.5347H336.176V69.8764ZM335.518 69.8764H335.991V70.5347H335.518V69.8764ZM334.86 69.8764H335.333V70.5347H334.86V69.8764ZM334.201 69.8764H334.674V70.5347H334.201V69.8764ZM333.543 69.8764H334.016V70.5347H333.543V69.8764ZM333.203 69.9381V70.4833H332.092C332.092 70.4833 332.627 69.9998 333.203 69.9381Z" fill="#443087" fill-opacity="0.05"/>
<path d="M320.149 78.0751C320.324 77.8591 320.335 77.6327 320.191 77.3756C320.047 77.1081 319.83 76.9024 319.604 76.7069C319.368 76.5012 319.162 76.5526 318.936 76.7584C318.73 76.9435 318.534 77.139 318.411 77.3756C318.277 77.6225 318.277 77.8488 318.452 78.0751C318.452 78.0751 318.73 78.4249 318.606 78.7746H317.331C317.207 78.4249 317.485 78.0751 317.485 78.0751C317.66 77.8591 317.67 77.6327 317.526 77.3756C317.382 77.1081 317.166 76.9024 316.94 76.7069C316.703 76.5012 316.497 76.5526 316.271 76.7584C316.065 76.9435 315.87 77.139 315.746 77.3756C315.613 77.6225 315.613 77.8488 315.788 78.0751C315.788 78.0751 316.065 78.4249 315.942 78.7746H314.666C314.543 78.4249 314.821 78.0751 314.821 78.0751C314.996 77.8591 315.006 77.6327 314.862 77.3756C314.718 77.1081 314.502 76.9024 314.275 76.7069C314.039 76.5012 313.833 76.5526 313.607 76.7584C313.401 76.9435 313.206 77.139 313.082 77.3756C312.948 77.6225 312.948 77.8488 313.123 78.0751C313.123 78.0751 313.401 78.4249 313.278 78.7746H312.002C311.878 78.4249 312.156 78.0751 312.156 78.0751C312.331 77.8591 312.341 77.6327 312.197 77.3756C312.053 77.1081 311.837 76.9024 311.611 76.7069C311.374 76.5012 311.169 76.5526 310.942 76.7584C310.737 76.9435 310.541 77.139 310.418 77.3756C310.284 77.6225 310.284 77.8488 310.459 78.0751C310.459 78.0751 310.737 78.4249 310.613 78.7746H309.338C309.214 78.4249 309.492 78.0751 309.492 78.0751C309.667 77.8591 309.677 77.6327 309.533 77.3756C309.389 77.1081 309.173 76.9024 308.947 76.7069C308.885 76.6555 308.823 76.6143 308.761 76.5938C308.7 76.6143 308.638 76.6452 308.576 76.7069C308.35 76.9024 308.134 77.1081 307.99 77.3756C307.856 77.6225 307.856 77.8488 308.031 78.0751C308.031 78.0751 308.309 78.4249 308.185 78.7746H306.91C306.786 78.4249 307.064 78.0751 307.064 78.0751C307.239 77.8591 307.249 77.6327 307.105 77.3756C306.971 77.139 306.776 76.9332 306.581 76.7584C306.354 76.5526 306.149 76.5012 305.912 76.7069C305.686 76.9024 305.47 77.1081 305.326 77.3756C305.192 77.6225 305.192 77.8488 305.367 78.0751C305.367 78.0751 305.644 78.4249 305.521 78.7746H304.245C304.122 78.4249 304.4 78.0751 304.4 78.0751C304.575 77.8591 304.585 77.6327 304.441 77.3756C304.307 77.139 304.112 76.9332 303.916 76.7584C303.69 76.5526 303.484 76.5012 303.248 76.7069C303.021 76.9024 302.805 77.1081 302.661 77.3756C302.527 77.6225 302.527 77.8488 302.702 78.0751C302.702 78.0751 302.98 78.4249 302.857 78.7746H301.581C301.458 78.4249 301.735 78.0751 301.735 78.0751C301.91 77.8591 301.92 77.6327 301.776 77.3756C301.643 77.139 301.447 76.9332 301.252 76.7584C301.025 76.5526 300.82 76.5012 300.583 76.7069C300.357 76.9024 300.141 77.1081 299.997 77.3756C299.863 77.6225 299.863 77.8488 300.038 78.0751C300.038 78.0751 300.316 78.4249 300.192 78.7746H298.917C298.793 78.4249 299.071 78.0751 299.071 78.0751C299.246 77.8591 299.256 77.6327 299.112 77.3756C298.978 77.139 298.783 76.9332 298.587 76.7584C298.361 76.5526 298.155 76.5012 297.919 76.7069C297.692 76.9024 297.476 77.1081 297.332 77.3756C297.199 77.6225 297.199 77.8488 297.374 78.0751C297.374 78.0751 297.651 78.4249 297.528 78.7746H297.229V100.203H297.322V104.914H301.036V90.2655C301.036 90.2655 300.326 85.091 308.669 82.7146C317.012 85.091 316.302 90.2655 316.302 90.2655V104.914H320.016V100.203H320.108V78.7746H319.81C319.686 78.4249 319.964 78.0751 319.964 78.0751H320.149Z" fill="#443087" fill-opacity="0.05"/>
<path d="M369.897 71.8421V71.194C369.897 70.8957 370.103 70.5151 370.134 70.1962C370.227 69.3526 370.134 68.5605 369.64 67.8404C369.404 67.5009 369.105 67.2026 368.766 66.966C368.591 66.8425 368.406 66.7397 368.221 66.6471C368.097 66.5853 367.84 66.5442 367.758 66.4619L367.706 66.2664L366.636 65.5875L366.595 65.4229H366.77V65.2583H366.595V65.104C366.595 65.104 366.894 65.0731 366.914 64.7234C366.914 64.7234 366.924 64.4045 366.575 64.3324V64.1061H366.75L366.698 63.9518H366.564V63.7255C366.564 63.7255 366.719 63.7564 366.729 63.5198C366.729 63.5198 366.729 63.3346 366.554 63.3346V63.098H366.708L366.667 63.0054H366.554V62.8305L366.647 62.7585C366.647 62.7585 366.719 62.7276 366.698 62.5939C366.698 62.5733 366.698 62.5528 366.678 62.5322L366.492 61.7915L366.307 62.5322C366.307 62.5322 366.297 62.5733 366.287 62.5939C366.266 62.7276 366.338 62.7585 366.338 62.7585L366.441 62.8305V63.0054H366.318L366.276 63.098H366.431V63.3346C366.246 63.3346 366.256 63.5198 366.256 63.5198C366.266 63.7564 366.42 63.7255 366.42 63.7255V63.9518H366.287L366.235 64.1061H366.41V64.3324C366.06 64.4147 366.071 64.7234 366.071 64.7234C366.091 65.0834 366.39 65.104 366.39 65.104V65.2583H366.215V65.4229H366.39L366.348 65.5875L365.279 66.2664C365.279 66.2664 365.248 66.4002 365.227 66.4413C365.124 66.4825 365.011 66.5236 364.898 66.5956C364.846 66.6162 364.785 66.6265 364.754 66.6471C364.558 66.7397 364.384 66.8425 364.209 66.966C363.869 67.2026 363.571 67.5009 363.334 67.8404C362.84 68.5605 362.748 69.3526 362.84 70.1962C362.871 70.5151 363.077 70.8957 363.077 71.194V71.8627L362.799 72.2125V72.7268H370.299V72.2125L369.877 71.8421H369.897Z" fill="#443087" fill-opacity="0.05"/>
<path d="M369.21 75.9257V72.9424H363.83V75.9257H364.241V74.1357C364.272 73.179 364.869 73.3848 364.869 73.3848C364.869 73.3848 365.465 73.179 365.496 74.1357V75.9257H365.908V74.1357C365.938 73.179 366.535 73.3848 366.535 73.3848C366.535 73.3848 367.132 73.179 367.163 74.1357V75.9257H367.574V74.1357C367.605 73.179 368.202 73.3848 368.202 73.3848C368.202 73.3848 368.798 73.179 368.829 74.1357V75.9257H369.241H369.21Z" fill="#443087" fill-opacity="0.05"/>
<path d="M369.908 76.2642H362.975L363.972 77.9718H364.003V81.6238H363.53V105.14H369.538V81.6238H369.023V77.9718L369.908 76.2642Z" fill="#443087" fill-opacity="0.05"/>
<path d="M308.853 83.538C302.064 85.7394 302.177 89.628 302.177 89.628V104.925H306.117V90.7493C306.209 88.7124 308.853 88.2495 308.853 88.2495C308.853 88.2495 311.497 88.7021 311.59 90.7493V104.925H315.53V89.628C315.53 89.628 315.643 85.7394 308.853 83.538Z" fill="#443087" fill-opacity="0.05"/>
<path d="M262.993 84.0838C263.178 83.9295 263.384 83.8575 263.6 83.8575C263.857 83.8575 264.094 83.9604 264.341 84.1764C264.526 84.341 264.762 84.5673 264.937 84.8554C265.112 84.5571 265.359 84.3307 265.585 84.125C265.791 83.9501 266.007 83.8575 266.244 83.8575C266.501 83.8575 266.738 83.9604 266.985 84.1764C267.17 84.341 267.406 84.5673 267.581 84.8554C267.756 84.5571 268.003 84.3307 268.229 84.125C268.301 84.0633 268.373 84.0118 268.445 83.981L269.196 82.6951H262.263L262.993 84.0941V84.0838Z" fill="#443087" fill-opacity="0.05"/>
<path d="M355.887 78.6408L355.465 78.2705V77.6224C355.465 77.324 355.671 76.9434 355.701 76.6245C355.794 75.781 355.701 74.9888 355.208 74.2687C354.971 73.9293 354.673 73.6309 354.333 73.3943C354.158 73.2709 353.973 73.168 353.788 73.0754C353.665 73.0137 353.407 72.9725 353.325 72.8903L353.274 72.6948L352.204 72.0158L352.163 71.8512H352.338V71.6866H352.163V71.5323C352.163 71.5323 352.461 71.5015 352.482 71.1517C352.482 71.1517 352.492 70.8328 352.142 70.7608V70.5345H352.317L352.266 70.3802H352.132V70.1538C352.132 70.1538 352.286 70.1847 352.296 69.9481C352.296 69.9481 352.296 69.7629 352.122 69.7629V69.5263H352.276L352.235 69.4338H352.122V69.2589L352.214 69.1868C352.214 69.1868 352.286 69.156 352.266 69.0222C352.266 69.0017 352.266 68.9811 352.245 68.9605L352.06 68.2198L351.875 68.9605C351.875 68.9605 351.864 69.0017 351.854 69.0222C351.833 69.156 351.905 69.1868 351.905 69.1868L352.008 69.2589V69.4338H351.885L351.844 69.5263H351.998V69.7629C351.813 69.7629 351.823 69.9481 351.823 69.9481C351.833 70.1847 351.988 70.1538 351.988 70.1538V70.3802H351.854L351.803 70.5345H351.977V70.7608C351.628 70.8431 351.638 71.1517 351.638 71.1517C351.659 71.5118 351.957 71.5323 351.957 71.5323V71.6866H351.782V71.8512H351.957L351.916 72.0158L350.846 72.6948C350.846 72.6948 350.815 72.8285 350.794 72.8697C350.692 72.9108 350.578 72.952 350.465 73.024C350.414 73.0446 350.352 73.0548 350.321 73.0754C350.126 73.168 349.951 73.2709 349.776 73.3943C349.437 73.6309 349.138 73.9293 348.902 74.2687C348.408 74.9888 348.315 75.781 348.408 76.6245C348.439 76.9434 348.644 77.324 348.644 77.6224V78.291L348.367 78.6408V79.1552H355.866V78.6408H355.887Z" fill="#443087" fill-opacity="0.05"/>
<path d="M354.775 82.3445V79.3612H352.08H351.453H349.385V82.3445H349.796V80.5545C349.827 79.5978 350.424 79.8035 350.424 79.8035C350.424 79.8035 351.02 79.5978 351.051 80.5545V82.3445H351.463V80.5545C351.494 79.5978 352.09 79.8035 352.09 79.8035C352.09 79.8035 352.687 79.5978 352.718 80.5545V82.3445H353.129V80.5545C353.16 79.5978 353.757 79.8035 353.757 79.8035C353.757 79.8035 354.353 79.5978 354.384 80.5545V82.3445H354.796H354.775Z" fill="#443087" fill-opacity="0.05"/>
<path d="M349.293 83.9806C349.365 84.0218 349.437 84.0732 349.509 84.1247C349.746 84.3304 349.982 84.567 350.157 84.8551C350.332 84.567 350.558 84.3407 350.754 84.1761C350.99 83.9601 351.237 83.8572 351.494 83.8572C351.731 83.8572 351.957 83.9498 352.153 84.1247C352.389 84.3304 352.626 84.567 352.801 84.8551C352.976 84.567 353.202 84.3407 353.398 84.1761C353.634 83.9601 353.881 83.8572 354.138 83.8572C354.354 83.8572 354.56 83.9395 354.745 84.0835L355.476 82.6844H348.542L349.293 83.9703V83.9806Z" fill="#443087" fill-opacity="0.05"/>
<path d="M293.064 84.5873C292.837 84.3816 292.632 84.3301 292.395 84.5359C292.169 84.7313 291.953 84.9371 291.809 85.2046C291.675 85.4514 291.675 85.6778 291.85 85.9041C291.85 85.9041 292.127 86.2538 292.004 86.6036H290.728C290.605 86.2538 290.883 85.9041 290.883 85.9041C291.058 85.688 291.068 85.4617 290.924 85.2046C290.79 84.9679 290.595 84.7622 290.399 84.5873C290.173 84.3816 289.967 84.3301 289.731 84.5359C289.504 84.7313 289.288 84.9371 289.144 85.2046C289.01 85.4514 289.01 85.6778 289.185 85.9041C289.185 85.9041 289.463 86.2538 289.34 86.6036H288.064C287.941 86.2538 288.218 85.9041 288.218 85.9041C288.393 85.688 288.404 85.4617 288.259 85.2046C288.126 84.9679 287.93 84.7622 287.735 84.5873C287.509 84.3816 287.303 84.3301 287.066 84.5359C286.84 84.7313 286.624 84.9371 286.48 85.2046C286.346 85.4514 286.346 85.6778 286.521 85.9041C286.521 85.9041 286.799 86.2538 286.675 86.6036H285.4C285.276 86.2538 285.554 85.9041 285.554 85.9041C285.729 85.688 285.739 85.4617 285.595 85.2046C285.461 84.9679 285.266 84.7622 285.07 84.5873C284.844 84.3816 284.638 84.3301 284.402 84.5359C284.175 84.7313 283.959 84.9371 283.815 85.2046C283.682 85.4514 283.682 85.6778 283.857 85.9041C283.857 85.9041 284.134 86.2538 284.011 86.6036H282.735C282.612 86.2538 282.89 85.9041 282.89 85.9041C283.064 85.688 283.075 85.4617 282.931 85.2046C282.797 84.9679 282.602 84.7622 282.406 84.5873C282.18 84.3816 281.974 84.3301 281.737 84.5359C281.511 84.7313 281.295 84.9371 281.151 85.2046C281.017 85.4514 281.017 85.6778 281.192 85.9041C281.192 85.9041 281.47 86.2538 281.346 86.6036H280.071C279.947 86.2538 280.225 85.9041 280.225 85.9041C280.4 85.688 280.41 85.4617 280.266 85.2046C280.133 84.9679 279.937 84.7622 279.742 84.5873C279.515 84.3816 279.31 84.3301 279.073 84.5359C278.847 84.7313 278.631 84.9371 278.487 85.2046C278.353 85.4514 278.353 85.6778 278.528 85.9041C278.528 85.9041 278.806 86.2538 278.682 86.6036H277.406C277.283 86.2538 277.561 85.9041 277.561 85.9041C277.736 85.688 277.746 85.4617 277.602 85.2046C277.468 84.9679 277.273 84.7622 277.077 84.5873C276.851 84.3816 276.645 84.3301 276.409 84.5359C276.182 84.7313 275.966 84.9371 275.822 85.2046C275.689 85.4514 275.689 85.6778 275.863 85.9041C275.863 85.9041 276.141 86.2538 276.018 86.6036H274.742C274.619 86.2538 274.896 85.9041 274.896 85.9041C275.071 85.688 275.082 85.4617 274.938 85.2046C274.804 84.9679 274.608 84.7622 274.413 84.5873C274.187 84.3816 273.981 84.3301 273.744 84.5359C273.518 84.7313 273.302 84.9371 273.158 85.2046C273.024 85.4514 273.024 85.6778 273.199 85.9041C273.199 85.9041 273.477 86.2538 273.353 86.6036H272.078C271.954 86.2538 272.232 85.9041 272.232 85.9041C272.407 85.688 272.417 85.4617 272.273 85.2046C272.139 84.9679 271.944 84.7622 271.749 84.5873C271.522 84.3816 271.316 84.3301 271.08 84.5359C270.854 84.7313 270.638 84.9371 270.493 85.2046C270.36 85.4514 270.36 85.6778 270.535 85.9041C270.535 85.9041 270.812 86.2538 270.689 86.6036H269.413C269.29 86.2538 269.568 85.9041 269.568 85.9041C269.743 85.688 269.753 85.4617 269.609 85.2046C269.475 84.9679 269.28 84.7622 269.084 84.5873C268.858 84.3816 268.652 84.3301 268.415 84.5359C268.189 84.7313 267.973 84.9371 267.829 85.2046C267.695 85.4514 267.695 85.6778 267.87 85.9041C267.87 85.9041 268.148 86.2538 268.025 86.6036H266.749C266.625 86.2538 266.903 85.9041 266.903 85.9041C267.078 85.688 267.088 85.4617 266.944 85.2046C266.811 84.9679 266.615 84.7622 266.42 84.5873C266.193 84.3816 265.988 84.3301 265.751 84.5359C265.525 84.7313 265.309 84.9371 265.165 85.2046C265.031 85.4514 265.031 85.6778 265.206 85.9041C265.206 85.9041 265.484 86.2538 265.36 86.6036H264.085C263.961 86.2538 264.239 85.9041 264.239 85.9041C264.414 85.688 264.424 85.4617 264.28 85.2046C264.146 84.9679 263.951 84.7622 263.755 84.5873C263.529 84.3816 263.323 84.3301 263.087 84.5359C262.86 84.7313 262.644 84.9371 262.5 85.2046C262.367 85.4514 262.367 85.6778 262.541 85.9041C262.541 85.9041 262.819 86.2538 262.696 86.6036H261.42C261.297 86.2538 261.574 85.9041 261.574 85.9041C261.749 85.688 261.76 85.4617 261.616 85.2046C261.482 84.9679 261.286 84.7622 261.091 84.5873C260.865 84.3816 260.659 84.3301 260.422 84.5359C260.196 84.7313 259.98 84.9371 259.836 85.2046C259.702 85.4514 259.702 85.6778 259.877 85.9041C259.877 85.9041 260.155 86.2538 260.031 86.6036H258.756C258.632 86.2538 258.91 85.9041 258.91 85.9041C259.085 85.688 259.095 85.4617 258.951 85.2046C258.818 84.9679 258.622 84.7622 258.427 84.5873C258.2 84.3816 257.995 84.3301 257.758 84.5359C257.532 84.7313 257.316 84.9371 257.172 85.2046C257.038 85.4514 257.038 85.6778 257.213 85.9041C257.213 85.9041 257.49 86.2538 257.367 86.6036H256.091C255.968 86.2538 256.246 85.9041 256.246 85.9041C256.421 85.688 256.431 85.4617 256.287 85.2046C256.153 84.9679 255.958 84.7622 255.762 84.5873C255.536 84.3816 255.33 84.3301 255.094 84.5359C254.867 84.7313 254.651 84.9371 254.507 85.2046C254.373 85.4514 254.373 85.6778 254.548 85.9041C254.548 85.9041 254.826 86.2538 254.703 86.6036H254.404V105.1H258.108V99.4523C258.108 99.4523 257.902 97.004 260.443 95.7798C262.984 97.004 262.778 99.4523 262.778 99.4523V105.1H264.836V99.4523C264.836 99.4523 264.63 97.004 267.171 95.7798C269.712 97.004 269.506 99.4523 269.506 99.4523V105.1H271.563V99.4523C271.563 99.4523 271.358 97.004 273.899 95.7798C276.439 97.004 276.234 99.4523 276.234 99.4523V105.1H278.291V99.4523C278.291 99.4523 278.085 97.004 280.626 95.7798C283.167 97.004 282.962 99.4523 282.962 99.4523V105.1H285.019V99.4523C285.019 99.4523 284.813 97.004 287.354 95.7798C289.895 97.004 289.689 99.4523 289.689 99.4523V105.1H293.187V86.6036H293.074C292.95 86.2538 293.228 85.9041 293.228 85.9041C293.403 85.688 293.413 85.4617 293.269 85.2046C293.136 84.9679 292.94 84.7622 292.745 84.5873H293.064Z" fill="#443087" fill-opacity="0.05"/>
<path d="M362.87 85.9041C363.045 85.688 363.056 85.4617 362.912 85.2046C362.768 84.9371 362.552 84.7313 362.325 84.5359C362.089 84.3301 361.883 84.3816 361.657 84.5873C361.451 84.7725 361.255 84.9679 361.132 85.2046C360.998 85.4514 360.998 85.6778 361.173 85.9041C361.173 85.9041 361.451 86.2538 361.327 86.6036H360.052C359.928 86.2538 360.206 85.9041 360.206 85.9041C360.381 85.688 360.391 85.4617 360.247 85.2046C360.103 84.9371 359.887 84.7313 359.661 84.5359C359.424 84.3301 359.219 84.3816 358.992 84.5873C358.786 84.7725 358.591 84.9679 358.468 85.2046C358.334 85.4514 358.334 85.6778 358.509 85.9041C358.509 85.9041 358.786 86.2538 358.663 86.6036H357.387C357.264 86.2538 357.542 85.9041 357.542 85.9041C357.717 85.688 357.727 85.4617 357.583 85.2046C357.439 84.9371 357.223 84.7313 356.996 84.5359C356.76 84.3301 356.554 84.3816 356.328 84.5873C356.122 84.7725 355.927 84.9679 355.803 85.2046C355.669 85.4514 355.669 85.6778 355.844 85.9041C355.844 85.9041 356.122 86.2538 355.999 86.6036H354.723C354.6 86.2538 354.877 85.9041 354.877 85.9041C355.052 85.688 355.063 85.4617 354.918 85.2046C354.774 84.9371 354.558 84.7313 354.332 84.5359C354.096 84.3301 353.89 84.3816 353.663 84.5873C353.458 84.7725 353.262 84.9679 353.139 85.2046C353.005 85.4514 353.005 85.6778 353.18 85.9041C353.18 85.9041 353.458 86.2538 353.334 86.6036H352.059C351.935 86.2538 352.213 85.9041 352.213 85.9041C352.388 85.688 352.398 85.4617 352.254 85.2046C352.11 84.9371 351.894 84.7313 351.668 84.5359C351.431 84.3301 351.225 84.3816 350.999 84.5873C350.793 84.7725 350.598 84.9679 350.474 85.2046C350.341 85.4514 350.341 85.6778 350.516 85.9041C350.516 85.9041 350.793 86.2538 350.67 86.6036H349.394C349.271 86.2538 349.549 85.9041 349.549 85.9041C349.723 85.688 349.734 85.4617 349.59 85.2046C349.446 84.9371 349.23 84.7313 349.003 84.5359C348.767 84.3301 348.561 84.3816 348.335 84.5873C348.129 84.7725 347.933 84.9679 347.81 85.2046C347.676 85.4514 347.676 85.6778 347.851 85.9041C347.851 85.9041 348.129 86.2538 348.005 86.6036H346.73C346.606 86.2538 346.884 85.9041 346.884 85.9041C347.059 85.688 347.069 85.4617 346.925 85.2046C346.781 84.9371 346.565 84.7313 346.339 84.5359C346.102 84.3301 345.897 84.3816 345.67 84.5873C345.465 84.7725 345.269 84.9679 345.146 85.2046C345.012 85.4514 345.012 85.6778 345.187 85.9041C345.187 85.9041 345.465 86.2538 345.341 86.6036H344.065C343.942 86.2538 344.22 85.9041 344.22 85.9041C344.395 85.688 344.405 85.4617 344.261 85.2046C344.117 84.9371 343.901 84.7313 343.675 84.5359C343.438 84.3301 343.232 84.3816 343.006 84.5873C342.8 84.7725 342.605 84.9679 342.481 85.2046C342.348 85.4514 342.348 85.6778 342.522 85.9041C342.522 85.9041 342.8 86.2538 342.677 86.6036H341.401C341.278 86.2538 341.555 85.9041 341.555 85.9041C341.73 85.688 341.741 85.4617 341.597 85.2046C341.453 84.9371 341.236 84.7313 341.01 84.5359C340.774 84.3301 340.568 84.3816 340.342 84.5873C340.136 84.7725 339.94 84.9679 339.817 85.2046C339.683 85.4514 339.683 85.6778 339.858 85.9041C339.858 85.9041 340.136 86.2538 340.012 86.6036H338.737C338.613 86.2538 338.891 85.9041 338.891 85.9041C339.066 85.688 339.076 85.4617 338.932 85.2046C338.788 84.9371 338.572 84.7313 338.346 84.5359C338.109 84.3301 337.903 84.3816 337.677 84.5873C337.471 84.7725 337.276 84.9679 337.152 85.2046C337.019 85.4514 337.019 85.6778 337.194 85.9041C337.194 85.9041 337.471 86.2538 337.348 86.6036H336.072C335.949 86.2538 336.227 85.9041 336.227 85.9041C336.402 85.688 336.412 85.4617 336.268 85.2046C336.124 84.9371 335.908 84.7313 335.681 84.5359C335.445 84.3301 335.239 84.3816 335.013 84.5873C334.807 84.7725 334.612 84.9679 334.488 85.2046C334.354 85.4514 334.354 85.6778 334.529 85.9041C334.529 85.9041 334.807 86.2538 334.684 86.6036H333.408C333.284 86.2538 333.562 85.9041 333.562 85.9041C333.737 85.688 333.747 85.4617 333.603 85.2046C333.459 84.9371 333.243 84.7313 333.017 84.5359C332.78 84.3301 332.575 84.3816 332.348 84.5873C332.143 84.7725 331.947 84.9679 331.824 85.2046C331.69 85.4514 331.69 85.6778 331.865 85.9041C331.865 85.9041 332.143 86.2538 332.019 86.6036H330.744C330.62 86.2538 330.898 85.9041 330.898 85.9041C331.073 85.688 331.083 85.4617 330.939 85.2046C330.795 84.9371 330.579 84.7313 330.353 84.5359C330.116 84.3301 329.91 84.3816 329.684 84.5873C329.478 84.7725 329.283 84.9679 329.159 85.2046C329.026 85.4514 329.026 85.6778 329.2 85.9041C329.2 85.9041 329.478 86.2538 329.355 86.6036H328.079C327.956 86.2538 328.233 85.9041 328.233 85.9041C328.408 85.688 328.419 85.4617 328.275 85.2046C328.131 84.9371 327.915 84.7313 327.688 84.5359C327.452 84.3301 327.246 84.3816 327.02 84.5873C326.814 84.7725 326.618 84.9679 326.495 85.2046C326.361 85.4514 326.361 85.6778 326.536 85.9041C326.536 85.9041 326.814 86.2538 326.69 86.6036H325.415C325.291 86.2538 325.569 85.9041 325.569 85.9041C325.744 85.688 325.754 85.4617 325.61 85.2046C325.466 84.9371 325.25 84.7313 325.024 84.5359C324.787 84.3301 324.581 84.3816 324.355 84.5873C324.149 84.7725 323.954 84.9679 323.831 85.2046C323.697 85.4514 323.697 85.6778 323.872 85.9041C323.872 85.9041 324.149 86.2538 324.026 86.6036H323.913V105.1H327.05V99.4523C327.05 99.4523 326.845 97.004 329.447 95.7798C332.05 97.004 331.844 99.4523 331.844 99.4523V105.1H333.953V99.4523C333.953 99.4523 333.747 97.004 336.35 95.7798C338.953 97.004 338.747 99.4523 338.747 99.4523V105.1H340.856V99.4523C340.856 99.4523 340.65 97.004 343.253 95.7798C345.855 97.004 345.65 99.4523 345.65 99.4523V105.1H347.759V99.4523C347.759 99.4523 347.553 97.004 350.156 95.7798C352.758 97.004 352.552 99.4523 352.552 99.4523V105.1H354.661V99.4523C354.661 99.4523 354.456 97.004 357.058 95.7798C359.661 97.004 359.455 99.4523 359.455 99.4523V105.1H362.778V86.6036H362.48C362.356 86.2538 362.634 85.9041 362.634 85.9041H362.87Z" fill="#443087" fill-opacity="0.05"/>
<path d="M71.3521 105.109L68.6157 71.0278V69.3407H66.4554V71.0278H65.6427V69.3407H63.4824V71.0278H62.6697V69.3407H60.5094V71.0278H59.6967V69.3407H57.5364V71.0278H56.7237V69.3407H54.5634V71.0278L54.3782 75.9245H53.2775V74.2374H51.1171V75.9245H50.3045V74.2374H48.1441V75.9245H47.3315V74.2374H45.1711V75.9245H44.3584V74.2374H42.1981V75.9245H41.3854V74.2374H39.2251V75.9245H38.3816V74.2374H36.2213V75.9245H35.9024V66.9437C37.3014 65.627 38.5976 67.2626 39.9144 67.6124C39.9864 67.633 41.0768 67.777 41.0768 67.705V64.4337C40.5419 64.5983 39.1943 63.6621 39.1943 63.6621C37.4969 62.2116 35.9126 63.6621 35.9126 63.6621V63.4358H35.3777V75.9348H35.0691V74.2477H32.9088V75.9348H32.0652V74.2477H29.9049V75.9348H29.0922V74.2477H26.9319V75.9348H26.1192V74.2477H23.9589V75.9348H23.1462V74.2477H20.9859V75.9348H20.1732V74.2477H18.0129V75.9348H16.9122L16.727 71.0381V69.3509H14.5667V71.0381H13.754V69.3509H11.5937V71.0381H10.781V69.3509H8.62068V71.0381H7.80799V69.3509H5.64768V71.0381H4.83499V69.3509H2.7364V71.0381L0 105.12H18.0541L17.3545 86.3866C17.3545 86.3866 24.6996 83.8971 35.676 83.8559C46.6525 83.8971 53.9976 86.3866 53.9976 86.3866L53.298 105.12H71.3521V105.109ZM66.1262 72.9H67.4429V74.6489H66.1262V72.9ZM64.0379 72.9H65.3546V74.6489H64.0379V72.9ZM61.9496 72.9H63.2663V74.6489H61.9496V72.9ZM59.8613 72.9H61.178V74.6489H59.8613V72.9ZM57.773 72.9H59.0897V74.6489H57.773V72.9ZM58.8326 94.5649V100.387H55.9213V94.5649H58.8326ZM55.6847 72.9H57.0014V74.6489H55.6847V72.9ZM5.21562 74.6489H3.89885V72.9H5.21562V74.6489ZM7.30392 74.6489H5.98716V72.9H7.30392V74.6489ZM9.39222 74.6489H8.07546V72.9H9.39222V74.6489ZM11.4805 74.6489H10.1638V72.9H11.4805V74.6489ZM12.2521 72.9H13.5688V74.6489H12.2521V72.9ZM15.4308 100.398H12.5195V94.5752H15.4308V100.398ZM15.6674 74.6489H14.3507V72.9H15.6674V74.6489ZM22.4981 77.2104H23.8972V78.6094H22.4981V77.2104ZM18.9285 78.6094H17.5294V77.2104H18.9285V78.6094ZM21.418 78.6094H20.0189V77.2104H21.418V78.6094ZM23.3211 83.033C22.5701 83.033 21.9632 82.426 21.9632 81.675C21.9632 80.9241 22.5701 80.3171 23.3211 80.3171C24.0721 80.3171 24.679 80.9241 24.679 81.675C24.679 82.426 24.0721 83.033 23.3211 83.033ZM26.3867 78.6094H24.9876V77.2104H26.3867V78.6094ZM28.8762 78.6094H27.4771V77.2104H28.8762V78.6094ZM31.3657 78.6094H29.9666V77.2104H31.3657V78.6094ZM37.5175 77.2104H38.9165V78.6094H37.5175V77.2104ZM34.9354 77.2104H36.427V78.6094H34.9354V77.2104ZM32.4459 77.2104H33.8449V78.6094H32.4459V77.2104ZM38.9885 82.2614H32.3636V80.2451H38.9885V82.2614ZM41.3957 78.6094H39.9967V77.2104H41.3957V78.6094ZM43.8852 78.6094H42.4862V77.2104H43.8852V78.6094ZM47.4549 77.2104H48.854V78.6094H47.4549V77.2104ZM46.3645 78.6094H44.9654V77.2104H46.3645V78.6094ZM48.031 83.033C47.28 83.033 46.6731 82.426 46.6731 81.675C46.6731 80.9241 47.28 80.3171 48.031 80.3171C48.7819 80.3171 49.3889 80.9241 49.3889 81.675C49.3889 82.426 48.7819 83.033 48.031 83.033ZM51.3332 78.6094H49.9341V77.2104H51.3332V78.6094ZM53.8227 78.6094H52.4236V77.2104H53.8227V78.6094Z" fill="#443087" fill-opacity="0.05"/>
<path d="M205.096 73.447H222.821V71.0192H225.917C225.917 71.0192 225.742 69.7539 224.95 68.1594C222.728 67.6656 219.128 67.1101 213.984 67.0072C213.984 67.0072 213.964 67.0072 213.953 67.0072C213.943 67.0072 213.933 67.0072 213.922 67.0072C208.779 67.1101 205.178 67.6759 202.956 68.1697C202.164 69.7642 201.989 71.0295 201.989 71.0295H205.086V73.4573L205.096 73.447ZM216.998 69.0235C217.616 69.0235 218.109 69.5173 218.109 70.1345C218.109 70.1551 218.109 70.1756 218.109 70.2065C218.109 70.2271 218.109 70.2477 218.109 70.258C218.109 70.258 218.109 70.2785 218.089 70.3197C218.048 70.5357 217.955 70.7312 217.811 70.8855V70.9781H218.099V72.5931H215.939V70.9781H216.227V70.9575C216.011 70.7517 215.867 70.4637 215.867 70.1448C215.867 69.5276 216.36 69.0338 216.978 69.0338L216.998 69.0235ZM212.873 70.9781H213.161V70.8855C213.017 70.7312 212.925 70.5357 212.883 70.3197C212.873 70.2785 212.863 70.258 212.863 70.258C212.863 70.2374 212.863 70.2168 212.863 70.2065C212.863 70.1859 212.863 70.1654 212.863 70.1345C212.863 69.5276 213.346 69.0441 213.943 69.0235C214.54 69.0441 215.023 69.5276 215.023 70.1345C215.023 70.1551 215.023 70.1756 215.023 70.2065C215.023 70.2271 215.023 70.2477 215.023 70.258C215.023 70.258 215.023 70.2785 215.003 70.3197C214.961 70.5357 214.869 70.7312 214.725 70.8855V70.9781H215.013V72.5931H212.853V70.9781H212.873ZM209.797 70.9781H210.085V70.8855C209.941 70.7312 209.849 70.5357 209.808 70.3197C209.797 70.2785 209.787 70.258 209.787 70.258C209.787 70.2374 209.787 70.2168 209.787 70.2065C209.787 70.1859 209.787 70.1654 209.787 70.1345C209.787 69.5173 210.281 69.0235 210.898 69.0235C211.515 69.0235 212.009 69.5173 212.009 70.1345C212.009 70.4534 211.865 70.7517 211.649 70.9472V70.9678H211.937V72.5829H209.777V70.9678L209.797 70.9781Z" fill="#443087" fill-opacity="0.05"/>
<path d="M240.474 103.157V101.809H236.215L231.586 71.822H223.706V74.1778H204.232V71.822H196.352L191.723 101.809H187.464V103.157H186.116V105.646H241.842V103.157H240.494H240.474ZM218.994 101.809H208.923C208.861 100.328 209.036 96.2747 209.057 95.9867C209.293 92.9211 209.828 89.8555 210.826 86.9442C211.268 85.6583 211.824 84.4136 212.4 83.1894C212.657 82.6442 213.213 81.1114 213.964 81.0599C214.715 81.1011 215.27 82.6442 215.527 83.1894C216.114 84.4239 216.669 85.6583 217.101 86.9442C218.099 89.8658 218.634 92.9211 218.871 95.9867C218.891 96.2747 219.066 100.328 219.004 101.809H218.994Z" fill="#443087" fill-opacity="0.05"/>
<path d="M224.703 67.6761C223.283 65.1043 220.269 61.9462 213.994 61.6478C213.994 61.6478 213.973 61.6478 213.963 61.6478C213.953 61.6478 213.942 61.6478 213.932 61.6478C207.657 61.9462 204.643 65.1043 203.223 67.6761C205.486 67.1926 208.994 66.6886 213.973 66.596C218.942 66.6886 222.46 67.2029 224.723 67.6761H224.703Z" fill="#443087" fill-opacity="0.05"/>
<path d="M550.457 77.9663C549.952 78.1823 549.49 78.4087 549.078 78.6144C548.235 79.0362 547.504 79.4374 546.846 79.8386C544.912 81.0216 543.472 82.4104 542.443 84.0872C541.455 85.7023 540.766 87.6054 540.385 89.7349C540.21 90.7533 540.097 91.7409 540.056 92.677C541.918 92.3273 544.15 92.0186 546.671 91.7615C546.825 89.0971 547.432 86.2064 548.492 82.9968C549.047 81.3302 549.654 79.7357 550.313 78.2543C550.354 78.1618 550.395 78.0589 550.436 77.9663H550.457Z" fill="#443087" fill-opacity="0.05"/>
<path d="M553.594 75.4874C552.854 75.6726 552.133 75.8886 551.424 76.1355C551.393 76.2178 551.372 76.2898 551.341 76.3721C551.187 76.7939 551.033 77.1745 550.889 77.5449C551.506 77.298 552.185 77.0614 552.895 76.8865C553.152 76.403 553.378 75.9401 553.594 75.4977V75.4874Z" fill="#443087" fill-opacity="0.05"/>
<path d="M534.749 94.2916C534.615 92.0902 534.81 89.8681 535.325 87.7181V87.7078C535.458 87.1317 535.623 86.5659 535.808 86.0001C537.012 82.3379 540.005 79.19 543.225 77.1531C552 71.6186 560.868 71.7523 560.868 71.7523C556.352 72.0507 551.938 73.5938 547.896 75.5689C547.268 75.8775 546.641 76.2067 546.034 76.5565C544.511 77.4412 543.091 78.4905 541.806 79.6838C540.304 81.0726 538.977 82.7185 537.948 84.5085C537.228 85.8458 535.932 88.932 535.932 93.7361C536.6 93.4892 537.444 93.2423 538.431 93.016C538.452 91.1849 538.73 89.3126 539.254 87.5741C540.191 84.4468 542.33 81.4635 545.303 79.1694C547.052 77.8218 549.079 76.7211 551.249 75.9495C551.496 75.2706 551.712 74.6431 551.897 74.0258C551.918 73.9641 551.98 73.9332 552.041 73.9538C552.103 73.9744 552.134 74.0361 552.113 74.0978C551.938 74.6636 551.743 75.2397 551.527 75.857C552.257 75.5998 553.019 75.3837 553.78 75.2089C553.821 75.1986 553.872 75.2089 553.893 75.25C553.924 75.2809 553.924 75.3323 553.903 75.3735C553.687 75.8261 553.44 76.3096 553.183 76.8137C553.728 76.6902 554.284 76.5976 554.85 76.5565C554.911 76.5565 554.973 76.5976 554.973 76.6594C554.973 76.7211 554.932 76.7828 554.87 76.7828C554.253 76.8239 553.636 76.9371 553.049 77.0811C552.957 77.256 552.854 77.4412 552.761 77.6264C552.371 78.367 552.031 78.9637 551.692 79.4986C550.282 81.8029 549.377 83.7781 548.832 85.6915C548.328 87.4609 548.019 89.4978 547.906 91.6375C548.42 91.5861 548.945 91.5449 549.48 91.5038C549.48 91.4832 549.48 91.4627 549.48 91.4524C549.614 89.3744 549.974 87.3066 550.56 85.3212C554.459 75.929 559.294 73.2028 560.405 72.6885C560.899 72.4724 561.526 72.2153 561.752 71.7832C561.773 71.7421 561.783 71.7009 561.783 71.6598V71.2791C561.783 71.094 556.979 71.5775 556.722 71.6186C548.667 72.8119 539.347 76.6799 535.695 84.5085C534.851 86.3293 534.327 88.2942 534.121 90.2899C533.967 91.8021 533.987 93.3246 534.152 94.8266C534.275 94.6517 534.471 94.4768 534.749 94.3019V94.2916ZM554.634 73.5835L554.757 73.1514C554.912 73.0897 555.138 73.0177 555.364 72.9457C555.642 72.8634 555.95 72.7708 556.187 72.7296C556.362 72.6885 556.475 72.6576 556.475 72.6576L555.971 73.46L554.572 73.7892L554.634 73.5732V73.5835ZM555.117 74.7562L554.058 74.9825L554.366 74.2727L555.59 74.0361L555.128 74.7562H555.117ZM556.455 74.5608L555.632 74.6842L555.734 74.5813L556.341 73.8098L557.72 73.6349L556.455 74.5711V74.5608ZM558.265 73.1823L556.948 73.3263L557 73.2646H556.979L557.72 72.3696L559.952 72.0918L558.265 73.1823Z" fill="#443087" fill-opacity="0.05"/>
<path d="M561.3 90.9285L562.02 88.9945C562.02 88.9945 561.938 88.9328 561.948 88.8814C562.226 85.8466 561.403 82.9045 560.6 80.8882C557.051 84.3344 556.27 88.9019 556.105 91.0931C557.782 91.0211 559.52 90.9594 561.3 90.9285Z" fill="#443087" fill-opacity="0.05"/>
<path d="M563.47 73.3882C557.102 78.5009 554.839 86.3501 554.037 91.1954C554.345 91.1748 554.664 91.1645 554.973 91.1439C555.302 84.5498 558.1 80.9184 559.88 79.2519C559.581 78.6347 559.365 78.2746 559.355 78.2643C559.324 78.2129 559.335 78.1409 559.396 78.11C559.448 78.0792 559.52 78.0894 559.551 78.1512C559.551 78.1614 559.767 78.5009 560.055 79.0976C560.806 78.4289 561.341 78.1203 561.361 78.11C561.392 78.0895 561.423 78.0895 561.454 78.11C561.485 78.1203 561.505 78.1512 561.526 78.182C561.526 78.2026 561.701 78.6964 561.917 79.4885C562.4 79.1387 562.915 78.8095 563.48 78.5009C563.532 78.4701 563.604 78.5009 563.635 78.5421C563.666 78.5935 563.635 78.6655 563.593 78.6964C563.017 79.0153 562.482 79.3548 561.989 79.7251C562.421 81.3402 563.007 83.9634 563.017 86.3398L564.488 82.3586L563.861 72.524C563.861 72.524 553.656 77.5648 552.216 91.3085C552.473 91.2879 552.73 91.2777 552.987 91.2571C554.592 78.2849 563.47 73.3882 563.47 73.3882V73.3882ZM560.569 76.5155L561.618 75.4868L561.927 76.4126L560.96 77.2459L560.559 76.5155H560.569ZM561.505 78.0792L561.207 77.4619L561.999 76.7418L562.266 77.6985L561.505 78.0792ZM561.978 75.0959L563.244 73.9437L563.377 75.3942L562.277 76.248L561.978 75.0959ZM562.585 77.5442L562.318 76.5155L563.357 75.8263L563.439 77.1636L562.585 77.5442Z" fill="#443087" fill-opacity="0.05"/>
<path d="M561.721 79.6326C561.556 79.0359 561.423 78.5936 561.351 78.3878C561.145 78.5113 560.713 78.8096 560.157 79.3137C560.322 79.6429 560.497 80.044 560.682 80.4967C561.001 80.1984 561.351 79.9103 561.711 79.6326H561.721Z" fill="#443087" fill-opacity="0.05"/>
<path d="M552.742 83.8916C552.742 83.8916 551.127 85.4553 549.471 91.4527C549.471 91.4527 551.754 91.3292 552.217 91.3087L552.742 83.9019V83.8916ZM551.682 90.8046C551.682 90.8046 551.014 90.7326 550.273 90.8046C550.273 90.8046 551.302 87.0909 552.073 85.9902C552.073 85.9902 551.754 89.6113 551.693 90.8046H551.682Z" fill="#443087" fill-opacity="0.05"/>
<path d="M561.569 94.9812L564.49 84.1899L560.509 94.9812H561.569Z" fill="#443087" fill-opacity="0.05"/>
<path d="M582.132 79.8386C581.474 79.4374 580.744 79.0362 579.9 78.6144C579.499 78.4087 579.036 78.1926 578.521 77.9663C578.563 78.0692 578.604 78.1618 578.645 78.2543C579.303 79.7357 579.921 81.3302 580.466 82.9968C581.536 86.2064 582.132 89.1074 582.287 91.7615C584.807 92.0186 587.039 92.3273 588.901 92.677C588.86 91.7306 588.747 90.7533 588.572 89.7349C588.202 87.6054 587.502 85.7023 586.515 84.0872C585.496 82.4104 584.056 81.0216 582.112 79.8386H582.132Z" fill="#443087" fill-opacity="0.05"/>
<path d="M577.543 76.1355C576.833 75.8886 576.113 75.6623 575.373 75.4874C575.589 75.9298 575.825 76.3927 576.072 76.8762C576.782 77.0511 577.451 77.2877 578.078 77.5346C577.934 77.1746 577.78 76.7836 577.625 76.3618C577.595 76.2795 577.574 76.2075 577.543 76.1252V76.1355Z" fill="#443087" fill-opacity="0.05"/>
<path d="M581.072 91.6478C580.959 89.5081 580.64 87.4712 580.146 85.7018C579.601 83.7884 578.695 81.8132 577.286 79.5089C576.957 78.9637 576.617 78.367 576.216 77.6366C576.113 77.4515 576.021 77.2663 575.928 77.0914C575.332 76.9474 574.725 76.8342 574.107 76.7931C574.046 76.7931 573.994 76.7313 574.004 76.6696C574.004 76.6079 574.066 76.5565 574.128 76.5668C574.694 76.6079 575.249 76.7005 575.794 76.824C575.537 76.3199 575.29 75.8466 575.074 75.3837C575.054 75.3426 575.064 75.2911 575.085 75.2603C575.116 75.2294 575.157 75.2089 575.198 75.2192C575.959 75.394 576.71 75.6203 577.451 75.8672C577.235 75.25 577.039 74.6739 576.864 74.1081C576.844 74.0464 576.875 73.9847 576.936 73.9641C576.998 73.9435 577.06 73.9744 577.08 74.0361C577.266 74.6533 577.482 75.2912 577.728 75.9598C579.899 76.7417 581.915 77.8321 583.674 79.1797C586.647 81.4738 588.787 84.4571 589.723 87.5844C590.238 89.3126 590.515 91.1952 590.546 93.0263C591.534 93.2526 592.367 93.4892 593.046 93.7464C593.046 88.9526 591.75 85.8561 591.03 84.5188C590.001 82.7288 588.674 81.0931 587.172 79.6941C585.886 78.5008 584.456 77.4515 582.944 76.5668C582.337 76.217 581.72 75.8878 581.082 75.5792C577.039 73.604 572.626 72.061 568.11 71.7626C568.11 71.7626 576.978 71.6289 585.753 77.1634C588.972 79.2003 591.976 82.3379 593.17 86.0104C593.355 86.5762 593.509 87.142 593.653 87.7181C594.167 89.8681 594.363 92.0902 594.229 94.3019C594.507 94.4768 594.702 94.6517 594.826 94.8266C594.99 93.3144 595.021 91.7918 594.857 90.2899C594.651 88.2942 594.126 86.3293 593.283 84.5085C589.631 76.6799 580.311 72.8017 572.256 71.6186C571.999 71.5775 567.194 71.094 567.194 71.2791V71.6598C567.194 71.6598 567.205 71.7421 567.225 71.7832C567.452 72.2153 568.069 72.4724 568.573 72.6885C569.684 73.2131 574.519 75.929 578.418 85.3212C579.004 87.3169 579.364 89.3744 579.498 91.4524C579.498 91.4627 579.498 91.4832 579.498 91.5038C580.033 91.5449 580.557 91.5964 581.072 91.6375V91.6478ZM572.78 72.7399C573.007 72.7811 573.326 72.8634 573.603 72.956C573.83 73.0177 574.056 73.0897 574.21 73.1617L574.334 73.5938L574.395 73.8098L572.996 73.4806L572.492 72.6782C572.492 72.6782 572.605 72.7091 572.78 72.7502V72.7399ZM569.015 72.0918L571.247 72.3696L571.988 73.2646H571.968L572.019 73.3263L570.702 73.1823L569.015 72.0918ZM572.513 74.5608L571.247 73.6246L572.626 73.7995L573.233 74.5711L573.336 74.6739L572.513 74.5505V74.5608ZM573.377 74.0258L574.601 74.2624L574.91 74.9722L573.85 74.7459L573.387 74.0258H573.377Z" fill="#443087" fill-opacity="0.05"/>
<path d="M568.368 80.8882C567.576 82.9045 566.743 85.8364 567.02 88.8814C567.02 88.9328 566.989 88.9842 566.948 88.9945L567.668 90.9285C569.448 90.9594 571.187 91.0211 572.863 91.0931C572.699 88.9019 571.917 84.3344 568.368 80.8882Z" fill="#443087" fill-opacity="0.05"/>
<path d="M566.988 79.7251C566.494 79.365 565.959 79.0153 565.383 78.6964C565.331 78.6655 565.311 78.5935 565.342 78.5421C565.373 78.4906 565.445 78.4701 565.496 78.5009C566.062 78.8095 566.576 79.1387 567.06 79.4885C567.276 78.6964 567.451 78.1923 567.451 78.182C567.461 78.1512 567.481 78.1203 567.523 78.11C567.553 78.0997 567.595 78.0997 567.615 78.11C567.636 78.11 568.171 78.4186 568.922 79.0976C569.21 78.5112 569.415 78.1717 569.426 78.1512C569.457 78.0997 569.529 78.0792 569.58 78.11C569.631 78.1409 569.652 78.2129 569.621 78.2643C569.621 78.2746 569.395 78.6347 569.097 79.2519C570.876 80.9184 573.674 84.5498 574.003 91.1439C574.322 91.1645 574.631 91.1748 574.94 91.1954C574.137 86.3501 571.874 78.5009 565.506 73.3882C565.506 73.3882 574.384 78.2849 575.989 91.2571C576.246 91.2777 576.503 91.2879 576.76 91.3085C575.32 77.5648 565.115 72.524 565.115 72.524L564.488 82.3586L565.959 86.3398C565.959 83.9737 566.545 81.3402 566.988 79.7251V79.7251ZM567.461 78.0792L566.7 77.6985L566.967 76.7418L567.759 77.4619L567.461 78.0792ZM567.348 75.4868L568.397 76.5155L567.996 77.2459L567.029 76.4126L567.337 75.4868H567.348ZM565.722 73.9437L566.988 75.0959L566.689 76.248L565.589 75.3942L565.722 73.9437ZM565.609 75.8263L566.648 76.5155L566.381 77.5442L565.527 77.1636L565.609 75.8263Z" fill="#443087" fill-opacity="0.05"/>
<path d="M567.616 78.3771C567.543 78.5828 567.41 79.0252 567.245 79.6219C567.615 79.8996 567.955 80.1876 568.274 80.486C568.459 80.0333 568.644 79.6321 568.798 79.3029C568.243 78.7989 567.811 78.5005 567.605 78.3771H567.616Z" fill="#443087" fill-opacity="0.05"/>
<path d="M576.226 83.8912L576.751 91.2979C577.203 91.3288 579.497 91.442 579.497 91.442C577.851 85.4445 576.226 83.8809 576.226 83.8809V83.8912ZM577.286 90.8042C577.224 89.6108 576.905 85.9898 576.905 85.9898C577.677 87.0905 578.705 90.8042 578.705 90.8042C577.954 90.7322 577.296 90.8042 577.296 90.8042H577.286Z" fill="#443087" fill-opacity="0.05"/>
<path d="M567.132 95.7328L564.488 85.0341L561.844 95.7328L564.488 95.2698L567.132 95.7328Z" fill="#443087" fill-opacity="0.05"/>
<path d="M567.399 94.9812H568.459L564.488 84.1899L567.399 94.9812Z" fill="#443087" fill-opacity="0.05"/>
<path d="M568.46 95.3614H567.431L567.503 95.6392C567.534 95.7626 567.503 95.8963 567.41 95.9992C567.338 96.0815 567.236 96.1227 567.133 96.1227C567.112 96.1227 567.091 96.1227 567.061 96.1227L564.489 95.67L561.917 96.1227C561.917 96.1227 561.876 96.1227 561.845 96.1227C561.742 96.1227 561.639 96.0815 561.567 95.9992C561.475 95.9066 561.444 95.7729 561.475 95.6392L561.547 95.3614H560.518C560.395 95.3614 560.271 95.2997 560.199 95.1968C560.127 95.0939 560.107 94.9602 560.158 94.8471L560.436 94.0858C555.415 94.271 551.794 94.8059 551.794 95.4231C551.794 96.205 557.483 96.8325 564.499 96.8325C571.515 96.8325 577.204 96.1947 577.204 95.4231C577.204 94.7956 573.583 94.271 568.563 94.0858L568.84 94.8471C568.881 94.9602 568.871 95.0939 568.799 95.1968C568.727 95.2997 568.614 95.3614 568.48 95.3614H568.46Z" fill="#443087" fill-opacity="0.05"/>
<path d="M594.98 97.0389C594.98 96.9875 594.98 96.9361 594.959 96.8846V97.2035C594.97 97.1521 594.98 97.1007 594.98 97.0492V97.0389Z" fill="#443087" fill-opacity="0.05"/>
<path d="M533.997 97.0385C533.997 97.0899 533.997 97.1414 534.018 97.1928V96.8739C534.007 96.9253 533.997 96.9768 533.997 97.0282V97.0385Z" fill="#443087" fill-opacity="0.05"/>
<path d="M564.499 100.989C580.423 100.989 593.498 99.0756 594.866 96.6478C594.908 96.7198 594.938 96.8021 594.949 96.8844V96.4626C594.969 96.3803 594.99 96.3083 594.99 96.226C594.99 96.1437 594.98 96.0614 594.949 95.9688C594.877 95.2281 593.519 94.5286 591.194 93.9217C586.554 92.7078 578.037 91.8437 568.058 91.6791L568.295 92.3066L568.675 93.325C571.154 93.4176 573.304 93.5925 574.868 93.8394C576.823 94.1377 577.965 94.4978 577.965 95.4339C577.965 96.2569 577.265 96.7918 573.562 97.2033C571.134 97.4708 567.914 97.6251 564.488 97.6251C561.063 97.6251 557.843 97.4811 555.415 97.2033C551.712 96.7918 551.012 96.2672 551.012 95.4339C551.012 94.4978 552.144 94.1377 554.108 93.8394C555.682 93.6028 557.822 93.4279 560.301 93.325L560.682 92.3066L560.919 91.6791C551.29 91.8334 543.019 92.6461 538.287 93.7982C535.581 94.4566 534.028 95.2179 534.028 96.0408V96.8844C534.048 96.7918 534.079 96.7095 534.131 96.6169C535.396 99.0653 548.523 100.999 564.519 100.999L564.499 100.989Z" fill="#443087" fill-opacity="0.05"/>
<path d="M594.959 97.1923C594.424 99.7538 580.989 101.801 564.488 101.801C547.988 101.801 534.553 99.7538 534.018 97.1923V99.2703V105.103H595V99.2703H594.959V97.1923Z" fill="#443087" fill-opacity="0.05"/>
<path d="M502.991 6.59411V5.20533C502.991 5.20533 502.785 4.54697 501.581 4.42352C501.581 4.42352 501.674 0.390914 501.252 0C500.83 0.390914 500.923 4.42352 500.923 4.42352C499.719 4.54697 499.514 5.20533 499.514 5.20533V6.59411H503.001H502.991Z" fill="#443087" fill-opacity="0.05"/>
<path d="M503.198 8.01336V7.0155H501.244H499.289V8.01336H501.244H503.198Z" fill="#443087" fill-opacity="0.05"/>
<path d="M500.265 17.7859H503.681V8.36279H498.805V17.7859H500.265ZM501.665 16.9321H500.821V12.5497H501.665V16.9321ZM501.665 10.8112V11.9428H500.821V10.8112C500.821 10.5951 500.79 10.3379 500.924 10.1528C501.078 9.91615 501.428 9.91615 501.582 10.1528C501.695 10.3276 501.675 10.6157 501.665 10.8215V10.8112ZM502.662 16.9321H502.23V12.5497H502.662V16.9321ZM499.833 10.8934C499.854 9.7207 500.317 9.16518 500.708 8.89772C500.934 8.7537 501.387 8.60968 501.963 9.03146C502.313 9.34007 502.652 9.88529 502.662 10.8934V11.9325H502.23V10.3482C502.23 10.0396 502.086 9.72071 501.839 9.52525C501.438 9.20635 500.79 9.32981 500.492 9.73101C500.368 9.8956 500.296 10.1013 500.276 10.3482V11.9325H499.844V10.8934H499.833ZM499.833 12.5497H500.265V16.9321H499.833V12.5497Z" fill="#443087" fill-opacity="0.05"/>
<path d="M505.399 18.2185H497.045V20.7697H505.399V18.2185Z" fill="#443087" fill-opacity="0.05"/>
<path d="M496.046 90.178L491.736 88.8407C488.917 88.5115 487.549 89.3036 487.097 89.6534C487.673 89.8694 488.228 90.1986 488.701 90.6204C490.769 92.4104 490.831 95.7126 490.018 98.0169C488.959 101 486.839 103.531 485.101 105.403C484.885 105.64 484.648 105.876 484.422 106.113H486.809L490.358 99.9715C491.376 97.019 493.845 97.4717 493.845 97.4717C497.754 98.5827 494.503 106.113 494.503 106.113H495.491C498.176 98.0478 496.571 91.824 496.046 90.178V90.178Z" fill="#443087" fill-opacity="0.05"/>
<path d="M489.67 97.8931C490.441 95.6916 490.4 92.5643 488.466 90.8875C487.849 90.3526 487.088 89.9617 486.337 89.7971C486.244 89.7765 486.182 89.6839 486.203 89.581C486.203 89.581 486.203 89.5707 486.203 89.5605L486.007 89.4987C482.757 88.3569 481.491 89.6839 481.491 89.6839C484.197 89.5604 486.182 91.9059 486.182 91.9059C489.248 97.8622 480.71 103.222 480.71 103.222L475.113 106.113H479.506C485.164 103.098 486.964 99.0659 486.964 99.0659C487.571 97.8005 488.229 97.4713 488.229 97.4713C490.266 96.8027 488.281 99.786 487.921 100.28C486.892 101.669 486.049 102.78 484.752 103.87C483.868 104.621 482.983 105.362 482.098 106.113H483.899C484.217 105.794 484.526 105.464 484.824 105.156C486.532 103.314 488.631 100.825 489.67 97.9034V97.8931Z" fill="#443087" fill-opacity="0.05"/>
<path d="M512.352 98.0169C511.539 95.7126 511.601 92.4104 513.669 90.6204C514.152 90.2089 514.708 89.8797 515.274 89.6534C514.821 89.3036 513.442 88.5115 510.634 88.8407L506.324 90.178C505.799 91.824 504.194 98.0478 506.879 106.113H507.867C507.867 106.113 504.616 98.593 508.525 97.4717C508.525 97.4717 510.994 97.019 512.013 99.9715L515.562 106.113H517.948C517.712 105.876 517.485 105.629 517.269 105.403C515.531 103.531 513.401 101.01 512.352 98.0169V98.0169Z" fill="#443087" fill-opacity="0.05"/>
<path d="M514.121 97.4713C514.121 97.4713 514.78 97.8005 515.387 99.0659C515.387 99.0659 517.197 103.098 522.845 106.113H527.238L521.641 103.222C521.641 103.222 513.093 97.8622 516.169 91.9059C516.169 91.9059 518.154 89.5604 520.86 89.6839C520.86 89.6839 519.594 88.3569 516.343 89.4987L516.148 89.5605C516.148 89.5605 516.148 89.5708 516.148 89.581C516.169 89.6736 516.107 89.7765 516.014 89.7971C515.263 89.9617 514.512 90.3526 513.885 90.8875C511.951 92.5643 511.899 95.7019 512.681 97.8931C513.71 100.815 515.809 103.304 517.527 105.146C517.825 105.465 518.133 105.783 518.452 106.102H520.5C518.267 104.23 516.179 102.636 514.43 100.269C514.06 99.7757 512.085 96.7924 514.121 97.4611V97.4713Z" fill="#443087" fill-opacity="0.05"/>
<path d="M505.964 90.116C505.275 89.7868 503.042 88.789 501.191 88.8404C499.339 88.789 497.106 89.7868 496.417 90.116C496.973 91.8751 498.516 98.0989 495.893 106.113H497.292L498.012 100.156C498.31 97.3891 501.201 97.2039 501.201 97.2039C501.201 97.2039 504.091 97.3891 504.39 100.156L505.11 106.113H506.509C503.875 98.0989 505.429 91.8751 505.984 90.116H505.964Z" fill="#443087" fill-opacity="0.05"/>
<path d="M502.868 21.151H497.539V30.4301H504.894V21.151H502.868V21.151ZM499.01 29.7923H498.105V28.1463H499.01V29.7923ZM499.01 27.4879H498.105V24.7824H499.01V27.4879ZM499.01 24.124H498.105V21.7785H499.01V24.124ZM500.841 29.7923H499.576V28.1463H500.841V29.7923ZM500.841 27.4879H499.576V24.7824H500.841V27.4879ZM500.841 24.124H499.576V21.7785H500.841V24.124ZM502.868 29.7923H501.603V28.1463H502.868V29.7923ZM502.868 27.4879H501.603V24.7824H502.868V27.4879ZM502.868 24.124H501.603V21.7785H502.868V24.124ZM504.339 29.7923H503.434V28.1463H504.339V29.7923ZM504.339 27.4879H503.434V24.7824H504.339V27.4879ZM504.339 24.124H503.434V21.7785H504.339V24.124Z" fill="#443087" fill-opacity="0.05"/>
<path d="M497.231 89.3342C497.375 88.7787 497.508 87.9763 497.632 86.999H501.016V88.5215H501.52V86.999H504.905C505.028 87.9763 505.162 88.7684 505.306 89.3342L506.386 89.828C506.386 89.828 507.384 89.2622 510.038 88.7581C510.038 88.7581 506.973 76.7838 506.561 69.6959C506.561 69.6959 505.203 54.3063 505.203 50.284C505.203 50.284 504.617 40.6654 504.977 35.7481C504.977 35.7481 505.604 33.8553 506.355 33.4952H496.161C496.902 33.8553 497.539 35.7481 497.539 35.7481C497.899 40.6654 497.313 50.284 497.313 50.284C497.313 54.3063 495.955 69.6959 495.955 69.6959C495.554 76.7838 492.478 88.7581 492.478 88.7581C495.142 89.2622 496.13 89.828 496.13 89.828L497.21 89.3342H497.231ZM501.52 34.8223H502.714L503.012 47.1875H501.52V34.8223V34.8223ZM501.52 49.1524H503.064L503.28 58.1434C503.28 58.1434 503.28 58.3492 503.3 58.7195H501.531V49.1524H501.52ZM501.52 60.6741H503.352C503.424 62.9372 503.557 66.4863 503.732 70.3543H501.52V60.6741ZM501.52 72.2266H503.825C503.917 74.1297 504.02 76.074 504.144 77.9463H501.531V72.2266H501.52ZM501.52 79.8083H504.257C504.391 81.7526 504.535 83.5734 504.699 85.137H501.531V79.8083H501.52ZM499.823 34.8223H501.016V47.1875H499.525L499.823 34.8223V34.8223ZM499.268 58.1434L499.484 49.1524H501.027V58.7195H499.257C499.268 58.3492 499.278 58.1434 499.278 58.1434H499.268ZM499.185 60.6741H501.016V70.3543H498.805C498.98 66.4863 499.113 62.9372 499.185 60.6741ZM498.722 72.2266H501.027V77.9463H498.414C498.527 76.074 498.63 74.1297 498.733 72.2266H498.722ZM498.29 79.8083H501.027V85.137H497.858C498.013 83.5734 498.167 81.7628 498.301 79.8083H498.29Z" fill="#443087" fill-opacity="0.05"/>
<path d="M501.304 33.0008H506.602V30.8302H501.304H501.222H495.914V33.0008H501.222H501.304Z" fill="#443087" fill-opacity="0.05"/>
<path d="M119.206 65.3814V61.7603C119.206 61.7603 119.103 61.1225 117.766 60.9888C116.429 61.1122 116.326 61.7603 116.326 61.7603V65.3814H119.206V65.3814Z" fill="#443087" fill-opacity="0.05"/>
<path d="M122.737 65.3814V61.7603C122.737 61.7603 122.634 61.1225 121.297 60.9888C119.959 61.1122 119.856 61.7603 119.856 61.7603V65.3814H122.737V65.3814Z" fill="#443087" fill-opacity="0.05"/>
<path d="M126.254 65.3814V61.7603C126.254 61.7603 126.151 61.1225 124.814 60.9888C123.476 61.1122 123.374 61.7603 123.374 61.7603V65.3814H126.254V65.3814Z" fill="#443087" fill-opacity="0.05"/>
<path d="M114.302 65.3814H115.742V61.7603C115.742 61.7603 115.639 61.1225 114.302 60.9888V65.3814Z" fill="#443087" fill-opacity="0.05"/>
<path d="M114.497 58.0468V57.5119C114.497 57.5119 114.373 57.1518 113.848 57.0181L113.53 55.9894L113.211 57.0181C112.686 57.1415 112.562 57.5119 112.562 57.5119V58.0468H114.497Z" fill="#443087" fill-opacity="0.05"/>
<path d="M113.211 65.5565H113.859V59.3945C113.859 59.3945 114.353 59.199 114.507 58.5406H114.98V58.2423H112.1V58.5406H112.573C112.717 59.199 113.221 59.3945 113.221 59.3945V65.5565H113.211Z" fill="#443087" fill-opacity="0.05"/>
<path d="M103.984 67.1516V67.9232L103.418 68.1804V68.993H107.234V68.1804L106.669 67.9232V67.1516C106.669 67.1516 107.759 66.6373 106.946 65.3822C106.946 65.3822 106.175 64.1889 105.331 64.0552C104.488 64.1786 103.716 65.3822 103.716 65.3822C102.893 66.6373 103.994 67.1516 103.994 67.1516H103.984ZM105.023 65.2794H105.619V67.131H105.023V65.2794Z" fill="#443087" fill-opacity="0.05"/>
<path d="M108.726 67.1516V67.9232L108.16 68.1804V68.993H111.976V68.1804L111.411 67.9232V67.1516C111.411 67.1516 112.501 66.6373 111.688 65.3822C111.688 65.3822 110.917 64.1889 110.073 64.0552C109.23 64.1786 108.458 65.3822 108.458 65.3822C107.635 66.6373 108.736 67.1516 108.736 67.1516H108.726ZM109.765 65.2794H110.361V67.131H109.765V65.2794Z" fill="#443087" fill-opacity="0.05"/>
<path d="M112.614 87.7361H102.893V92.211H112.614V87.7361Z" fill="#443087" fill-opacity="0.05"/>
<path d="M103.911 102.714V99.8848H103.839C103.726 99.6996 103.232 98.9178 102.389 98.6503V98.5577H79.4278V98.6503C78.5842 98.9178 78.0801 99.6996 77.9773 99.8848H77.9053V102.714C77.216 103.136 76.856 103.825 76.856 103.825V104.761H104.971V103.825C104.971 103.825 104.611 103.136 103.922 102.714H103.911Z" fill="#443087" fill-opacity="0.05"/>
<path d="M102.894 94.9888C102.945 95.0608 102.976 95.1534 102.976 95.246V98.0647C102.976 98.1573 102.945 98.2396 102.904 98.3116C103.583 98.6202 104.025 99.1551 104.241 99.4843C104.396 99.5769 104.498 99.7312 104.498 99.9061V102.488C105.146 102.972 105.486 103.599 105.496 103.63C105.527 103.692 105.548 103.774 105.548 103.846V104.782C105.548 104.854 105.527 104.926 105.496 104.988H112.605V92.7462H102.883V95.0094L102.894 94.9888Z" fill="#443087" fill-opacity="0.05"/>
<path d="M102.378 95.2452H79.5918V98.0639H102.378V95.2452Z" fill="#443087" fill-opacity="0.05"/>
<path d="M93.3158 65.3811H93.4804C93.5215 65.2988 93.573 65.2165 93.6244 65.1342C93.7787 64.8976 94.5811 63.7248 95.651 63.5602C95.6818 63.5602 95.723 63.5602 95.7538 63.5602C95.7847 63.5602 95.8259 63.5602 95.8567 63.5602C96.4739 63.6528 96.9986 64.0849 97.3689 64.4758V57.2028H84.6128V64.5993C84.9831 64.1775 85.5489 63.6631 86.2382 63.5602C86.269 63.5602 86.3102 63.5602 86.341 63.5602C86.3719 63.5602 86.4131 63.5602 86.4439 63.5602C87.5138 63.7248 88.3265 64.9079 88.4705 65.1342C88.5219 65.2165 88.5734 65.2988 88.6145 65.3811H88.7791C88.8203 65.2988 88.8717 65.2165 88.9231 65.1342C89.0774 64.8976 89.8798 63.7248 90.9497 63.5602C90.9806 63.5602 91.0217 63.5602 91.0526 63.5602C91.0834 63.5602 91.1246 63.5602 91.1555 63.5602C92.2253 63.7248 93.038 64.9079 93.182 65.1342C93.2335 65.2165 93.2849 65.2988 93.3261 65.3811H93.3158ZM93.5627 60.2066C93.5627 60.2066 93.5421 59.5585 94.8589 59.219C96.1756 59.5585 96.155 60.2066 96.155 60.2066V62.367H93.5627V60.2066V60.2066ZM88.5219 62.367H85.9296V60.2066C85.9296 60.2066 85.909 59.5585 87.2257 59.219C88.5425 59.5585 88.5219 60.2066 88.5219 60.2066V62.367V62.367ZM92.3385 62.367H89.7461V60.2066C89.7461 60.2066 89.7255 59.5585 91.0423 59.219C92.3591 59.5585 92.3385 60.2066 92.3385 60.2066V62.367V62.367Z" fill="#443087" fill-opacity="0.05"/>
<path d="M90.9792 53.1084H97.5836C97.5836 53.1084 97.9539 50.5777 95.3924 49.8782C95.3924 49.8782 92.1416 48.9523 91.5656 47.4195L90.9895 45.2078L90.4134 47.4195C89.8373 48.9523 86.5763 49.8782 86.5763 49.8782C84.0045 50.5777 84.3851 53.1084 84.3851 53.1084H90.9895H90.9792Z" fill="#443087" fill-opacity="0.05"/>
<path d="M90.9798 56.8232H99.5182L97.6048 55.4756H90.9798H84.3548L82.4414 56.8232H90.9798Z" fill="#443087" fill-opacity="0.05"/>
<path d="M90.9809 55.1247H97.6059V53.5919H90.9809H84.356V55.1247H90.9809Z" fill="#443087" fill-opacity="0.05"/>
<path d="M102.893 87.314H112.614V69.3114H102.893V87.314ZM106.257 77.9218H109.26V80.9256H106.257V77.9218Z" fill="#443087" fill-opacity="0.05"/>
<path d="M84.4175 68.1804V89.1354C84.8907 88.4873 85.5594 88.0758 86.3 88.0758C87.0716 88.0758 87.7711 88.5285 88.2443 89.2383V68.1804L87.6785 67.9232V67.1516C87.6785 67.1516 88.769 66.6373 87.9563 65.3822C87.9563 65.3822 87.1847 64.1889 86.3412 64.0552C85.4976 64.1786 84.7261 65.3822 84.7261 65.3822C83.9031 66.6373 85.0039 67.1516 85.0039 67.1516V67.9232L84.4381 68.1804H84.4175ZM86.0326 65.2794H86.6292V67.131H86.0326V65.2794Z" fill="#443087" fill-opacity="0.05"/>
<path d="M93.8398 68.1804V89.2588C94.3131 88.5387 95.0229 88.0758 95.8047 88.0758C96.5351 88.0758 97.1935 88.477 97.6667 89.1148V68.1804L97.1009 67.9232V67.1516C97.1009 67.1516 98.1913 66.6373 97.3786 65.3822C97.3786 65.3822 96.6071 64.1889 95.7635 64.0552C94.92 64.1786 94.1485 65.3822 94.1485 65.3822C93.3255 66.6373 94.4262 67.1516 94.4262 67.1516V67.9232L93.8604 68.1804H93.8398ZM95.4549 65.2794H96.0516V67.131H95.4549V65.2794Z" fill="#443087" fill-opacity="0.05"/>
<path d="M98.8504 65.3822C98.0274 66.6373 99.1281 67.1516 99.1281 67.1516V67.9232L98.5623 68.1804V89.228C99.0355 88.5182 99.7351 88.0758 100.507 88.0758C101.278 88.0758 101.916 88.4873 102.389 89.1354V68.1804L101.823 67.9232V67.1516C101.823 67.1516 102.914 66.6373 102.101 65.3822C102.101 65.3822 101.33 64.1889 100.486 64.0552C99.6425 64.1786 98.8709 65.3822 98.8709 65.3822H98.8504ZM100.167 65.2794H100.764V67.131H100.167V65.2794Z" fill="#443087" fill-opacity="0.05"/>
<path d="M89.1279 68.1804V89.1148C89.6011 88.477 90.2595 88.0758 90.9899 88.0758C91.7717 88.0758 92.4816 88.5387 92.9548 89.2588V68.1804L92.389 67.9232V67.1516C92.389 67.1516 93.4794 66.6373 92.6667 65.3822C92.6667 65.3822 91.8952 64.1889 91.0516 64.0552C90.2081 64.1786 89.4365 65.3822 89.4365 65.3822C88.6136 66.6373 89.7143 67.1516 89.7143 67.1516V67.9232L89.1485 68.1804H89.1279ZM90.743 65.2794H91.3397V67.131H90.743V65.2794Z" fill="#443087" fill-opacity="0.05"/>
<path d="M80.2699 67.1516V67.9232L79.7041 68.1804V89.2897C80.1773 88.549 80.8974 88.0758 81.6895 88.0758C82.4096 88.0758 83.0577 88.4667 83.5309 89.084V68.1804L82.9651 67.9232V67.1516C82.9651 67.1516 84.0556 66.6373 83.2429 65.3822C83.2429 65.3822 82.4714 64.1889 81.6278 64.0552C80.7843 64.1786 80.0127 65.3822 80.0127 65.3822C79.1897 66.6373 80.2905 67.1516 80.2905 67.1516H80.2699ZM81.3089 65.2794H81.9056V67.131H81.3089V65.2794Z" fill="#443087" fill-opacity="0.05"/>
<path d="M79.7043 94.7709H102.377V92.7443C102.511 92.3637 102.583 91.9419 102.583 91.4893C102.583 89.8845 101.647 88.5883 100.495 88.5883C99.3426 88.5883 98.4064 89.8845 98.4064 91.4893C98.4064 91.911 98.4682 92.3019 98.5916 92.662H97.7172C97.8304 92.3019 97.9024 91.9007 97.9024 91.4893C97.9024 89.8845 96.9662 88.5883 95.8141 88.5883C94.6619 88.5883 93.7258 89.8845 93.7258 91.4893C93.7258 91.911 93.7875 92.3019 93.9109 92.662H92.9131C93.0262 92.3019 93.0982 91.9007 93.0982 91.4893C93.0982 89.8845 92.1621 88.5883 91.0099 88.5883C89.8578 88.5883 88.9216 89.8845 88.9216 91.4893C88.9216 91.911 88.9834 92.3019 89.1068 92.662H88.2324C88.3455 92.3019 88.4176 91.9007 88.4176 91.4893C88.4176 89.8845 87.4814 88.5883 86.3293 88.5883C85.1771 88.5883 84.241 89.8845 84.241 91.4893C84.241 91.911 84.3027 92.3019 84.4261 92.662H83.634C83.7472 92.3019 83.8192 91.9007 83.8192 91.4893C83.8192 89.8845 82.883 88.5883 81.7309 88.5883C80.5787 88.5883 79.6426 89.8845 79.6426 91.4893C79.6426 91.911 79.7043 92.3019 79.8277 92.662H79.2928C78.439 93.0117 77.9863 93.8759 77.9863 93.8759V94.7709H79.7454H79.7043Z" fill="#443087" fill-opacity="0.05"/>
<path d="M139.618 65.3814V61.7603C139.618 61.7603 139.515 61.1225 138.178 60.9888C136.84 61.1122 136.737 61.7603 136.737 61.7603V65.3814H139.618Z" fill="#443087" fill-opacity="0.05"/>
<path d="M136.09 65.3814V61.7603C136.09 61.7603 135.987 61.1225 134.65 60.9888C133.312 61.1122 133.209 61.7603 133.209 61.7603V65.3814H136.09Z" fill="#443087" fill-opacity="0.05"/>
<path d="M132.571 65.3814V61.7603C132.571 61.7603 132.468 61.1225 131.131 60.9888C129.794 61.1122 129.691 61.7603 129.691 61.7603V65.3814H132.571Z" fill="#443087" fill-opacity="0.05"/>
<path d="M141.655 60.9888C140.317 61.1122 140.214 61.7603 140.214 61.7603V65.3814H141.655V60.9888Z" fill="#443087" fill-opacity="0.05"/>
<path d="M143.383 58.0468V57.5119C143.383 57.5119 143.259 57.1518 142.735 57.0181L142.416 55.9894L142.097 57.0181C141.572 57.1415 141.449 57.5119 141.449 57.5119V58.0468H143.383Z" fill="#443087" fill-opacity="0.05"/>
<path d="M143.857 58.5406V58.2423H140.977V58.5406H141.45C141.594 59.199 142.098 59.3945 142.098 59.3945V65.5565H142.746V59.3945C142.746 59.3945 143.24 59.199 143.394 58.5406H143.867H143.857Z" fill="#443087" fill-opacity="0.05"/>
<path d="M149.288 67.1516V67.9232L148.722 68.1804V68.993H152.539V68.1804L151.973 67.9232V67.1516C151.973 67.1516 153.063 66.6373 152.25 65.3822C152.25 65.3822 151.479 64.1889 150.635 64.0552C149.792 64.1786 149.02 65.3822 149.02 65.3822C148.197 66.6373 149.298 67.1516 149.298 67.1516H149.288ZM150.327 65.2794H150.923V67.131H150.327V65.2794Z" fill="#443087" fill-opacity="0.05"/>
<path d="M144.554 67.1516V67.9232L143.989 68.1804V68.993H147.805V68.1804L147.239 67.9232V67.1516C147.239 67.1516 148.33 66.6373 147.517 65.3822C147.517 65.3822 146.746 64.1889 145.902 64.0552C145.058 64.1786 144.287 65.3822 144.287 65.3822C143.464 66.6373 144.565 67.1516 144.565 67.1516H144.554ZM145.593 65.2794H146.19V67.131H145.593V65.2794Z" fill="#443087" fill-opacity="0.05"/>
<path d="M153.052 87.7361H143.331V92.211H153.052V87.7361Z" fill="#443087" fill-opacity="0.05"/>
<path d="M178.06 102.714V99.8848H177.988C177.875 99.6996 177.381 98.9178 176.538 98.6503V98.5577H153.577V98.6503C152.733 98.9178 152.229 99.6996 152.126 99.8848H152.054V102.714C151.365 103.136 151.005 103.825 151.005 103.825V104.761H179.12V103.825C179.12 103.825 178.76 103.136 178.071 102.714H178.06Z" fill="#443087" fill-opacity="0.05"/>
<path d="M150.45 103.619C150.45 103.619 150.8 102.96 151.448 102.477V99.8946C151.448 99.7197 151.551 99.5654 151.705 99.4728C151.921 99.1539 152.374 98.619 153.042 98.3001C153.001 98.228 152.97 98.1457 152.97 98.0531V95.2345C152.97 95.1419 153.001 95.0596 153.052 94.9773V92.7141H143.331V104.956H150.44C150.409 104.894 150.388 104.822 150.388 104.75V103.814C150.388 103.742 150.409 103.67 150.44 103.598L150.45 103.619Z" fill="#443087" fill-opacity="0.05"/>
<path d="M176.362 95.2452H153.576V98.0639H176.362V95.2452Z" fill="#443087" fill-opacity="0.05"/>
<path d="M167.187 65.3811H167.352C167.393 65.2988 167.444 65.2165 167.496 65.1342C167.65 64.8976 168.452 63.7146 169.522 63.5602C169.553 63.5602 169.594 63.5602 169.625 63.5602C169.656 63.5602 169.697 63.5602 169.728 63.5602C170.407 63.6631 170.983 64.1775 171.353 64.5993V57.2028H158.597V64.4758C158.968 64.0849 159.492 63.6528 160.109 63.5602C160.14 63.5602 160.181 63.5602 160.212 63.5602C160.243 63.5602 160.284 63.5602 160.315 63.5602C161.385 63.7248 162.198 64.9079 162.342 65.1342C162.393 65.2165 162.445 65.2988 162.486 65.3811H162.65C162.691 65.2988 162.743 65.2165 162.794 65.1342C162.949 64.8976 163.751 63.7146 164.821 63.5602C164.852 63.5602 164.893 63.5602 164.924 63.5602C164.955 63.5602 164.996 63.5602 165.027 63.5602C166.097 63.7248 166.909 64.9079 167.053 65.1342C167.105 65.2165 167.156 65.2988 167.197 65.3811H167.187ZM167.434 60.2066C167.434 60.2066 167.413 59.5585 168.73 59.219C170.047 59.5585 170.026 60.2066 170.026 60.2066V62.367H167.434V60.2066V60.2066ZM162.393 62.367H159.801V60.2066C159.801 60.2066 159.78 59.5585 161.097 59.219C162.414 59.5585 162.393 60.2066 162.393 60.2066V62.367V62.367ZM166.21 62.367H163.617V60.2066C163.617 60.2066 163.597 59.5585 164.914 59.219C166.23 59.5585 166.21 60.2066 166.21 60.2066V62.367V62.367Z" fill="#443087" fill-opacity="0.05"/>
<path d="M164.966 53.1084H171.57C171.57 53.1084 171.941 50.5777 169.379 49.8782C169.379 49.8782 166.128 48.9523 165.542 47.4195L164.966 45.2078L164.39 47.4195C163.814 48.9523 160.553 49.8782 160.553 49.8782C157.981 50.5777 158.362 53.1084 158.362 53.1084H164.966Z" fill="#443087" fill-opacity="0.05"/>
<path d="M164.966 56.8232H173.504L171.591 55.4756H164.966H158.351L156.427 56.8232H164.966Z" fill="#443087" fill-opacity="0.05"/>
<path d="M164.964 55.1247H171.589V53.5919H164.964H158.35V55.1247H164.964Z" fill="#443087" fill-opacity="0.05"/>
<path d="M129.353 62.357C129.353 62.357 128.941 61.174 127.984 61.2048C127.028 61.1842 126.616 62.357 126.616 62.357V65.8135H113.222V104.709H120.217V87.4372C120.351 82.9211 127.038 81.5015 127.984 81.3163C128.941 81.5015 135.617 82.9211 135.751 87.4372V104.709H142.746V65.8135H129.353V62.357V62.357ZM122.738 77.2631H119.857V73.5495H122.738V77.2631ZM133.221 73.5495H136.101V77.2631H133.221V73.5495ZM129.702 73.5495V77.2631H126.266V73.5495H129.702Z" fill="#443087" fill-opacity="0.05"/>
<path d="M153.065 69.3114H143.343V87.314H153.065V69.3114ZM149.711 80.9256H146.707V77.9218H149.711V80.9256Z" fill="#443087" fill-opacity="0.05"/>
<path d="M171.239 65.3822C171.239 65.3822 170.468 64.1889 169.624 64.0552C168.781 64.1786 168.009 65.3822 168.009 65.3822C167.186 66.6373 168.287 67.1516 168.287 67.1516V67.9232L167.721 68.1804V89.2383C168.194 88.5285 168.894 88.0758 169.665 88.0758C170.437 88.0758 171.075 88.4873 171.548 89.1354V68.1804L170.982 67.9232V67.1516C170.982 67.1516 172.072 66.6373 171.26 65.3822H171.239ZM169.922 67.131H169.326V65.2794H169.922V67.131Z" fill="#443087" fill-opacity="0.05"/>
<path d="M161.818 65.3822C161.818 65.3822 161.047 64.1889 160.203 64.0552C159.36 64.1786 158.588 65.3822 158.588 65.3822C157.765 66.6373 158.866 67.1516 158.866 67.1516V67.9232L158.3 68.1804V89.1148C158.773 88.477 159.432 88.0758 160.162 88.0758C160.944 88.0758 161.654 88.5387 162.127 89.2588V68.1804L161.561 67.9232V67.1516C161.561 67.1516 162.652 66.6373 161.839 65.3822H161.818ZM160.502 67.131H159.905V65.2794H160.502V67.131Z" fill="#443087" fill-opacity="0.05"/>
<path d="M155.45 88.0758C156.222 88.0758 156.921 88.5182 157.394 89.228V68.1804L156.829 67.9232V67.1516C156.829 67.1516 157.919 66.6373 157.106 65.3822C157.106 65.3822 156.335 64.1889 155.491 64.0552C154.648 64.1786 153.876 65.3822 153.876 65.3822C153.053 66.6373 154.154 67.1516 154.154 67.1516V67.9232L153.588 68.1804V89.1354C154.061 88.4873 154.73 88.0758 155.471 88.0758H155.45ZM155.183 65.2794H155.779V67.131H155.183V65.2794Z" fill="#443087" fill-opacity="0.05"/>
<path d="M166.53 65.3822C166.53 65.3822 165.759 64.1889 164.915 64.0552C164.072 64.1786 163.3 65.3822 163.3 65.3822C162.477 66.6373 163.578 67.1516 163.578 67.1516V67.9232L163.012 68.1804V89.2588C163.485 88.5387 164.195 88.0758 164.977 88.0758C165.707 88.0758 166.366 88.477 166.839 89.1148V68.1804L166.273 67.9232V67.1516C166.273 67.1516 167.364 66.6373 166.551 65.3822H166.53ZM165.213 67.131H164.617V65.2794H165.213V67.131Z" fill="#443087" fill-opacity="0.05"/>
<path d="M172.73 65.3822C171.907 66.6373 173.008 67.1516 173.008 67.1516V67.9232L172.442 68.1804V89.084C172.915 88.4565 173.564 88.0758 174.284 88.0758C175.076 88.0758 175.786 88.549 176.269 89.2897V68.1804L175.703 67.9232V67.1516C175.703 67.1516 176.794 66.6373 175.981 65.3822C175.981 65.3822 175.209 64.1889 174.366 64.0552C173.522 64.1786 172.751 65.3822 172.751 65.3822H172.73ZM174.047 65.2794H174.644V67.131H174.047V65.2794Z" fill="#443087" fill-opacity="0.05"/>
<path d="M153.577 93.8347V94.7709H178.019V93.8759C178.019 93.8759 177.566 93.022 176.713 92.662H176.178C176.291 92.3019 176.363 91.9007 176.363 91.4893C176.363 89.8845 175.427 88.5883 174.275 88.5883C173.122 88.5883 172.186 89.8845 172.186 91.4893C172.186 91.911 172.248 92.3019 172.371 92.662H171.579C171.692 92.3019 171.764 91.9007 171.764 91.4893C171.764 89.8845 170.828 88.5883 169.676 88.5883C168.524 88.5883 167.588 89.8845 167.588 91.4893C167.588 91.911 167.65 92.3019 167.773 92.662H166.899C167.012 92.3019 167.084 91.9007 167.084 91.4893C167.084 89.8845 166.148 88.5883 164.995 88.5883C163.843 88.5883 162.907 89.8845 162.907 91.4893C162.907 91.911 162.969 92.3019 163.092 92.662H162.094C162.208 92.3019 162.28 91.9007 162.28 91.4893C162.28 89.8845 161.344 88.5883 160.191 88.5883C159.039 88.5883 158.103 89.8845 158.103 91.4893C158.103 91.911 158.165 92.3019 158.288 92.662H157.414C157.527 92.3019 157.599 91.9007 157.599 91.4893C157.599 89.8845 156.663 88.5883 155.511 88.5883C154.358 88.5883 153.422 89.8845 153.422 91.4893C153.422 91.9419 153.494 92.3637 153.628 92.7443V93.8347H153.577Z" fill="#443087" fill-opacity="0.05"/>
</svg>
